<svg width="181" height="47" viewBox="0 0 181 47" fill="none" xmlns="http://www.w3.org/2000/svg">
<path fill-rule="evenodd" clip-rule="evenodd" d="M78.3121 31.9702H64.832V13.6924H78.0786L78.5244 16.8979H70.7547V20.995H78.0786V24.2005H70.7547V28.7646H78.8004L78.3121 31.9702Z" fill="#2B416C"/>
<path d="M43.9643 37.9778H44.7497V38.8057H45.0682C45.5777 38.8057 46.0447 38.9118 46.4268 39.1241C46.8089 39.3364 47.1061 39.6124 47.2972 39.9945C47.5095 40.3766 47.5944 40.8012 47.5944 41.2894C47.5944 41.7989 47.4882 42.2447 47.2547 42.6268C47.0212 43.0302 46.724 43.3061 46.3207 43.5184C45.9173 43.7095 45.4715 43.8156 44.9196 43.8156H44.7285V44.8346H43.9431V43.8156H43.7308C43.2001 43.8156 42.733 43.7095 42.3297 43.5184C41.9476 43.3274 41.6292 43.0302 41.4169 42.6268C41.2046 42.2235 41.0772 41.7989 41.0772 41.2894C41.0772 40.8012 41.1834 40.3766 41.3956 39.9945C41.6079 39.6124 41.9051 39.3152 42.2872 39.1029C42.6693 38.8906 43.1152 38.7845 43.6459 38.7845H43.9431V37.9778H43.9643ZM43.9643 39.4638H43.7095C43.1576 39.4638 42.7118 39.6336 42.3934 39.952C42.075 40.2705 41.9264 40.7163 41.9264 41.2682C41.9264 41.8626 42.0962 42.3296 42.4358 42.6693C42.7755 43.0089 43.2425 43.1575 43.8582 43.1575H43.9643V39.4638ZM44.7497 43.1575H44.8559C45.4715 43.1575 45.9385 42.9877 46.2782 42.6481C46.6179 42.3084 46.7877 41.8414 46.7877 41.2682C46.7877 40.695 46.6391 40.2705 46.3207 39.952C46.0022 39.6336 45.5777 39.4638 45.0045 39.4638H44.7497V43.1575Z" fill="#2B416C"/>
<path d="M52.0099 44.7496L51.8613 44.0279H51.8189C51.5641 44.3463 51.3306 44.5586 51.0759 44.6647C50.8211 44.7709 50.5239 44.8346 50.1418 44.8346C49.6536 44.8346 49.2502 44.7072 48.9743 44.4524C48.6983 44.1977 48.5497 43.8368 48.5497 43.3698C48.5497 42.3508 49.3564 41.8413 50.9697 41.7777L51.8189 41.7564V41.438C51.8189 41.0559 51.734 40.7587 51.5641 40.5676C51.3943 40.3766 51.1183 40.2917 50.7575 40.2917C50.3329 40.2917 49.8659 40.419 49.3351 40.6738L49.1016 40.1006C49.3564 39.9732 49.6111 39.8671 49.9083 39.7822C50.2055 39.6973 50.5027 39.676 50.7999 39.676C51.3943 39.676 51.8401 39.8034 52.1161 40.0794C52.4133 40.3341 52.5406 40.7587 52.5406 41.3531V44.7709H52.0099V44.7496ZM50.2904 44.1977C50.7575 44.1977 51.1396 44.0703 51.3943 43.8156C51.6703 43.5608 51.7977 43.2 51.7977 42.7329V42.2871L51.0334 42.3084C50.439 42.3296 49.9932 42.4145 49.7385 42.5843C49.4625 42.7542 49.3351 43.0089 49.3351 43.3486C49.3351 43.6245 49.4201 43.8368 49.5899 43.9642C49.7597 44.134 49.9932 44.1977 50.2904 44.1977Z" fill="#2B416C"/>
<path d="M56.6802 44.8345C56.3618 44.8345 56.0646 44.7709 55.7886 44.6647C55.5127 44.5373 55.3004 44.3675 55.1093 44.1128H55.0456C55.0881 44.41 55.1093 44.6859 55.1093 44.9407V46.9999H54.3451V39.7609H54.9607L55.0669 40.4402H55.1093C55.3004 40.1643 55.5339 39.9732 55.7886 39.8458C56.0434 39.7185 56.3406 39.6548 56.6802 39.6548C57.3383 39.6548 57.8478 39.8883 58.2087 40.3341C58.5696 40.7799 58.7394 41.4168 58.7394 42.2447C58.7394 43.0726 58.5483 43.7094 58.1875 44.1552C57.8478 44.601 57.3383 44.8345 56.6802 44.8345ZM56.5741 40.2916C56.0646 40.2916 55.7037 40.4402 55.4702 40.7162C55.2367 40.9922 55.1306 41.4592 55.1093 42.0748V42.2447C55.1093 42.9452 55.2367 43.4547 55.4702 43.7519C55.7037 44.0491 56.0858 44.1977 56.5953 44.1977C57.0199 44.1977 57.3595 44.0279 57.6143 43.667C57.869 43.3273 57.9752 42.8391 57.9752 42.2234C57.9752 41.6078 57.8478 41.1196 57.6143 40.7799C57.3595 40.4615 57.0199 40.2916 56.5741 40.2916Z" fill="#2B416C"/>
<path d="M62.9214 44.0067L63.07 43.5821L63.2611 43.0514L64.6197 39.761H65.575V44.7497H64.8957V40.6313L64.8108 40.8861L64.556 41.5866L63.2611 44.7497H62.6242L61.3293 41.5654C61.1594 41.1621 61.0533 40.8436 60.9896 40.6101V44.7285H60.3103V39.7397H61.2444L62.5605 42.9028C62.6879 43.2637 62.794 43.6246 62.9214 44.0067Z" fill="#2B416C"/>
<path d="M70.309 44.7496L70.1603 44.0279H70.1179C69.8631 44.3463 69.6296 44.5586 69.3749 44.6647C69.1201 44.7709 68.8229 44.8346 68.4408 44.8346C67.9526 44.8346 67.5492 44.7072 67.2733 44.4524C66.9973 44.1977 66.8487 43.8368 66.8487 43.3698C66.8487 42.3508 67.6554 41.8413 69.2687 41.7777L70.1179 41.7564V41.438C70.1179 41.0559 70.033 40.7587 69.8631 40.5676C69.6933 40.3766 69.4173 40.2917 69.0565 40.2917C68.6319 40.2917 68.1649 40.419 67.6342 40.6738L67.4006 40.1006C67.6554 39.9732 67.9101 39.8671 68.2073 39.7822C68.5045 39.6973 68.8017 39.676 69.0989 39.676C69.6933 39.676 70.1391 39.8034 70.4151 40.0794C70.7123 40.3341 70.8397 40.7587 70.8397 41.3531V44.7709H70.309V44.7496ZM68.5894 44.1977C69.0565 44.1977 69.4386 44.0703 69.6933 43.8156C69.9693 43.5608 70.0967 43.2 70.0967 42.7329V42.2871L69.3324 42.3084C68.738 42.3296 68.2922 42.4145 68.0375 42.5843C67.7615 42.7542 67.6342 43.0089 67.6342 43.3486C67.6342 43.6245 67.7191 43.8368 67.8889 43.9642C68.0587 44.134 68.2922 44.1977 68.5894 44.1977Z" fill="#2B416C"/>
<path d="M77.5266 46.4692H76.7836V44.7497H72.6653V39.7397H73.4083V44.0916H76.0619V39.7397H76.8261V44.0916H77.5266V46.4692Z" fill="#2B416C"/>
<path d="M80.8595 44.8345C80.1165 44.8345 79.5434 44.601 79.1188 44.1552C78.6942 43.7094 78.4819 43.0726 78.4819 42.2871C78.4819 41.4804 78.673 40.8436 79.0763 40.3766C79.4797 39.9095 80.0104 39.6548 80.6685 39.6548C81.3053 39.6548 81.7936 39.8671 82.1545 40.2704C82.5154 40.6738 82.7064 41.2257 82.7064 41.905V42.3933H79.2674C79.2886 42.9877 79.4372 43.4335 79.7132 43.7307C79.9892 44.0279 80.3925 44.1765 80.902 44.1765C81.4327 44.1765 81.9634 44.0703 82.4941 43.8368V44.5161C82.2182 44.6223 81.9634 44.7072 81.7299 44.7709C81.4752 44.8133 81.1992 44.8345 80.8595 44.8345ZM80.6472 40.2916C80.2439 40.2916 79.9255 40.419 79.692 40.6738C79.4584 40.9285 79.3098 41.2894 79.2674 41.7564H81.8785C81.8785 41.2894 81.7724 40.9073 81.5601 40.6525C81.3478 40.419 81.0506 40.2916 80.6472 40.2916Z" fill="#2B416C"/>
<path d="M88.2683 40.9922C88.2683 41.3107 88.1834 41.5654 87.9923 41.7352C87.8012 41.9051 87.5465 42.0112 87.2068 42.0749V42.1173C87.6314 42.181 87.9498 42.3084 88.1409 42.4995C88.332 42.6905 88.4381 42.9453 88.4381 43.2849C88.4381 43.7519 88.2683 44.1128 87.9286 44.3676C87.589 44.6223 87.0795 44.7497 86.4214 44.7497H84.2136V39.7397H86.4002C87.6526 39.7397 88.2683 40.1643 88.2683 40.9922ZM87.5253 41.0771C87.5253 40.8436 87.4404 40.6526 87.2493 40.5677C87.0582 40.4615 86.7823 40.4191 86.4002 40.4191H84.9778V41.8201H86.2516C86.7186 41.8201 87.0582 41.7565 87.2493 41.6503C87.4404 41.5229 87.5253 41.3319 87.5253 41.0771ZM87.6739 43.2425C87.6739 42.9665 87.5677 42.7754 87.3554 42.6481C87.1432 42.5207 86.8035 42.457 86.3365 42.457H84.9566V44.1128H86.3577C87.2493 44.1128 87.6739 43.8156 87.6739 43.2425Z" fill="#2B416C"/>
<path d="M93.3207 40.3766H91.7073V44.7497H90.9431V40.3766H89.3297V39.7397H93.3207V40.3766Z" fill="#2B416C"/>
<path d="M95.0826 39.7397V42.9028L95.0402 43.7307L95.0189 44.0067L97.7362 39.7397H98.6702V44.7497H97.9697V41.6928L97.9909 41.0771L98.0122 40.4827L95.3161 44.7497H94.3608V39.7397H95.0826Z" fill="#2B416C"/>
<path d="M100.814 39.7397V41.5654C100.814 42.1598 101.154 42.4358 101.812 42.4358C102.088 42.4358 102.364 42.3933 102.598 42.3084C102.852 42.2235 103.128 42.0749 103.447 41.8838V39.7397H104.211V44.7497H103.447V42.4782C103.128 42.6905 102.831 42.8603 102.555 42.9453C102.279 43.0302 101.982 43.0726 101.621 43.0726C101.112 43.0726 100.729 42.9453 100.453 42.6905C100.177 42.4358 100.029 42.0749 100.029 41.6291V39.7397H100.814Z" fill="#2B416C"/>
<path d="M108.159 44.8345C107.416 44.8345 106.843 44.601 106.419 44.1552C105.994 43.7094 105.782 43.0726 105.782 42.2871C105.782 41.4804 105.973 40.8436 106.376 40.3766C106.78 39.9095 107.31 39.6548 107.968 39.6548C108.605 39.6548 109.094 39.8671 109.454 40.2704C109.815 40.6738 110.006 41.2257 110.006 41.905V42.3933H106.567C106.589 42.9877 106.737 43.4335 107.013 43.7307C107.289 44.0279 107.692 44.1765 108.202 44.1765C108.733 44.1765 109.263 44.0703 109.794 43.8368V44.5161C109.518 44.6223 109.263 44.7072 109.03 44.7709C108.796 44.8133 108.499 44.8345 108.159 44.8345ZM107.968 40.2916C107.565 40.2916 107.247 40.419 107.013 40.6738C106.78 40.9285 106.631 41.2894 106.589 41.7564H109.2C109.2 41.2894 109.094 40.9073 108.881 40.6525C108.669 40.419 108.351 40.2916 107.968 40.2916Z" fill="#2B416C"/>
<path d="M113.53 44.8346C112.808 44.8346 112.257 44.6223 111.853 44.1765C111.45 43.7307 111.259 43.0938 111.259 42.2871C111.259 41.4592 111.471 40.8011 111.853 40.3553C112.257 39.9095 112.83 39.676 113.573 39.676C113.806 39.676 114.061 39.6973 114.294 39.7609C114.528 39.8034 114.719 39.8671 114.868 39.952L114.634 40.5889C114.464 40.5252 114.294 40.4615 114.082 40.419C113.891 40.3766 113.7 40.3553 113.551 40.3553C112.533 40.3553 112.023 41.0134 112.023 42.3084C112.023 42.924 112.15 43.391 112.405 43.7307C112.66 44.0491 113.021 44.2189 113.509 44.2189C113.934 44.2189 114.358 44.134 114.783 43.943V44.6223C114.464 44.7496 114.04 44.8346 113.53 44.8346Z" fill="#2B416C"/>
<path d="M119.135 39.7397H119.963L117.797 42.1598L120.132 44.7497H119.262L116.969 42.2023V44.7497H116.205V39.7397H116.969V42.181L119.135 39.7397Z" fill="#2B416C"/>
<path d="M124.378 44.7496L124.229 44.0279H124.187C123.932 44.3463 123.699 44.5586 123.444 44.6647C123.189 44.7709 122.892 44.8346 122.51 44.8346C122.022 44.8346 121.618 44.7072 121.342 44.4524C121.066 44.1977 120.918 43.8368 120.918 43.3698C120.918 42.3508 121.724 41.8413 123.338 41.7777L124.187 41.7564V41.438C124.187 41.0559 124.102 40.7587 123.932 40.5676C123.762 40.3766 123.486 40.2917 123.126 40.2917C122.701 40.2917 122.234 40.419 121.703 40.6738L121.47 40.1006C121.724 39.9732 121.979 39.8671 122.276 39.7822C122.574 39.6973 122.871 39.676 123.168 39.676C123.762 39.676 124.208 39.8034 124.484 40.0794C124.781 40.3341 124.909 40.7587 124.909 41.3531V44.7709H124.378V44.7496ZM122.659 44.1977C123.126 44.1977 123.508 44.0703 123.762 43.8156C124.038 43.5608 124.166 43.2 124.166 42.7329V42.2871L123.402 42.3084C122.807 42.3296 122.361 42.4145 122.107 42.5843C121.831 42.7542 121.703 43.0089 121.703 43.3486C121.703 43.6245 121.788 43.8368 121.958 43.9642C122.128 44.134 122.361 44.1977 122.659 44.1977Z" fill="#2B416C"/>
<path d="M126.968 44.7499H126.098L127.541 42.6483C127.159 42.5634 126.862 42.3936 126.649 42.1601C126.437 41.9053 126.331 41.6081 126.331 41.226C126.331 40.759 126.48 40.4193 126.798 40.1433C127.095 39.8886 127.541 39.7612 128.093 39.7612H130.322V44.7712H129.558V42.7757H128.284L126.968 44.7499ZM127.074 41.226C127.074 41.7992 127.499 42.0964 128.327 42.0964H129.537V40.3981H128.157C127.435 40.3981 127.074 40.6741 127.074 41.226Z" fill="#2B416C"/>
<path d="M138.092 39.7397H138.92L136.775 42.1598L139.111 44.7497H138.219L135.948 42.2023V44.7497H135.183V39.7397H135.948V42.181L138.092 39.7397Z" fill="#2B416C"/>
<path d="M144.588 42.2447C144.588 43.0513 144.375 43.6882 143.972 44.1552C143.569 44.6223 142.995 44.8345 142.274 44.8345C141.828 44.8345 141.425 44.7284 141.085 44.5161C140.745 44.3038 140.469 44.0066 140.278 43.6033C140.087 43.2212 140.002 42.7541 140.002 42.2234C140.002 41.4167 140.215 40.7799 140.618 40.3129C141.021 39.8671 141.594 39.6335 142.316 39.6335C143.017 39.6335 143.569 39.8671 143.993 40.3341C144.375 40.8011 144.588 41.438 144.588 42.2447ZM140.766 42.2447C140.766 42.8815 140.894 43.3698 141.149 43.7094C141.403 44.0491 141.785 44.2189 142.274 44.2189C142.762 44.2189 143.144 44.0491 143.399 43.7094C143.654 43.3698 143.781 42.8815 143.781 42.2447C143.781 41.6078 143.654 41.1195 143.399 40.8011C143.144 40.4615 142.762 40.3129 142.252 40.3129C141.764 40.3129 141.382 40.4827 141.127 40.8011C140.894 41.0983 140.766 41.5866 140.766 42.2447Z" fill="#2B416C"/>
<path d="M148.557 44.0067L148.706 43.5821L148.897 43.0514L150.256 39.761H151.211V44.7497H150.532V40.6313L150.447 40.8861L150.192 41.5866L148.897 44.7497H148.26L146.965 41.5654C146.795 41.1621 146.689 40.8436 146.626 40.6101V44.7285H145.946V39.7397H146.88L148.196 42.9028C148.324 43.2637 148.451 43.6246 148.557 44.0067Z" fill="#2B416C"/>
<path d="M153.822 44.7497H153.058V39.7397H157.261V44.7497H156.476V40.3978H153.822V44.7497Z" fill="#2B416C"/>
<path d="M161.804 44.7496L161.655 44.0279H161.613C161.358 44.3463 161.125 44.5586 160.87 44.6647C160.615 44.7709 160.318 44.8346 159.936 44.8346C159.448 44.8346 159.044 44.7072 158.768 44.4524C158.492 44.1977 158.344 43.8368 158.344 43.3698C158.344 42.3508 159.15 41.8413 160.764 41.7777L161.613 41.7564V41.438C161.613 41.0559 161.528 40.7587 161.358 40.5676C161.188 40.3766 160.912 40.2917 160.552 40.2917C160.127 40.2917 159.66 40.419 159.129 40.6738L158.896 40.1006C159.15 39.9732 159.405 39.8671 159.702 39.7822C160 39.6973 160.297 39.676 160.594 39.676C161.188 39.676 161.634 39.8034 161.91 40.0794C162.207 40.3341 162.335 40.7587 162.335 41.3531V44.7709H161.804V44.7496ZM160.084 44.1977C160.552 44.1977 160.934 44.0703 161.188 43.8156C161.464 43.5608 161.592 43.2 161.592 42.7329V42.2871L160.827 42.3084C160.233 42.3296 159.787 42.4145 159.533 42.5843C159.257 42.7542 159.129 43.0089 159.129 43.3486C159.129 43.6245 159.214 43.8368 159.384 43.9642C159.554 44.134 159.787 44.1977 160.084 44.1977Z" fill="#2B416C"/>
<path d="M164.903 39.7397V41.8414H167.705V39.7397H168.47V44.7497H167.705V42.4782H164.903V44.7497H164.139V39.7397H164.903Z" fill="#2B416C"/>
<path d="M171.017 39.7397V42.9028L170.975 43.7307V44.0067L173.671 39.7397H174.626V44.7497H173.904V41.6928L173.925 41.0771L173.947 40.4827L171.251 44.7497H170.295V39.7397H171.017Z" fill="#2B416C"/>
<path d="M176.706 44.7499H175.815L177.258 42.6483C176.876 42.5634 176.579 42.3936 176.367 42.1601C176.154 41.9053 176.048 41.6081 176.048 41.226C176.048 40.759 176.197 40.4193 176.515 40.1433C176.813 39.8886 177.258 39.7612 177.81 39.7612H180.039V44.7712H179.275V42.7757H178.001L176.706 44.7499ZM176.813 41.226C176.813 41.7992 177.237 42.0964 178.065 42.0964H179.275V40.3981H177.895C177.173 40.3981 176.813 40.6741 176.813 41.226Z" fill="#2B416C"/>
<path fill-rule="evenodd" clip-rule="evenodd" d="M92.8324 13.6924H84.8292V31.9489H90.7732V25.6441L92.1743 25.6228C92.8324 25.6228 94.1061 25.5591 94.6793 25.5167C99.0099 25.0921 101.26 23.0542 101.26 19.6151C101.281 15.9426 98.8613 13.6924 92.8324 13.6924ZM91.3888 23.0754H90.7732V16.4733H92.3229C93.6178 16.4733 95.3374 17.5984 95.3374 19.6364C95.3374 21.9078 93.4268 23.0754 91.3888 23.0754Z" fill="#2B416C"/>
<path fill-rule="evenodd" clip-rule="evenodd" d="M161.57 31.9702L154.247 22.4598L162.016 13.6924H156.263L149.237 21.3559V13.6924H143.293V31.9702H149.237V24.2217L154.99 31.9702H161.57Z" fill="#2B416C"/>
<path fill-rule="evenodd" clip-rule="evenodd" d="M54.4724 22.2687V22.1201C56.3405 21.7805 58.2087 20.3581 58.2087 17.9381C58.2087 14.9661 55.4702 13.6924 51.4367 13.6924H41.0984V31.9489H51.8613C56.3193 31.9489 58.9092 30.0808 58.9092 26.8965C58.9092 23.8609 56.5316 22.5235 54.4724 22.2687ZM47.0424 16.4733H49.229C50.9485 16.4733 52.0736 17.4074 52.0736 18.8721C52.0736 20.4431 50.6725 21.4833 48.8044 21.4833H47.0637V16.4733H47.0424ZM49.42 29.2317H47.0424V23.7759H49.2927C51.0971 23.7759 52.5406 24.7525 52.5406 26.3871C52.5194 28.0004 51.2669 29.2317 49.42 29.2317Z" fill="#2B416C"/>
<path fill-rule="evenodd" clip-rule="evenodd" d="M119.75 13.6924L120.281 16.8979H114.486V32.0763H108.287V16.8979H102.746L103.234 13.6924H119.75Z" fill="#2B416C"/>
<path fill-rule="evenodd" clip-rule="evenodd" d="M137.349 31.9702H123.847V13.6924H137.094L137.561 16.8979H129.791V20.995H137.094V24.2005H129.791V28.7646H137.837L137.349 31.9702Z" fill="#2B416C"/>
<path fill-rule="evenodd" clip-rule="evenodd" d="M0 27.4059C8.80984 27.4059 16.7493 25.6652 22.1838 22.8418C26.8541 25.2619 29.6775 28.4674 29.6775 31.9488C29.6775 39.5274 16.3884 45.6625 0 45.6625V27.4059Z" fill="#2B416C"/>
<path fill-rule="evenodd" clip-rule="evenodd" d="M0 0C15.7303 0.169828 28.3613 5.85908 28.3613 12.8645C28.3613 16.3672 25.2195 19.5303 20.1247 21.8442C14.8175 19.6152 7.76965 18.2565 0 18.2565V0Z" fill="#8EBF5C"/>
<path fill-rule="evenodd" clip-rule="evenodd" d="M178.808 27.5971C177.704 28.4887 176.282 29.3803 174.286 29.3803C171.314 29.3803 169.319 27.406 169.319 22.8207C169.319 18.1928 171.336 16.2186 174.286 16.2186C176.239 16.2186 177.64 17.1314 178.723 18.0018L180.867 15.5393C178.914 14.0745 176.728 13.2466 173.841 13.2466C167.43 13.2466 162.929 16.9828 162.929 22.8419C162.929 28.6585 167.451 32.416 173.841 32.416C176.685 32.416 178.829 31.6517 180.761 30.2294L178.808 27.5971Z" fill="#2B416C"/>
</svg>
