<svg width="303" height="93" viewBox="0 0 303 93" fill="none" xmlns="http://www.w3.org/2000/svg">
<path d="M18.0245 44.6128C17.0271 44.6128 16.8846 44.2566 16.9559 43.4017L17.2408 38.2008C13.6074 38.3433 8.54905 37.4172 5.20058 34.9949C1.42464 32.2876 -0.000244141 28.2267 -0.000244141 23.7383C-0.000244141 17.0413 2.99201 12.6242 5.91302 10.2731C9.19025 7.70835 14.1773 6.28347 18.8082 6.4972L19.0932 1.72385C19.1644 0.868916 19.3782 0.512695 20.3043 0.512695H27.0725C27.9987 0.512695 28.0699 1.08265 27.9987 1.72385L27.785 6.4972C31.4184 6.35471 36.6905 7.28089 39.8965 9.70319C42.3188 11.5555 45.026 15.0465 45.026 21.4585C45.026 29.1528 41.0364 33.0713 38.7566 34.7811C35.6218 37.0609 30.7772 38.4146 26.1463 38.2008L25.8614 43.4017C25.8614 44.0429 25.6476 44.6128 24.7927 44.6128H18.0245ZM18.5232 13.1941C14.8898 13.0517 12.7525 14.9753 11.8975 16.0439C9.97393 18.2525 9.61771 21.1735 9.61771 23.7383C9.61771 25.8756 9.97393 28.4404 11.9688 30.1502C13.3224 31.2189 15.6735 31.8601 17.5258 31.7889L18.5232 13.1941ZM26.4313 31.7889C30.4922 31.8601 32.772 29.5091 32.9858 29.2241C34.4107 27.6567 35.3368 25.3056 35.3368 22.0284C35.3368 17.9675 33.9832 15.9727 32.9858 15.0465C31.7034 13.9066 29.4948 13.1941 27.4287 13.1941L26.4313 31.7889Z" fill="#134577"/>
<path d="M48.8007 57.4371L51.2942 10.7722C51.3655 9.77474 52.1492 9.77474 52.5766 9.77474H59.2736C60.271 9.77474 60.1998 10.2735 60.1998 10.7722L59.4873 22.7412H59.6298C60.8409 19.0365 63.2633 14.9756 65.7568 12.6245C67.8941 10.4872 70.6014 9.13354 73.4512 9.13354C77.1559 9.13354 81.858 10.9859 81.858 21.1738C81.858 23.9523 81.573 31.2192 77.7258 37.3462C73.2374 44.5419 67.1104 45.2543 64.2607 45.2543C60.6985 45.2543 58.6324 43.9719 58.4186 43.9007L57.7062 57.4371C57.635 58.577 57.2075 58.6482 56.78 58.6482H50.0831C48.8719 58.6482 48.8007 58.1495 48.8007 57.4371ZM61.9096 38.8423C66.398 38.8423 69.1765 36.9188 71.1001 32.9291C72.6675 29.6519 72.9525 26.0184 72.9525 22.9549C72.9525 21.0313 72.8812 18.0391 70.4589 18.0391C68.2503 18.0391 64.9019 22.7412 63.6907 24.8785C60.556 30.2218 59.3448 35.0664 58.8461 38.4861C59.9148 38.7711 60.8409 38.8423 61.9096 38.8423Z" fill="#134577"/>
<path d="M106.298 43.4019L106.94 31.1479H106.797C105.942 33.2852 104.019 37.6311 100.741 41.1933C98.319 43.7581 95.7542 45.2542 92.2633 45.2542C86.2788 45.2542 86.065 40.2671 86.2075 37.7024L87.6324 10.9858C87.7036 9.8459 88.4873 9.77466 89.0573 9.77466H96.1104C96.5379 9.77466 97.3216 9.8459 97.2504 10.9858L95.683 32.0028C95.5405 33.5702 95.7542 34.9951 97.3216 34.9951C99.3164 34.9951 101.667 31.2904 102.522 29.9367C104.802 26.0896 107.581 19.9626 107.794 15.7592L108.079 10.7721C108.151 9.77466 108.934 9.77466 109.362 9.77466H116.059C117.056 9.77466 116.985 10.2734 116.985 10.7721L115.275 43.3306C115.204 44.4705 114.776 44.5418 114.349 44.5418H107.581C106.37 44.613 106.227 44.1143 106.298 43.4019Z" fill="#134577"/>
<path d="M124.747 10.7721C124.747 10.3446 124.818 9.77466 126.029 9.77466H132.726C133.154 9.77466 133.724 9.77466 133.652 10.7721L132.94 23.1686H144.624L145.336 10.7721C145.336 10.3446 145.408 9.77466 146.619 9.77466H153.316C153.743 9.77466 154.313 9.77466 154.242 10.7721L152.461 43.4019C152.461 43.7581 152.39 44.613 151.535 44.613H144.838C143.413 44.613 143.555 43.9006 143.555 43.4019L144.339 29.9367H132.726L131.942 43.4019C131.942 43.7581 131.871 44.613 131.016 44.613H124.319C122.894 44.613 123.037 43.9006 123.037 43.4019L124.747 10.7721Z" fill="#134577"/>
<path d="M157.873 29.3669C157.873 16.5429 165.069 9.13354 174.829 9.13354C182.951 9.13354 188.936 14.1206 188.936 25.1635C188.936 37.6312 181.74 45.2543 171.695 45.2543C163.787 45.2543 157.873 40.3385 157.873 29.3669ZM172.621 38.5574C175.399 38.5574 179.318 36.7763 179.318 25.5197C179.318 21.4588 179.033 15.9017 174.26 15.9017C170.84 15.9017 167.42 18.609 167.42 29.9368C167.42 33.2853 167.919 38.5574 172.621 38.5574Z" fill="#134577"/>
<path d="M191.079 36.99C191.079 36.5625 191.293 35.9926 191.934 35.9926C192.504 35.9926 193.074 36.3488 193.502 36.6338C196.066 38.2011 197.99 38.5574 200.127 38.5574C204.331 38.5574 205.898 36.2776 205.898 33.9265C205.898 29.6519 201.053 29.5806 199.914 29.5806H197.349C196.066 29.5806 196.138 28.7969 196.138 28.5832L196.351 24.8073C196.423 23.8098 197.349 23.7386 197.705 23.7386H200.412C203.761 23.7386 206.112 22.1712 206.112 19.3215C206.112 16.9704 204.616 15.5455 201.837 15.5455C198.845 15.5455 196.708 16.6142 195.354 17.3979C194.57 17.8253 194.214 18.1103 193.787 18.1103C193.43 18.1103 193.145 17.6828 193.145 17.1841L193.43 12.4108C193.43 12.0546 193.787 11.3421 195.924 10.4872C198.061 9.7035 200.555 9.13354 203.689 9.13354C208.392 9.13354 210.814 10.3447 211.669 10.8434C213.806 12.1258 215.302 14.1919 215.302 17.3266C215.302 19.7489 214.376 21.53 212.809 23.0261C210.743 24.8785 208.035 25.5909 207.537 25.7334V25.8759C209.104 26.0184 211.099 26.5884 212.453 27.4433C214.661 28.9394 215.516 31.0055 215.516 33.499C215.516 38.2011 212.88 41.7634 209.318 43.4732C206.753 44.6844 202.763 45.2543 199.629 45.2543C196.993 45.2543 194.998 44.8269 193.074 44.0432C192.433 43.7582 190.866 43.117 190.937 41.9058L191.079 36.99Z" fill="#134577"/>
<path d="M218.93 29.3669C218.93 16.5429 226.126 9.13354 235.886 9.13354C244.008 9.13354 249.993 14.1206 249.993 25.1635C249.993 37.6312 242.797 45.2543 232.752 45.2543C224.915 45.2543 218.93 40.3385 218.93 29.3669ZM233.678 38.5574C236.456 38.5574 240.375 36.7763 240.375 25.5197C240.375 21.4588 240.09 15.9017 235.316 15.9017C231.897 15.9017 228.477 18.609 228.477 29.9368C228.548 33.2853 229.047 38.5574 233.678 38.5574Z" fill="#134577"/>
<path d="M266.95 19.8194C265.739 28.6537 264.67 32.6434 263.815 34.9944C262.747 38.0579 260.894 42.1188 256.263 43.9712C254.696 44.6124 252.559 44.9686 251.063 44.9686C249.495 44.9686 249.281 44.2562 249.281 43.8999L249.638 38.2717C249.638 37.9867 249.638 37.3455 250.208 37.3455H250.564C250.778 37.3455 252.203 37.3455 253.627 36.0631C254.625 35.1369 255.693 33.4983 256.62 30.1498C257.403 27.4426 258.472 21.4581 258.899 17.7534L259.683 11.4839C259.754 10.8427 259.826 9.9165 261.251 9.9165H281.413C282.41 9.9165 282.41 10.4152 282.41 10.9139L280.629 43.4725C280.558 44.6124 280.13 44.6836 279.703 44.6836H273.006C271.795 44.6836 271.652 44.1849 271.723 43.4725L273.22 16.5422H267.449L266.95 19.8194Z" fill="#134577"/>
<path d="M293.737 26.9461C291.101 26.9461 288.892 26.0912 287.182 24.4525C285.473 22.8139 284.618 20.6766 284.618 18.1118C284.618 15.547 285.473 13.4809 287.254 11.7711C289.035 10.0612 291.243 9.2063 293.879 9.2063C296.515 9.2063 298.653 10.0612 300.434 11.6998C302.144 13.3385 302.999 15.4758 302.999 18.1118C302.999 20.6766 302.144 22.7427 300.363 24.4525C298.51 26.0912 296.302 26.9461 293.737 26.9461ZM293.737 10.4887C291.528 10.4887 289.747 11.2011 288.322 12.626C286.897 14.0509 286.185 15.832 286.185 18.0406C286.185 20.2491 286.897 22.0302 288.394 23.4551C289.818 24.88 291.671 25.5924 293.808 25.5924C295.945 25.5924 297.727 24.88 299.151 23.4551C300.648 22.0302 301.36 20.2491 301.36 18.1118C301.36 15.9032 300.648 14.1221 299.223 12.6973C297.727 11.2011 295.945 10.4887 293.737 10.4887ZM298.439 23.4551H295.375L294.449 20.6766C294.164 19.6792 293.666 19.1805 293.096 19.1805H292.241V23.4551H289.676V12.4123H293.523C296.515 12.4123 297.94 13.4809 297.94 15.547C297.94 17.0432 297.085 18.0406 295.375 18.468V18.5393C296.088 18.6818 296.658 19.323 297.085 20.3204L298.439 23.4551ZM292.312 14.5496V17.3281H293.666C294.806 17.3281 295.304 16.8294 295.304 15.9032C295.304 15.0483 294.663 14.5496 293.381 14.5496H292.312Z" fill="#134577"/>
<path d="M26.9001 84.623C26.9001 85.1553 26.8147 85.6387 26.6438 86.0732C26.4778 86.5029 26.2288 86.8765 25.8967 87.1938C25.5696 87.5063 25.1594 87.7603 24.6663 87.9556C24.178 88.146 23.614 88.2656 22.9744 88.3145V89.4131C22.9744 89.4619 22.9573 89.5059 22.9231 89.5449C22.8938 89.5791 22.8425 89.6084 22.7693 89.6328C22.7009 89.6523 22.6033 89.667 22.4763 89.6768C22.3542 89.6865 22.2029 89.6914 22.0222 89.6914C21.8367 89.6914 21.6829 89.6865 21.5608 89.6768C21.4436 89.667 21.3484 89.6523 21.2751 89.6328C21.2019 89.6084 21.1482 89.5791 21.114 89.5449C21.0847 89.5107 21.0701 89.4668 21.0701 89.4131V88.3145C20.4255 88.2852 19.8567 88.1924 19.3635 88.0361C18.8752 87.875 18.4675 87.6455 18.1404 87.3477C17.8132 87.0498 17.5642 86.6812 17.3933 86.2417C17.2273 85.8022 17.1443 85.2871 17.1443 84.6963C17.1443 84.1934 17.2273 83.7319 17.3933 83.312C17.5642 82.8872 17.8132 82.5186 18.1404 82.2061C18.4724 81.8887 18.8826 81.6323 19.3708 81.437C19.8591 81.2368 20.4255 81.1099 21.0701 81.0562V80.0161C21.0701 79.9673 21.0847 79.9258 21.114 79.8916C21.1482 79.8574 21.2019 79.8306 21.2751 79.811C21.3484 79.7915 21.446 79.7769 21.5681 79.7671C21.6902 79.7524 21.8416 79.7451 22.0222 79.7451C22.2029 79.7451 22.3542 79.7524 22.4763 79.7671C22.6033 79.7769 22.7009 79.7915 22.7693 79.811C22.8425 79.8306 22.8938 79.8574 22.9231 79.8916C22.9573 79.9258 22.9744 79.9673 22.9744 80.0161V81.0562C23.6189 81.0903 24.1853 81.1904 24.6736 81.3564C25.1619 81.5176 25.5696 81.7446 25.8967 82.0376C26.2288 82.3306 26.4778 82.6943 26.6438 83.1289C26.8147 83.5586 26.9001 84.0566 26.9001 84.623ZM24.9592 84.7036C24.9592 84.396 24.925 84.1177 24.8567 83.8687C24.7883 83.6147 24.676 83.395 24.5198 83.2095C24.3635 83.0239 24.156 82.8726 23.8972 82.7554C23.6433 82.6382 23.3259 82.5576 22.9451 82.5137V86.8569C23.3162 86.813 23.6287 86.73 23.8826 86.6079C24.1414 86.481 24.3489 86.3223 24.5051 86.1318C24.6663 85.9414 24.781 85.7241 24.8494 85.48C24.9226 85.2358 24.9592 84.9771 24.9592 84.7036ZM21.0994 82.5137C20.7234 82.5527 20.406 82.6357 20.1472 82.7627C19.8933 82.8896 19.6882 83.0459 19.532 83.2314C19.3757 83.417 19.261 83.6294 19.1877 83.8687C19.1194 84.103 19.0852 84.3521 19.0852 84.6157C19.0852 84.938 19.1194 85.2285 19.1877 85.4873C19.261 85.7412 19.3757 85.9634 19.532 86.1538C19.6882 86.3394 19.8933 86.4932 20.1472 86.6152C20.406 86.7324 20.7234 86.813 21.0994 86.8569V82.5137Z" fill="#95C619"/>
<path d="M38.5076 84.7988C38.5076 85.585 38.4099 86.2881 38.2146 86.9082C38.0193 87.5283 37.7288 88.0557 37.343 88.4902C36.9573 88.9199 36.4788 89.2495 35.9075 89.479C35.3411 89.7036 34.6843 89.8159 33.9373 89.8159C33.2 89.8159 32.5554 89.7207 32.0037 89.5303C31.4568 89.335 31.0002 89.0396 30.634 88.644C30.2678 88.2485 29.9919 87.7456 29.8064 87.1353C29.6257 86.5249 29.5354 85.8022 29.5354 84.9673C29.5354 84.2007 29.6331 83.5122 29.8284 82.9019C30.0237 82.2866 30.3142 81.7642 30.7 81.3345C31.0857 80.9048 31.5618 80.5752 32.1282 80.3457C32.6995 80.1162 33.3611 80.0015 34.113 80.0015C34.8308 80.0015 35.4631 80.0967 36.01 80.2871C36.5618 80.4775 37.0208 80.7705 37.387 81.166C37.7581 81.5615 38.0364 82.062 38.2219 82.6675C38.4124 83.2681 38.5076 83.9785 38.5076 84.7988ZM36.4861 84.9014C36.4861 84.4033 36.447 83.9517 36.3689 83.5464C36.2908 83.1362 36.1565 82.7871 35.9661 82.499C35.7805 82.2061 35.5315 81.9814 35.219 81.8252C34.9065 81.6641 34.5159 81.5835 34.0471 81.5835C33.5735 81.5835 33.178 81.6738 32.8606 81.8545C32.5432 82.0303 32.2869 82.2671 32.0916 82.5649C31.8962 82.8628 31.7571 83.2119 31.6741 83.6123C31.5959 84.0078 31.5569 84.4277 31.5569 84.8721C31.5569 85.3896 31.5959 85.856 31.6741 86.271C31.7522 86.6812 31.884 87.0327 32.0696 87.3257C32.2551 87.6187 32.5042 87.8433 32.8167 87.9995C33.1292 88.1509 33.5222 88.2266 33.9958 88.2266C34.4695 88.2266 34.865 88.1387 35.1824 87.9629C35.4998 87.7871 35.7561 87.5479 35.9514 87.2451C36.1467 86.9424 36.2834 86.5908 36.3616 86.1904C36.4446 85.7852 36.4861 85.3555 36.4861 84.9014Z" fill="#95C619"/>
<path d="M48.1228 83.0483C48.1228 83.5806 48.0398 84.0518 47.8738 84.4619C47.7078 84.8721 47.4661 85.2188 47.1487 85.502C46.8313 85.7803 46.4407 85.9927 45.9768 86.1392C45.5178 86.2856 44.9758 86.3589 44.3508 86.3589H43.5598V89.3838C43.5598 89.4326 43.5427 89.4766 43.5085 89.5156C43.4792 89.5547 43.428 89.5864 43.3547 89.6108C43.2815 89.6353 43.1838 89.6548 43.0618 89.6694C42.9397 89.6841 42.7834 89.6914 42.593 89.6914C42.4075 89.6914 42.2512 89.6841 42.1243 89.6694C42.0022 89.6548 41.9045 89.6353 41.8313 89.6108C41.7581 89.5864 41.7068 89.5547 41.6775 89.5156C41.6482 89.4766 41.6335 89.4326 41.6335 89.3838V80.8584C41.6335 80.6289 41.6921 80.458 41.8093 80.3457C41.9314 80.2285 42.0901 80.1699 42.2854 80.1699H44.5193C44.7439 80.1699 44.9563 80.1797 45.1565 80.1992C45.3616 80.2139 45.6057 80.2505 45.8889 80.3091C46.1721 80.3628 46.4578 80.4653 46.7458 80.6167C47.0388 80.7681 47.2878 80.9609 47.4929 81.1953C47.698 81.4248 47.8542 81.6958 47.9617 82.0083C48.0691 82.3159 48.1228 82.6626 48.1228 83.0483ZM46.1086 83.1875C46.1086 82.8555 46.05 82.582 45.9329 82.3672C45.8157 82.1523 45.6716 81.9937 45.5007 81.8911C45.3298 81.7886 45.1492 81.7251 44.9587 81.7007C44.7732 81.6714 44.5803 81.6567 44.3801 81.6567H43.5598V84.8721H44.4241C44.7317 84.8721 44.988 84.8306 45.1931 84.7476C45.4031 84.6646 45.574 84.5498 45.7058 84.4033C45.8376 84.252 45.9377 84.0737 46.0061 83.8687C46.0745 83.6587 46.1086 83.4316 46.1086 83.1875Z" fill="#95C619"/>
<path d="M62.1619 89.3838C62.1619 89.4326 62.1472 89.4766 62.1179 89.5156C62.0935 89.5547 62.0447 89.5864 61.9714 89.6108C61.9031 89.6353 61.8103 89.6548 61.6931 89.6694C61.5759 89.6841 61.427 89.6914 61.2463 89.6914C61.0706 89.6914 60.9241 89.6841 60.8069 89.6694C60.6897 89.6548 60.5969 89.6353 60.5286 89.6108C60.4602 89.5864 60.4114 89.5547 60.3821 89.5156C60.3528 89.4766 60.3381 89.4326 60.3381 89.3838V81.6714H60.3235L57.5769 89.3765C57.5574 89.4399 57.5256 89.4937 57.4817 89.5376C57.4377 89.5767 57.3767 89.6084 57.2986 89.6328C57.2253 89.6572 57.1301 89.6719 57.0129 89.6768C56.8958 89.6865 56.7542 89.6914 56.5881 89.6914C56.4221 89.6914 56.2805 89.6841 56.1633 89.6694C56.0461 89.6597 55.9485 89.6426 55.8704 89.6182C55.7971 89.5889 55.7385 89.5547 55.6946 89.5156C55.6506 89.4766 55.6213 89.4302 55.6067 89.3765L52.9553 81.6714H52.9407V89.3838C52.9407 89.4326 52.926 89.4766 52.8967 89.5156C52.8723 89.5547 52.8235 89.5864 52.7502 89.6108C52.677 89.6353 52.5818 89.6548 52.4646 89.6694C52.3523 89.6841 52.2058 89.6914 52.0251 89.6914C51.8494 89.6914 51.7029 89.6841 51.5857 89.6694C51.4685 89.6548 51.3733 89.6353 51.3 89.6108C51.2317 89.5864 51.1829 89.5547 51.1536 89.5156C51.1292 89.4766 51.1169 89.4326 51.1169 89.3838V80.939C51.1169 80.6899 51.1829 80.4995 51.3147 80.3677C51.4465 80.2358 51.6223 80.1699 51.842 80.1699H53.1018C53.3264 80.1699 53.5193 80.1895 53.6804 80.2285C53.8416 80.2627 53.9807 80.3237 54.0979 80.4116C54.2151 80.4946 54.3127 80.6069 54.3909 80.7485C54.469 80.8853 54.5374 81.0562 54.5959 81.2612L56.6467 86.9082H56.676L58.8 81.2759C58.8635 81.0708 58.9319 80.8975 59.0051 80.7559C59.0833 80.6143 59.1711 80.4995 59.2688 80.4116C59.3713 80.3237 59.491 80.2627 59.6277 80.2285C59.7644 80.1895 59.9231 80.1699 60.1038 80.1699H61.4001C61.532 80.1699 61.6443 80.187 61.7371 80.2212C61.8347 80.2554 61.9128 80.3066 61.9714 80.375C62.0349 80.4385 62.0813 80.519 62.1106 80.6167C62.1448 80.7095 62.1619 80.8169 62.1619 80.939V89.3838Z" fill="#95C619"/>
<path d="M70.2317 87.0327C70.0168 87.5796 69.8044 88.0312 69.5945 88.3877C69.3894 88.7441 69.1672 89.0273 68.928 89.2373C68.6936 89.4424 68.4348 89.584 68.1516 89.6621C67.8733 89.7451 67.5535 89.7866 67.1921 89.7866C67.0603 89.7866 66.9309 89.7769 66.804 89.7573C66.677 89.7427 66.5574 89.7207 66.4451 89.6914C66.3328 89.6621 66.2351 89.6279 66.1521 89.5889C66.0691 89.5498 66.0081 89.5132 65.969 89.479C65.9299 89.4448 65.8982 89.4082 65.8738 89.3691C65.8542 89.3252 65.8372 89.269 65.8225 89.2007C65.8079 89.1323 65.7957 89.0469 65.7859 88.9443C65.781 88.8369 65.7786 88.7051 65.7786 88.5488C65.7786 88.2656 65.7981 88.0654 65.8372 87.9482C65.8811 87.8262 65.947 87.7651 66.0349 87.7651C66.0789 87.7651 66.1277 87.7822 66.1814 87.8164C66.2351 87.8506 66.2986 87.8872 66.3718 87.9263C66.45 87.9653 66.5378 88.002 66.6355 88.0361C66.738 88.0654 66.8577 88.0801 66.9944 88.0801C67.0969 88.0801 67.1921 88.0703 67.28 88.0508C67.3679 88.0264 67.4509 87.9824 67.5291 87.9189C67.6072 87.8555 67.6853 87.7676 67.7634 87.6553C67.8416 87.5381 67.9246 87.3867 68.0125 87.2012L64.8923 80.8511C64.824 80.6997 64.7825 80.5776 64.7678 80.4849C64.7581 80.3872 64.7825 80.3115 64.8411 80.2578C64.8997 80.2041 64.9973 80.1699 65.134 80.1553C65.2756 80.1357 65.4636 80.126 65.698 80.126C65.9275 80.126 66.1106 80.1309 66.2473 80.1406C66.384 80.1504 66.4939 80.1724 66.5769 80.2065C66.6599 80.2358 66.7234 80.2822 66.7673 80.3457C66.8113 80.4043 66.8552 80.4824 66.8992 80.5801L68.2322 83.4512C68.3787 83.7588 68.5178 84.0664 68.6497 84.374C68.7815 84.6768 68.9084 84.9844 69.0305 85.2969H69.0525C69.1501 84.9697 69.2527 84.6523 69.3601 84.3447C69.4724 84.0322 69.5945 83.7051 69.7263 83.3633L70.8176 80.4482C70.842 80.3799 70.8738 80.3262 70.9128 80.2871C70.9519 80.2432 71.0105 80.209 71.0886 80.1846C71.1667 80.1602 71.2742 80.1455 71.4109 80.1406C71.5476 80.1309 71.7258 80.126 71.9456 80.126C72.1702 80.126 72.3484 80.1333 72.4802 80.1479C72.6121 80.1626 72.7073 80.1919 72.7659 80.2358C72.8245 80.2749 72.8513 80.3311 72.8464 80.4043C72.8416 80.4775 72.8171 80.5728 72.7732 80.6899L70.2317 87.0327Z" fill="#95C619"/>
<path d="M81.6633 89.3984C81.6633 89.4473 81.6487 89.4912 81.6194 89.5303C81.5901 89.5645 81.5388 89.5938 81.4656 89.6182C81.3923 89.6426 81.2922 89.6597 81.1653 89.6694C81.0432 89.6841 80.8894 89.6914 80.7039 89.6914C80.5134 89.6914 80.3572 89.6841 80.2351 89.6694C80.113 89.6597 80.0154 89.6426 79.9421 89.6182C79.8689 89.5938 79.8176 89.5645 79.7883 89.5303C79.759 89.4912 79.7444 89.4473 79.7444 89.3984V81.752H77.7083C77.5715 82.8701 77.4324 83.8467 77.2908 84.6816C77.1492 85.5166 76.9978 86.2319 76.8367 86.8276C76.6755 87.4233 76.4973 87.9116 76.302 88.2925C76.1116 88.6733 75.8918 88.9761 75.6428 89.2007C75.3987 89.4204 75.1204 89.5718 74.8079 89.6548C74.5002 89.7378 74.1487 89.7793 73.7532 89.7793C73.6799 89.7793 73.6165 89.7695 73.5627 89.75C73.509 89.7305 73.4651 89.6938 73.4309 89.6401C73.4016 89.5864 73.3796 89.5107 73.365 89.4131C73.3503 89.3154 73.343 89.1909 73.343 89.0396C73.343 88.8296 73.3479 88.6611 73.3577 88.5342C73.3674 88.4023 73.3845 88.3022 73.4089 88.2339C73.4333 88.1606 73.4651 88.1118 73.5042 88.0874C73.5432 88.063 73.5896 88.0508 73.6433 88.0508C73.7947 88.0508 73.9387 88.0215 74.0754 87.9629C74.217 87.8994 74.3513 87.7773 74.4783 87.5967C74.6101 87.416 74.7346 87.1621 74.8518 86.835C74.9739 86.5078 75.0911 86.0781 75.2034 85.5459C75.3206 85.0088 75.4353 84.3569 75.5476 83.5903C75.6648 82.8188 75.782 81.9033 75.8992 80.8438C75.9285 80.5947 75.9871 80.4214 76.075 80.3237C76.1628 80.2212 76.2922 80.1699 76.4631 80.1699H81.114C81.2898 80.1699 81.4241 80.2212 81.5168 80.3237C81.6145 80.4214 81.6633 80.5728 81.6633 80.7778V89.3984Z" fill="#95C619"/>
<path d="M92.9998 88.9297C93.0583 89.1055 93.095 89.2446 93.1096 89.3472C93.1243 89.4497 93.1047 89.5278 93.051 89.5815C92.9973 89.6304 92.9021 89.6597 92.7654 89.6694C92.6287 89.6841 92.4407 89.6914 92.2014 89.6914C91.9524 89.6914 91.7571 89.6865 91.6155 89.6768C91.4788 89.6719 91.3738 89.6597 91.3005 89.6401C91.2273 89.6157 91.176 89.584 91.1467 89.5449C91.1174 89.5059 91.093 89.4546 91.0735 89.3911L90.4363 87.4868H86.8767L86.2761 89.3398C86.2566 89.4082 86.2297 89.4668 86.1956 89.5156C86.1663 89.5596 86.115 89.5962 86.0417 89.6255C85.9734 89.6499 85.8733 89.667 85.7415 89.6768C85.6145 89.6865 85.446 89.6914 85.2361 89.6914C85.0115 89.6914 84.8357 89.6841 84.7087 89.6694C84.5818 89.6548 84.4939 89.6206 84.4451 89.5669C84.3962 89.5083 84.3792 89.4277 84.3938 89.3252C84.4084 89.2227 84.4451 89.0859 84.5037 88.915L87.426 80.5068C87.4553 80.4238 87.4895 80.3579 87.5286 80.3091C87.5676 80.2554 87.6287 80.2163 87.7117 80.1919C87.7996 80.1626 87.9192 80.1455 88.0706 80.1406C88.2219 80.1309 88.4221 80.126 88.6711 80.126C88.9592 80.126 89.1887 80.1309 89.3596 80.1406C89.5305 80.1455 89.6624 80.1626 89.7551 80.1919C89.8528 80.2163 89.9211 80.2554 89.9602 80.3091C90.0042 80.3628 90.0408 80.436 90.0701 80.5288L92.9998 88.9297ZM88.6492 81.979H88.6418L87.3015 86.0073H89.9895L88.6492 81.979Z" fill="#95C619"/>
<path d="M107.286 88.2119C107.286 88.334 107.281 88.439 107.272 88.5269C107.267 88.6099 107.257 88.6831 107.242 88.7466C107.228 88.8052 107.208 88.8564 107.184 88.9004C107.159 88.9443 107.12 88.9956 107.067 89.0542C107.013 89.1079 106.908 89.1787 106.752 89.2666C106.6 89.3545 106.412 89.4399 106.188 89.5229C105.968 89.6011 105.714 89.667 105.426 89.7207C105.143 89.7744 104.835 89.8013 104.503 89.8013C103.854 89.8013 103.268 89.7012 102.745 89.501C102.223 89.3008 101.779 89.0029 101.412 88.6074C101.046 88.207 100.765 87.709 100.57 87.1133C100.375 86.5176 100.277 85.8242 100.277 85.0332C100.277 84.2275 100.385 83.5122 100.599 82.8872C100.814 82.2622 101.115 81.7373 101.5 81.3125C101.886 80.8877 102.347 80.5654 102.885 80.3457C103.427 80.126 104.022 80.0161 104.672 80.0161C104.935 80.0161 105.189 80.0381 105.433 80.082C105.677 80.126 105.902 80.1846 106.107 80.2578C106.317 80.3262 106.505 80.4067 106.671 80.4995C106.837 80.5923 106.952 80.6729 107.015 80.7412C107.084 80.8047 107.13 80.8584 107.155 80.9023C107.179 80.9463 107.198 81.0024 107.213 81.0708C107.228 81.1392 107.238 81.2197 107.242 81.3125C107.252 81.4053 107.257 81.52 107.257 81.6567C107.257 81.8032 107.252 81.9277 107.242 82.0303C107.233 82.1328 107.216 82.2158 107.191 82.2793C107.167 82.3428 107.137 82.3892 107.103 82.4185C107.069 82.4478 107.03 82.4624 106.986 82.4624C106.913 82.4624 106.82 82.4209 106.708 82.3379C106.595 82.25 106.449 82.1548 106.268 82.0522C106.093 81.9448 105.88 81.8496 105.631 81.7666C105.387 81.6787 105.094 81.6348 104.752 81.6348C104.376 81.6348 104.039 81.7129 103.741 81.8691C103.448 82.0205 103.197 82.2402 102.987 82.5283C102.782 82.8115 102.626 83.1558 102.518 83.561C102.411 83.9663 102.357 84.4229 102.357 84.9307C102.357 85.4873 102.413 85.9707 102.526 86.3809C102.643 86.7861 102.806 87.1206 103.016 87.3843C103.231 87.6479 103.488 87.8457 103.785 87.9775C104.088 88.1045 104.427 88.168 104.803 88.168C105.145 88.168 105.441 88.1289 105.69 88.0508C105.939 87.9678 106.151 87.8774 106.327 87.7798C106.508 87.6821 106.654 87.5942 106.766 87.5161C106.884 87.438 106.974 87.3989 107.037 87.3989C107.086 87.3989 107.125 87.4087 107.155 87.4282C107.184 87.4478 107.208 87.4868 107.228 87.5454C107.247 87.604 107.262 87.687 107.272 87.7944C107.281 87.897 107.286 88.0361 107.286 88.2119Z" fill="#95C619"/>
<path d="M117.033 86.8057C117.033 87.1426 116.987 87.4478 116.894 87.7212C116.802 87.9946 116.672 88.2363 116.506 88.4463C116.345 88.6562 116.15 88.8369 115.92 88.9883C115.696 89.1396 115.447 89.2642 115.173 89.3618C114.9 89.4595 114.607 89.5327 114.294 89.5815C113.987 89.6255 113.642 89.6475 113.261 89.6475H110.742C110.581 89.6475 110.444 89.6011 110.332 89.5083C110.224 89.4106 110.171 89.2544 110.171 89.0396V80.7778C110.171 80.563 110.224 80.4092 110.332 80.3164C110.444 80.2188 110.581 80.1699 110.742 80.1699H113.122C113.703 80.1699 114.194 80.2188 114.594 80.3164C115 80.4141 115.339 80.563 115.613 80.7632C115.891 80.9585 116.103 81.2075 116.25 81.5103C116.396 81.813 116.469 82.1694 116.469 82.5796C116.469 82.8091 116.44 83.0264 116.382 83.2314C116.323 83.4316 116.238 83.6147 116.125 83.7808C116.013 83.9468 115.874 84.0933 115.708 84.2202C115.547 84.3472 115.361 84.4497 115.151 84.5278C115.42 84.5767 115.666 84.6621 115.891 84.7842C116.12 84.9062 116.318 85.0649 116.484 85.2603C116.655 85.4507 116.789 85.6753 116.887 85.9341C116.985 86.1929 117.033 86.4834 117.033 86.8057ZM114.543 82.814C114.543 82.6235 114.514 82.4526 114.455 82.3013C114.397 82.1499 114.309 82.0254 114.192 81.9277C114.074 81.8252 113.926 81.7471 113.745 81.6934C113.569 81.6396 113.332 81.6128 113.034 81.6128H112.06V84.0737H113.137C113.415 84.0737 113.637 84.042 113.803 83.9785C113.969 83.9102 114.106 83.8198 114.214 83.7075C114.326 83.5903 114.409 83.4561 114.463 83.3047C114.516 83.1484 114.543 82.9849 114.543 82.814ZM115.034 86.8716C115.034 86.6519 114.997 86.4565 114.924 86.2856C114.851 86.1099 114.743 85.9634 114.602 85.8462C114.46 85.729 114.28 85.6387 114.06 85.5752C113.84 85.5117 113.554 85.48 113.203 85.48H112.06V88.1753H113.452C113.72 88.1753 113.945 88.1484 114.126 88.0947C114.311 88.0361 114.47 87.9531 114.602 87.8457C114.739 87.7334 114.844 87.5967 114.917 87.4355C114.995 87.2695 115.034 87.0815 115.034 86.8716Z" fill="#95C619"/>
<path d="M128.604 84.7988C128.604 85.585 128.507 86.2881 128.311 86.9082C128.116 87.5283 127.825 88.0557 127.44 88.4902C127.054 88.9199 126.575 89.2495 126.004 89.479C125.438 89.7036 124.781 89.8159 124.034 89.8159C123.297 89.8159 122.652 89.7207 122.1 89.5303C121.553 89.335 121.097 89.0396 120.731 88.644C120.365 88.2485 120.089 87.7456 119.903 87.1353C119.722 86.5249 119.632 85.8022 119.632 84.9673C119.632 84.2007 119.73 83.5122 119.925 82.9019C120.12 82.2866 120.411 81.7642 120.797 81.3345C121.182 80.9048 121.658 80.5752 122.225 80.3457C122.796 80.1162 123.458 80.0015 124.21 80.0015C124.927 80.0015 125.56 80.0967 126.107 80.2871C126.658 80.4775 127.117 80.7705 127.484 81.166C127.855 81.5615 128.133 82.062 128.319 82.6675C128.509 83.2681 128.604 83.9785 128.604 84.7988ZM126.583 84.9014C126.583 84.4033 126.544 83.9517 126.466 83.5464C126.387 83.1362 126.253 82.7871 126.063 82.499C125.877 82.2061 125.628 81.9814 125.316 81.8252C125.003 81.6641 124.613 81.5835 124.144 81.5835C123.67 81.5835 123.275 81.6738 122.957 81.8545C122.64 82.0303 122.384 82.2671 122.188 82.5649C121.993 82.8628 121.854 83.2119 121.771 83.6123C121.693 84.0078 121.654 84.4277 121.654 84.8721C121.654 85.3896 121.693 85.856 121.771 86.271C121.849 86.6812 121.981 87.0327 122.166 87.3257C122.352 87.6187 122.601 87.8433 122.913 87.9995C123.226 88.1509 123.619 88.2266 124.093 88.2266C124.566 88.2266 124.962 88.1387 125.279 87.9629C125.596 87.7871 125.853 87.5479 126.048 87.2451C126.243 86.9424 126.38 86.5908 126.458 86.1904C126.541 85.7852 126.583 85.3555 126.583 84.9014Z" fill="#95C619"/>
<path d="M138.6 86.7104C138.6 87.1401 138.527 87.5332 138.381 87.8896C138.234 88.2461 138.012 88.5562 137.714 88.8198C137.421 89.0786 137.048 89.2812 136.594 89.4277C136.139 89.5742 135.551 89.6475 134.828 89.6475H132.331C132.155 89.6475 132.011 89.6011 131.899 89.5083C131.791 89.4106 131.738 89.2471 131.738 89.0176V80.7778C131.738 80.563 131.791 80.4092 131.899 80.3164C132.011 80.2188 132.148 80.1699 132.309 80.1699H137.67C137.719 80.1699 137.76 80.1821 137.795 80.2065C137.834 80.231 137.865 80.2749 137.89 80.3384C137.919 80.397 137.939 80.4751 137.948 80.5728C137.963 80.6655 137.97 80.7852 137.97 80.9316C137.97 81.0684 137.963 81.1855 137.948 81.2832C137.939 81.376 137.919 81.4541 137.89 81.5176C137.865 81.5762 137.834 81.6201 137.795 81.6494C137.76 81.6738 137.721 81.686 137.677 81.686H133.664V84.0444H135.239C135.849 84.0444 136.352 84.103 136.747 84.2202C137.143 84.3374 137.477 84.5107 137.751 84.7402C138.024 84.9697 138.234 85.2505 138.381 85.5825C138.527 85.9146 138.6 86.2905 138.6 86.7104ZM136.645 86.835C136.645 86.625 136.611 86.437 136.542 86.271C136.474 86.1001 136.374 85.9561 136.242 85.8389C136.11 85.7168 135.939 85.624 135.729 85.5605C135.524 85.4971 135.248 85.4653 134.902 85.4653H133.664V88.1973H134.924C135.236 88.1973 135.492 88.168 135.693 88.1094C135.898 88.0508 136.069 87.9629 136.205 87.8457C136.342 87.7285 136.449 87.5845 136.528 87.4136C136.606 87.2427 136.645 87.0498 136.645 86.835Z" fill="#95C619"/>
<path d="M150.091 84.7988C150.091 85.585 149.993 86.2881 149.798 86.9082C149.602 87.5283 149.312 88.0557 148.926 88.4902C148.54 88.9199 148.062 89.2495 147.49 89.479C146.924 89.7036 146.267 89.8159 145.52 89.8159C144.783 89.8159 144.138 89.7207 143.587 89.5303C143.04 89.335 142.583 89.0396 142.217 88.644C141.851 88.2485 141.575 87.7456 141.389 87.1353C141.209 86.5249 141.118 85.8022 141.118 84.9673C141.118 84.2007 141.216 83.5122 141.411 82.9019C141.607 82.2866 141.897 81.7642 142.283 81.3345C142.669 80.9048 143.145 80.5752 143.711 80.3457C144.282 80.1162 144.944 80.0015 145.696 80.0015C146.414 80.0015 147.046 80.0967 147.593 80.2871C148.145 80.4775 148.604 80.7705 148.97 81.166C149.341 81.5615 149.619 82.062 149.805 82.6675C149.995 83.2681 150.091 83.9785 150.091 84.7988ZM148.069 84.9014C148.069 84.4033 148.03 83.9517 147.952 83.5464C147.874 83.1362 147.74 82.7871 147.549 82.499C147.364 82.2061 147.115 81.9814 146.802 81.8252C146.49 81.6641 146.099 81.5835 145.63 81.5835C145.156 81.5835 144.761 81.6738 144.444 81.8545C144.126 82.0303 143.87 82.2671 143.675 82.5649C143.479 82.8628 143.34 83.2119 143.257 83.6123C143.179 84.0078 143.14 84.4277 143.14 84.8721C143.14 85.3896 143.179 85.856 143.257 86.271C143.335 86.6812 143.467 87.0327 143.653 87.3257C143.838 87.6187 144.087 87.8433 144.4 87.9995C144.712 88.1509 145.105 88.2266 145.579 88.2266C146.052 88.2266 146.448 88.1387 146.765 87.9629C147.083 87.7871 147.339 87.5479 147.534 87.2451C147.73 86.9424 147.866 86.5908 147.945 86.1904C148.028 85.7852 148.069 85.3555 148.069 84.9014Z" fill="#95C619"/>
<path d="M161.559 91.8813C161.559 91.9302 161.547 91.9717 161.522 92.0059C161.498 92.04 161.454 92.0669 161.39 92.0864C161.327 92.1108 161.241 92.1279 161.134 92.1377C161.027 92.1523 160.887 92.1597 160.717 92.1597C160.551 92.1597 160.414 92.1523 160.306 92.1377C160.204 92.1279 160.118 92.1108 160.05 92.0864C159.987 92.0669 159.94 92.04 159.911 92.0059C159.886 91.9717 159.874 91.9302 159.874 91.8813V89.6475H153.568V91.8813C153.568 91.9302 153.553 91.9717 153.524 92.0059C153.5 92.04 153.453 92.0669 153.385 92.0864C153.322 92.1108 153.236 92.1279 153.129 92.1377C153.021 92.1523 152.885 92.1597 152.719 92.1597C152.552 92.1597 152.416 92.1523 152.308 92.1377C152.201 92.1279 152.113 92.1108 152.045 92.0864C151.981 92.0669 151.937 92.04 151.913 92.0059C151.888 91.9717 151.876 91.9302 151.876 91.8813V88.4756C151.866 88.334 151.891 88.2339 151.949 88.1753C152.013 88.1118 152.106 88.0801 152.228 88.0801H152.667C152.784 87.9141 152.894 87.7432 152.997 87.5674C153.104 87.3916 153.207 87.1841 153.304 86.9448C153.402 86.7007 153.497 86.4126 153.59 86.0806C153.688 85.7437 153.783 85.3335 153.876 84.8501C153.969 84.3667 154.061 83.7954 154.154 83.1362C154.252 82.4722 154.352 81.6934 154.454 80.7998C154.484 80.5801 154.54 80.4214 154.623 80.3237C154.706 80.2212 154.833 80.1699 155.004 80.1699H159.845C160.016 80.1699 160.15 80.2212 160.248 80.3237C160.345 80.4214 160.394 80.5728 160.394 80.7778V88.0801H161.2C161.332 88.0801 161.425 88.1167 161.478 88.1899C161.532 88.2583 161.559 88.356 161.559 88.4829V91.8813ZM158.475 81.7227H156.263C156.176 82.4648 156.088 83.1191 156 83.6855C155.917 84.2471 155.831 84.7402 155.743 85.165C155.66 85.5898 155.575 85.9561 155.487 86.2637C155.399 86.5713 155.309 86.8374 155.216 87.062C155.128 87.2866 155.035 87.4795 154.938 87.6406C154.84 87.8018 154.74 87.9482 154.637 88.0801H158.475V81.7227Z" fill="#95C619"/>
<path d="M171.811 89.3838C171.811 89.4326 171.794 89.4766 171.76 89.5156C171.731 89.5547 171.679 89.5864 171.606 89.6108C171.533 89.6353 171.435 89.6548 171.313 89.6694C171.191 89.6841 171.037 89.6914 170.852 89.6914C170.661 89.6914 170.503 89.6841 170.376 89.6694C170.254 89.6548 170.156 89.6353 170.083 89.6108C170.014 89.5864 169.963 89.5547 169.929 89.5156C169.9 89.4766 169.885 89.4326 169.885 89.3838V85.5532H166.34V89.3838C166.34 89.4326 166.325 89.4766 166.296 89.5156C166.267 89.5547 166.216 89.5864 166.142 89.6108C166.069 89.6353 165.971 89.6548 165.849 89.6694C165.727 89.6841 165.571 89.6914 165.381 89.6914C165.195 89.6914 165.039 89.6841 164.912 89.6694C164.79 89.6548 164.692 89.6353 164.619 89.6108C164.546 89.5864 164.492 89.5547 164.458 89.5156C164.428 89.4766 164.414 89.4326 164.414 89.3838V80.4336C164.414 80.3848 164.428 80.3408 164.458 80.3018C164.492 80.2627 164.546 80.231 164.619 80.2065C164.692 80.1821 164.79 80.1626 164.912 80.1479C165.039 80.1333 165.195 80.126 165.381 80.126C165.571 80.126 165.727 80.1333 165.849 80.1479C165.971 80.1626 166.069 80.1821 166.142 80.2065C166.216 80.231 166.267 80.2627 166.296 80.3018C166.325 80.3408 166.34 80.3848 166.34 80.4336V83.9126H169.885V80.4336C169.885 80.3848 169.9 80.3408 169.929 80.3018C169.963 80.2627 170.014 80.231 170.083 80.2065C170.156 80.1821 170.254 80.1626 170.376 80.1479C170.503 80.1333 170.661 80.126 170.852 80.126C171.037 80.126 171.191 80.1333 171.313 80.1479C171.435 80.1626 171.533 80.1821 171.606 80.2065C171.679 80.231 171.731 80.2627 171.76 80.3018C171.794 80.3408 171.811 80.3848 171.811 80.4336V89.3838Z" fill="#95C619"/>
<path d="M183.902 84.7988C183.902 85.585 183.804 86.2881 183.609 86.9082C183.414 87.5283 183.123 88.0557 182.738 88.4902C182.352 88.9199 181.873 89.2495 181.302 89.479C180.736 89.7036 180.079 89.8159 179.332 89.8159C178.594 89.8159 177.95 89.7207 177.398 89.5303C176.851 89.335 176.395 89.0396 176.029 88.644C175.662 88.2485 175.386 87.7456 175.201 87.1353C175.02 86.5249 174.93 85.8022 174.93 84.9673C174.93 84.2007 175.028 83.5122 175.223 82.9019C175.418 82.2866 175.709 81.7642 176.094 81.3345C176.48 80.9048 176.956 80.5752 177.523 80.3457C178.094 80.1162 178.756 80.0015 179.508 80.0015C180.225 80.0015 180.858 80.0967 181.405 80.2871C181.956 80.4775 182.415 80.7705 182.781 81.166C183.153 81.5615 183.431 82.062 183.616 82.6675C183.807 83.2681 183.902 83.9785 183.902 84.7988ZM181.881 84.9014C181.881 84.4033 181.842 83.9517 181.763 83.5464C181.685 83.1362 181.551 82.7871 181.361 82.499C181.175 82.2061 180.926 81.9814 180.614 81.8252C180.301 81.6641 179.91 81.5835 179.442 81.5835C178.968 81.5835 178.573 81.6738 178.255 81.8545C177.938 82.0303 177.681 82.2671 177.486 82.5649C177.291 82.8628 177.152 83.2119 177.069 83.6123C176.99 84.0078 176.951 84.4277 176.951 84.8721C176.951 85.3896 176.99 85.856 177.069 86.271C177.147 86.6812 177.279 87.0327 177.464 87.3257C177.65 87.6187 177.899 87.8433 178.211 87.9995C178.524 88.1509 178.917 88.2266 179.39 88.2266C179.864 88.2266 180.26 88.1387 180.577 87.9629C180.894 87.7871 181.151 87.5479 181.346 87.2451C181.541 86.9424 181.678 86.5908 181.756 86.1904C181.839 85.7852 181.881 85.3555 181.881 84.9014Z" fill="#95C619"/>
<path d="M192.397 80.9683C192.397 81.1147 192.389 81.2393 192.375 81.3418C192.365 81.4395 192.348 81.52 192.323 81.5835C192.299 81.6421 192.267 81.686 192.228 81.7153C192.194 81.7397 192.153 81.752 192.104 81.752H188.962V89.3984C188.962 89.4473 188.945 89.4912 188.91 89.5303C188.881 89.5645 188.83 89.5938 188.757 89.6182C188.683 89.6426 188.586 89.6597 188.464 89.6694C188.342 89.6841 188.185 89.6914 187.995 89.6914C187.809 89.6914 187.653 89.6841 187.526 89.6694C187.404 89.6597 187.306 89.6426 187.233 89.6182C187.16 89.5938 187.106 89.5645 187.072 89.5303C187.043 89.4912 187.028 89.4473 187.028 89.3984V80.7778C187.028 80.5728 187.079 80.4214 187.182 80.3237C187.289 80.2212 187.428 80.1699 187.599 80.1699H192.104C192.201 80.1699 192.275 80.231 192.323 80.353C192.372 80.4751 192.397 80.6802 192.397 80.9683Z" fill="#95C619"/>
<path d="M203.118 84.7988C203.118 85.585 203.02 86.2881 202.825 86.9082C202.63 87.5283 202.339 88.0557 201.953 88.4902C201.568 88.9199 201.089 89.2495 200.518 89.479C199.951 89.7036 199.295 89.8159 198.548 89.8159C197.81 89.8159 197.166 89.7207 196.614 89.5303C196.067 89.335 195.611 89.0396 195.244 88.644C194.878 88.2485 194.602 87.7456 194.417 87.1353C194.236 86.5249 194.146 85.8022 194.146 84.9673C194.146 84.2007 194.243 83.5122 194.439 82.9019C194.634 82.2866 194.925 81.7642 195.31 81.3345C195.696 80.9048 196.172 80.5752 196.739 80.3457C197.31 80.1162 197.971 80.0015 198.723 80.0015C199.441 80.0015 200.073 80.0967 200.62 80.2871C201.172 80.4775 201.631 80.7705 201.997 81.166C202.368 81.5615 202.647 82.062 202.832 82.6675C203.023 83.2681 203.118 83.9785 203.118 84.7988ZM201.096 84.9014C201.096 84.4033 201.057 83.9517 200.979 83.5464C200.901 83.1362 200.767 82.7871 200.576 82.499C200.391 82.2061 200.142 81.9814 199.829 81.8252C199.517 81.6641 199.126 81.5835 198.657 81.5835C198.184 81.5835 197.788 81.6738 197.471 81.8545C197.154 82.0303 196.897 82.2671 196.702 82.5649C196.507 82.8628 196.367 83.2119 196.284 83.6123C196.206 84.0078 196.167 84.4277 196.167 84.8721C196.167 85.3896 196.206 85.856 196.284 86.271C196.363 86.6812 196.494 87.0327 196.68 87.3257C196.865 87.6187 197.115 87.8433 197.427 87.9995C197.74 88.1509 198.133 88.2266 198.606 88.2266C199.08 88.2266 199.475 88.1387 199.793 87.9629C200.11 87.7871 200.366 87.5479 200.562 87.2451C200.757 86.9424 200.894 86.5908 200.972 86.1904C201.055 85.7852 201.096 85.3555 201.096 84.9014Z" fill="#95C619"/>
<path d="M219.88 91.8813C219.88 91.9302 219.868 91.9717 219.844 92.0059C219.819 92.04 219.775 92.0669 219.712 92.0864C219.648 92.1108 219.563 92.1279 219.455 92.1377C219.348 92.1523 219.209 92.1597 219.038 92.1597C218.872 92.1597 218.735 92.1523 218.628 92.1377C218.525 92.1279 218.44 92.1108 218.371 92.0864C218.308 92.0669 218.261 92.04 218.232 92.0059C218.208 91.9717 218.196 91.9302 218.196 91.8813V89.6475H211.889V91.8813C211.889 91.9302 211.875 91.9717 211.845 92.0059C211.821 92.04 211.775 92.0669 211.706 92.0864C211.643 92.1108 211.557 92.1279 211.45 92.1377C211.343 92.1523 211.206 92.1597 211.04 92.1597C210.874 92.1597 210.737 92.1523 210.63 92.1377C210.522 92.1279 210.434 92.1108 210.366 92.0864C210.302 92.0669 210.259 92.04 210.234 92.0059C210.21 91.9717 210.198 91.9302 210.198 91.8813V88.4756C210.188 88.334 210.212 88.2339 210.271 88.1753C210.334 88.1118 210.427 88.0801 210.549 88.0801H210.989C211.106 87.9141 211.216 87.7432 211.318 87.5674C211.426 87.3916 211.528 87.1841 211.626 86.9448C211.723 86.7007 211.819 86.4126 211.911 86.0806C212.009 85.7437 212.104 85.3335 212.197 84.8501C212.29 84.3667 212.383 83.7954 212.475 83.1362C212.573 82.4722 212.673 81.6934 212.776 80.7998C212.805 80.5801 212.861 80.4214 212.944 80.3237C213.027 80.2212 213.154 80.1699 213.325 80.1699H218.166C218.337 80.1699 218.471 80.2212 218.569 80.3237C218.667 80.4214 218.716 80.5728 218.716 80.7778V88.0801H219.521C219.653 88.0801 219.746 88.1167 219.8 88.1899C219.853 88.2583 219.88 88.356 219.88 88.4829V91.8813ZM216.797 81.7227H214.585C214.497 82.4648 214.409 83.1191 214.321 83.6855C214.238 84.2471 214.153 84.7402 214.065 85.165C213.982 85.5898 213.896 85.9561 213.808 86.2637C213.72 86.5713 213.63 86.8374 213.537 87.062C213.449 87.2866 213.357 87.4795 213.259 87.6406C213.161 87.8018 213.061 87.9482 212.959 88.0801H216.797V81.7227Z" fill="#95C619"/>
<path d="M232.645 89.3984C232.645 89.4473 232.628 89.4912 232.594 89.5303C232.564 89.5645 232.513 89.5938 232.44 89.6182C232.366 89.6426 232.266 89.6597 232.139 89.6694C232.017 89.6841 231.864 89.6914 231.678 89.6914C231.492 89.6914 231.339 89.6841 231.217 89.6694C231.094 89.6597 230.994 89.6426 230.916 89.6182C230.843 89.5938 230.789 89.5645 230.755 89.5303C230.726 89.4912 230.711 89.4473 230.711 89.3984V80.4189C230.711 80.3701 230.726 80.3286 230.755 80.2944C230.789 80.2554 230.843 80.2236 230.916 80.1992C230.994 80.1748 231.094 80.1577 231.217 80.1479C231.344 80.1333 231.497 80.126 231.678 80.126C231.864 80.126 232.017 80.1333 232.139 80.1479C232.266 80.1577 232.366 80.1748 232.44 80.1992C232.513 80.2236 232.564 80.2554 232.594 80.2944C232.628 80.3286 232.645 80.3701 232.645 80.4189V89.3984ZM229.561 86.52C229.561 86.9692 229.49 87.3818 229.349 87.7578C229.212 88.1289 228.995 88.4536 228.697 88.7319C228.399 89.0103 228.009 89.2324 227.525 89.3984C227.047 89.5645 226.392 89.6475 225.562 89.6475H223.328C223.245 89.6475 223.167 89.6377 223.094 89.6182C223.026 89.5938 222.965 89.5571 222.911 89.5083C222.857 89.4546 222.813 89.3911 222.779 89.3179C222.75 89.2397 222.735 89.147 222.735 89.0396V80.4189C222.735 80.3701 222.75 80.3286 222.779 80.2944C222.813 80.2554 222.867 80.2236 222.94 80.1992C223.018 80.1748 223.118 80.1577 223.24 80.1479C223.367 80.1333 223.521 80.126 223.702 80.126C223.892 80.126 224.049 80.1333 224.171 80.1479C224.293 80.1577 224.39 80.1748 224.464 80.1992C224.537 80.2236 224.588 80.2554 224.617 80.2944C224.647 80.3286 224.661 80.3701 224.661 80.4189V83.6929H225.855C226.563 83.6929 227.127 83.7539 227.547 83.876C227.972 83.998 228.331 84.1787 228.624 84.418C228.922 84.6572 229.151 84.9551 229.312 85.3115C229.478 85.668 229.561 86.0708 229.561 86.52ZM227.584 86.6812C227.584 86.4468 227.55 86.2368 227.481 86.0513C227.413 85.8657 227.308 85.707 227.166 85.5752C227.025 85.4434 226.844 85.3408 226.624 85.2676C226.405 85.1943 226.08 85.1577 225.65 85.1577H224.661V88.168H225.679C226.129 88.168 226.466 88.124 226.69 88.0361C226.92 87.9434 227.098 87.8262 227.225 87.6846C227.352 87.5381 227.442 87.377 227.496 87.2012C227.554 87.0254 227.584 86.8521 227.584 86.6812Z" fill="#95C619"/>
<path d="M242.97 88.9224C243.058 89.0933 243.115 89.23 243.139 89.3325C243.168 89.4351 243.154 89.5132 243.095 89.5669C243.036 89.6206 242.929 89.6548 242.773 89.6694C242.621 89.6841 242.409 89.6914 242.135 89.6914C241.906 89.6914 241.725 89.6865 241.594 89.6768C241.462 89.667 241.357 89.6523 241.279 89.6328C241.205 89.6084 241.152 89.5767 241.117 89.5376C241.083 89.4985 241.054 89.4497 241.03 89.3911L239.25 85.9707L237.477 89.3911C237.448 89.4497 237.416 89.4985 237.382 89.5376C237.348 89.5767 237.292 89.6084 237.214 89.6328C237.14 89.6523 237.035 89.667 236.899 89.6768C236.767 89.6865 236.591 89.6914 236.371 89.6914C236.117 89.6914 235.92 89.6841 235.778 89.6694C235.641 89.6548 235.549 89.6206 235.5 89.5669C235.451 89.5132 235.441 89.4351 235.47 89.3325C235.5 89.23 235.561 89.0933 235.654 88.9224L237.924 84.7842L235.815 80.895C235.727 80.7192 235.666 80.5801 235.632 80.4775C235.602 80.3701 235.615 80.292 235.668 80.2432C235.727 80.1895 235.832 80.1577 235.983 80.1479C236.135 80.1333 236.349 80.126 236.628 80.126C236.857 80.126 237.038 80.1309 237.17 80.1406C237.306 80.1504 237.414 80.1675 237.492 80.1919C237.57 80.2114 237.624 80.2407 237.653 80.2798C237.687 80.3188 237.719 80.3677 237.748 80.4263L239.411 83.561L241.03 80.4263C241.059 80.3677 241.088 80.3188 241.117 80.2798C241.152 80.2407 241.203 80.2114 241.271 80.1919C241.344 80.1675 241.442 80.1504 241.564 80.1406C241.691 80.1309 241.865 80.126 242.084 80.126C242.328 80.126 242.521 80.1333 242.663 80.1479C242.804 80.1577 242.902 80.1895 242.956 80.2432C243.01 80.2969 243.022 80.375 242.992 80.4775C242.968 80.5801 242.914 80.7192 242.831 80.895L240.722 84.7622L242.97 88.9224Z" fill="#95C619"/>
<path d="M253.743 88.9297C253.802 89.1055 253.838 89.2446 253.853 89.3472C253.867 89.4497 253.848 89.5278 253.794 89.5815C253.74 89.6304 253.645 89.6597 253.509 89.6694C253.372 89.6841 253.184 89.6914 252.945 89.6914C252.696 89.6914 252.5 89.6865 252.359 89.6768C252.222 89.6719 252.117 89.6597 252.044 89.6401C251.97 89.6157 251.919 89.584 251.89 89.5449C251.861 89.5059 251.836 89.4546 251.817 89.3911L251.179 87.4868H247.62L247.019 89.3398C247 89.4082 246.973 89.4668 246.939 89.5156C246.909 89.5596 246.858 89.5962 246.785 89.6255C246.717 89.6499 246.616 89.667 246.485 89.6768C246.358 89.6865 246.189 89.6914 245.979 89.6914C245.755 89.6914 245.579 89.6841 245.452 89.6694C245.325 89.6548 245.237 89.6206 245.188 89.5669C245.139 89.5083 245.122 89.4277 245.137 89.3252C245.152 89.2227 245.188 89.0859 245.247 88.915L248.169 80.5068C248.198 80.4238 248.233 80.3579 248.272 80.3091C248.311 80.2554 248.372 80.2163 248.455 80.1919C248.543 80.1626 248.662 80.1455 248.814 80.1406C248.965 80.1309 249.165 80.126 249.414 80.126C249.702 80.126 249.932 80.1309 250.103 80.1406C250.274 80.1455 250.406 80.1626 250.498 80.1919C250.596 80.2163 250.664 80.2554 250.703 80.3091C250.747 80.3628 250.784 80.436 250.813 80.5288L253.743 88.9297ZM249.392 81.979H249.385L248.045 86.0073H250.733L249.392 81.979Z" fill="#95C619"/>
<path d="M263.973 89.3838C263.973 89.4326 263.956 89.4766 263.922 89.5156C263.893 89.5547 263.842 89.5864 263.768 89.6108C263.695 89.6353 263.597 89.6548 263.475 89.6694C263.353 89.6841 263.199 89.6914 263.014 89.6914C262.823 89.6914 262.665 89.6841 262.538 89.6694C262.416 89.6548 262.318 89.6353 262.245 89.6108C262.177 89.5864 262.125 89.5547 262.091 89.5156C262.062 89.4766 262.047 89.4326 262.047 89.3838V85.5532H258.502V89.3838C258.502 89.4326 258.488 89.4766 258.458 89.5156C258.429 89.5547 258.378 89.5864 258.304 89.6108C258.231 89.6353 258.134 89.6548 258.011 89.6694C257.889 89.6841 257.733 89.6914 257.543 89.6914C257.357 89.6914 257.201 89.6841 257.074 89.6694C256.952 89.6548 256.854 89.6353 256.781 89.6108C256.708 89.5864 256.654 89.5547 256.62 89.5156C256.591 89.4766 256.576 89.4326 256.576 89.3838V80.4336C256.576 80.3848 256.591 80.3408 256.62 80.3018C256.654 80.2627 256.708 80.231 256.781 80.2065C256.854 80.1821 256.952 80.1626 257.074 80.1479C257.201 80.1333 257.357 80.126 257.543 80.126C257.733 80.126 257.889 80.1333 258.011 80.1479C258.134 80.1626 258.231 80.1821 258.304 80.2065C258.378 80.231 258.429 80.2627 258.458 80.3018C258.488 80.3408 258.502 80.3848 258.502 80.4336V83.9126H262.047V80.4336C262.047 80.3848 262.062 80.3408 262.091 80.3018C262.125 80.2627 262.177 80.231 262.245 80.2065C262.318 80.1821 262.416 80.1626 262.538 80.1479C262.665 80.1333 262.823 80.126 263.014 80.126C263.199 80.126 263.353 80.1333 263.475 80.1479C263.597 80.1626 263.695 80.1821 263.768 80.2065C263.842 80.231 263.893 80.2627 263.922 80.3018C263.956 80.3408 263.973 80.3848 263.973 80.4336V89.3838Z" fill="#95C619"/>
<path d="M275.251 89.3984C275.251 89.4473 275.234 89.4912 275.2 89.5303C275.171 89.5645 275.119 89.5938 275.046 89.6182C274.973 89.6426 274.873 89.6597 274.746 89.6694C274.624 89.6841 274.47 89.6914 274.284 89.6914C274.099 89.6914 273.943 89.6841 273.816 89.6694C273.694 89.6597 273.596 89.6426 273.523 89.6182C273.454 89.5938 273.406 89.5645 273.376 89.5303C273.347 89.4912 273.332 89.4473 273.332 89.3984V84.4033C273.332 84.2129 273.335 84.0273 273.34 83.8467C273.344 83.6611 273.352 83.4976 273.362 83.356H273.347C273.308 83.4243 273.261 83.5049 273.208 83.5977C273.154 83.6855 273.095 83.7808 273.032 83.8833C272.973 83.981 272.91 84.0835 272.842 84.1909C272.773 84.2935 272.705 84.3936 272.636 84.4912L269.341 89.4058C269.302 89.4595 269.26 89.5059 269.216 89.5449C269.177 89.584 269.123 89.6157 269.055 89.6401C268.991 89.6597 268.911 89.6719 268.813 89.6768C268.72 89.6865 268.598 89.6914 268.447 89.6914C268.257 89.6914 268.103 89.6841 267.986 89.6694C267.868 89.6597 267.776 89.6426 267.707 89.6182C267.644 89.5938 267.6 89.562 267.575 89.5229C267.551 89.4839 267.539 89.4375 267.539 89.3838V80.4189C267.539 80.3701 267.553 80.3286 267.583 80.2944C267.617 80.2554 267.671 80.2236 267.744 80.1992C267.822 80.1748 267.922 80.1577 268.044 80.1479C268.166 80.1333 268.32 80.126 268.506 80.126C268.696 80.126 268.852 80.1333 268.974 80.1479C269.096 80.1577 269.194 80.1748 269.267 80.1992C269.341 80.2236 269.392 80.2554 269.421 80.2944C269.45 80.3286 269.465 80.3701 269.465 80.4189V85.4434C269.465 85.5996 269.463 85.7656 269.458 85.9414C269.453 86.1172 269.446 86.2881 269.436 86.4541H269.45C269.533 86.3076 269.638 86.1318 269.765 85.9268C269.892 85.7217 270.024 85.5215 270.161 85.3262L273.457 80.4116C273.491 80.3628 273.528 80.3213 273.567 80.2871C273.606 80.248 273.657 80.2163 273.72 80.1919C273.789 80.1675 273.872 80.1504 273.969 80.1406C274.067 80.1309 274.192 80.126 274.343 80.126C274.529 80.126 274.677 80.1333 274.79 80.1479C274.907 80.1577 275 80.1748 275.068 80.1992C275.136 80.2236 275.183 80.2554 275.207 80.2944C275.237 80.3286 275.251 80.3726 275.251 80.4263V89.3984Z" fill="#95C619"/>
<path d="M285.365 89.3984C285.365 89.4473 285.35 89.4912 285.321 89.5303C285.291 89.5645 285.24 89.5938 285.167 89.6182C285.098 89.6426 285.001 89.6597 284.874 89.6694C284.752 89.6841 284.598 89.6914 284.412 89.6914C284.222 89.6914 284.066 89.6841 283.944 89.6694C283.822 89.6597 283.721 89.6426 283.643 89.6182C283.57 89.5938 283.519 89.5645 283.49 89.5303C283.46 89.4912 283.446 89.4473 283.446 89.3984V85.8535H282.735C282.442 85.8535 282.218 85.8828 282.061 85.9414C281.91 86 281.773 86.0903 281.651 86.2124C281.534 86.3345 281.429 86.4883 281.336 86.6738C281.243 86.8545 281.153 87.0693 281.065 87.3184L280.347 89.3691C280.323 89.4277 280.291 89.479 280.252 89.5229C280.213 89.562 280.152 89.5962 280.069 89.6255C279.991 89.6499 279.886 89.667 279.754 89.6768C279.622 89.6865 279.454 89.6914 279.249 89.6914C279.024 89.6914 278.846 89.6841 278.714 89.6694C278.587 89.6548 278.49 89.6353 278.421 89.6108C278.353 89.5815 278.309 89.5498 278.289 89.5156C278.27 89.4814 278.26 89.4448 278.26 89.4058C278.26 89.3569 278.267 89.2983 278.282 89.23C278.302 89.1567 278.338 89.0493 278.392 88.9077L279.102 87.0474C279.195 86.8032 279.29 86.5908 279.388 86.4102C279.486 86.2295 279.593 86.0684 279.71 85.9268C279.832 85.7803 279.959 85.6582 280.091 85.5605C280.228 85.4629 280.377 85.3848 280.538 85.3262C280.235 85.2432 279.967 85.1357 279.732 85.0039C279.503 84.8672 279.307 84.7036 279.146 84.5132C278.99 84.3179 278.87 84.0957 278.787 83.8467C278.709 83.5928 278.67 83.3096 278.67 82.9971C278.67 82.5674 278.743 82.1792 278.89 81.8325C279.041 81.481 279.263 81.1831 279.556 80.939C279.849 80.6948 280.213 80.5068 280.648 80.375C281.087 80.2383 281.698 80.1699 282.479 80.1699H284.801C284.957 80.1699 285.089 80.2188 285.196 80.3164C285.308 80.4092 285.365 80.563 285.365 80.7778V89.3984ZM283.446 81.6567H282.457C282.042 81.6567 281.732 81.6885 281.527 81.752C281.322 81.8154 281.153 81.9082 281.021 82.0303C280.894 82.1475 280.802 82.2915 280.743 82.4624C280.684 82.6284 280.655 82.814 280.655 83.019C280.655 83.2192 280.687 83.4048 280.75 83.5757C280.814 83.7417 280.911 83.8882 281.043 84.0151C281.175 84.1372 281.344 84.2324 281.549 84.3008C281.754 84.3691 282.047 84.4033 282.427 84.4033H283.446V81.6567Z" fill="#95C619"/>
</svg>
