<svg width="38" height="38" viewBox="0 0 38 38" fill="none" xmlns="http://www.w3.org/2000/svg">
<circle cx="18.7592" cy="18.7592" r="18.7592" fill="#134577"/>
<path d="M18.9117 10.8289C21.5459 10.8289 21.8487 10.844 22.8933 10.8894C23.8471 10.9349 24.3769 11.0863 24.7251 11.2225C25.1793 11.4042 25.5124 11.6161 25.8606 11.9643C26.2088 12.3125 26.4207 12.6304 26.6024 13.0998C26.7386 13.448 26.9052 13.9627 26.9354 14.9316C26.9809 15.9762 26.996 16.279 26.996 18.9132C26.996 21.5474 26.9809 21.8502 26.9354 22.8948C26.89 23.8485 26.7386 24.3784 26.6024 24.7266C26.4207 25.1808 26.2088 25.5138 25.8606 25.862C25.5124 26.2102 25.1945 26.4222 24.7251 26.6038C24.3769 26.7401 23.8622 26.9066 22.8933 26.9369C21.8487 26.9823 21.5459 26.9975 18.9117 26.9975C16.2775 26.9975 15.9747 26.9823 14.9301 26.9369C13.9764 26.8915 13.4465 26.7401 13.0983 26.6038C12.6441 26.4222 12.3111 26.2102 11.9629 25.862C11.6147 25.5138 11.4027 25.1959 11.221 24.7266C11.0848 24.3784 10.9183 23.8637 10.888 22.8948C10.8426 21.8502 10.8274 21.5474 10.8274 18.9132C10.8274 16.279 10.8426 15.9762 10.888 14.9316C10.9334 13.9778 11.0848 13.448 11.221 13.0998C11.4027 12.6456 11.6147 12.3125 11.9629 11.9643C12.3111 11.6161 12.629 11.4042 13.0983 11.2225C13.4465 11.0863 13.9612 10.9197 14.9301 10.8894C15.9596 10.844 16.2775 10.8289 18.9117 10.8289ZM18.9117 9.05762C16.2321 9.05762 15.899 9.07276 14.8393 9.11817C13.7947 9.16359 13.068 9.33012 12.4473 9.57235C11.7963 9.82971 11.2513 10.1628 10.7063 10.7078C10.1613 11.2528 9.82825 11.7978 9.57088 12.4488C9.32866 13.0695 9.16213 13.7962 9.11671 14.8408C9.07129 15.9005 9.05615 16.2336 9.05615 18.9132C9.05615 21.5928 9.07129 21.9259 9.11671 22.9705C9.16213 24.0151 9.32866 24.7417 9.57088 25.3624C9.82825 26.0134 10.1613 26.5584 10.7063 27.1034C11.2513 27.6484 11.7963 27.9815 12.4473 28.2389C13.068 28.4811 13.7947 28.6476 14.8393 28.693C15.8839 28.7385 16.2321 28.7536 18.8966 28.7536C21.5611 28.7536 21.9093 28.7385 22.9539 28.693C23.9985 28.6476 24.7251 28.4811 25.3458 28.2389C25.9968 27.9815 26.5418 27.6484 27.0868 27.1034C27.6318 26.5584 27.9649 26.0134 28.2223 25.3624C28.4645 24.7417 28.631 24.0151 28.6765 22.9705C28.7219 21.9259 28.737 21.5777 28.737 18.9132C28.737 16.2487 28.7219 15.9005 28.6765 14.8559C28.631 13.8113 28.4645 13.0846 28.2223 12.4639C27.9649 11.8129 27.6318 11.2679 27.0868 10.7229C26.5418 10.1779 25.9968 9.84485 25.3458 9.58749C24.7251 9.34526 23.9985 9.17873 22.9539 9.13331C21.9093 9.07276 21.5762 9.05762 18.9117 9.05762Z" fill="white"/>
<path d="M18.9066 13.8611C16.1058 13.8611 13.8501 16.132 13.8501 18.9175C13.8501 21.7031 16.121 23.974 18.9066 23.974C21.6922 23.974 23.963 21.7031 23.963 18.9175C23.963 16.132 21.6922 13.8611 18.9066 13.8611ZM18.9066 22.1876C17.0899 22.1876 15.6214 20.7191 15.6214 18.9024C15.6214 17.0857 17.0899 15.6172 18.9066 15.6172C20.7233 15.6172 22.1917 17.0857 22.1917 18.9024C22.1917 20.7191 20.7081 22.1876 18.9066 22.1876Z" fill="white"/>
<path d="M24.1613 14.8268C24.8135 14.8268 25.3422 14.2981 25.3422 13.6459C25.3422 12.9938 24.8135 12.4651 24.1613 12.4651C23.5092 12.4651 22.9805 12.9938 22.9805 13.6459C22.9805 14.2981 23.5092 14.8268 24.1613 14.8268Z" fill="white"/>
</svg>
