<svg width="227" height="129" viewBox="0 0 227 129" fill="none" xmlns="http://www.w3.org/2000/svg">
<path d="M10.1953 65.8281C10.1953 66.6667 10.0911 67.4167 9.88281 68.0781C9.67448 68.7396 9.36458 69.3021 8.95312 69.7656C8.54167 70.224 8.03125 70.5755 7.42188 70.8203C6.81771 71.0599 6.11719 71.1797 5.32031 71.1797C4.53385 71.1797 3.84635 71.0781 3.25781 70.875C2.67448 70.6667 2.1875 70.3516 1.79688 69.9297C1.40625 69.5078 1.11198 68.9714 0.914062 68.3203C0.721354 67.6693 0.625 66.8984 0.625 66.0078C0.625 65.1901 0.729167 64.4557 0.9375 63.8047C1.14583 63.1484 1.45573 62.5911 1.86719 62.1328C2.27865 61.6745 2.78646 61.3229 3.39062 61.0781C4 60.8333 4.70573 60.7109 5.50781 60.7109C6.27344 60.7109 6.94792 60.8125 7.53125 61.0156C8.11979 61.2188 8.60938 61.5312 9 61.9531C9.39583 62.375 9.69271 62.9089 9.89062 63.5547C10.0938 64.1953 10.1953 64.9531 10.1953 65.8281ZM8.03906 65.9375C8.03906 65.4062 7.9974 64.9245 7.91406 64.4922C7.83073 64.0547 7.6875 63.6823 7.48438 63.375C7.28646 63.0625 7.02083 62.8229 6.6875 62.6562C6.35417 62.4844 5.9375 62.3984 5.4375 62.3984C4.93229 62.3984 4.51042 62.4948 4.17188 62.6875C3.83333 62.875 3.5599 63.1276 3.35156 63.4453C3.14323 63.763 2.99479 64.1354 2.90625 64.5625C2.82292 64.9844 2.78125 65.4323 2.78125 65.9062C2.78125 66.4583 2.82292 66.9557 2.90625 67.3984C2.98958 67.8359 3.13021 68.2109 3.32812 68.5234C3.52604 68.8359 3.79167 69.0755 4.125 69.2422C4.45833 69.4036 4.8776 69.4844 5.38281 69.4844C5.88802 69.4844 6.3099 69.3906 6.64844 69.2031C6.98698 69.0156 7.26042 68.7604 7.46875 68.4375C7.67708 68.1146 7.82292 67.7396 7.90625 67.3125C7.99479 66.8802 8.03906 66.4219 8.03906 65.9375ZM19.1481 67.1484C19.1481 67.7682 19.0804 68.3281 18.945 68.8281C18.8148 69.3229 18.6221 69.7448 18.3669 70.0938C18.1117 70.4427 17.794 70.7109 17.4137 70.8984C17.0335 71.0859 16.5986 71.1797 16.1091 71.1797C15.9059 71.1797 15.7184 71.1589 15.5466 71.1172C15.3799 71.0807 15.2158 71.0234 15.0544 70.9453C14.8981 70.862 14.7419 70.7604 14.5856 70.6406C14.4294 70.5208 14.2679 70.3802 14.1012 70.2188V73.5C14.1012 73.5521 14.0856 73.599 14.0544 73.6406C14.0231 73.6823 13.9684 73.7161 13.8903 73.7422C13.8174 73.7734 13.7184 73.7969 13.5934 73.8125C13.4684 73.8281 13.3096 73.8359 13.1169 73.8359C12.9242 73.8359 12.7653 73.8281 12.6403 73.8125C12.5153 73.7969 12.4137 73.7734 12.3356 73.7422C12.2627 73.7161 12.2106 73.6823 12.1794 73.6406C12.1481 73.599 12.1325 73.5521 12.1325 73.5V63.7656C12.1325 63.7135 12.1455 63.6693 12.1716 63.6328C12.1976 63.5911 12.2419 63.5573 12.3044 63.5312C12.3721 63.5052 12.458 63.487 12.5622 63.4766C12.6716 63.4609 12.807 63.4531 12.9684 63.4531C13.1247 63.4531 13.2549 63.4609 13.3591 63.4766C13.4684 63.487 13.5544 63.5052 13.6169 63.5312C13.6846 63.5573 13.7315 63.5911 13.7575 63.6328C13.7835 63.6693 13.7966 63.7135 13.7966 63.7656V64.5859C13.9997 64.3776 14.1976 64.1953 14.3903 64.0391C14.5882 63.8776 14.7887 63.7448 14.9919 63.6406C15.195 63.5312 15.4033 63.4505 15.6169 63.3984C15.8356 63.3464 16.0674 63.3203 16.3122 63.3203C16.8226 63.3203 17.2575 63.4219 17.6169 63.625C17.9762 63.8229 18.2679 64.0964 18.4919 64.4453C18.721 64.7943 18.8877 65.2005 18.9919 65.6641C19.096 66.1276 19.1481 66.6224 19.1481 67.1484ZM17.1012 67.2891C17.1012 66.9922 17.0778 66.7083 17.0309 66.4375C16.9893 66.1615 16.9137 65.9167 16.8044 65.7031C16.7002 65.4896 16.5596 65.3203 16.3825 65.1953C16.2106 65.0651 15.9945 65 15.7341 65C15.6039 65 15.4736 65.0208 15.3434 65.0625C15.2184 65.099 15.0882 65.1615 14.9528 65.25C14.8226 65.3385 14.6872 65.4531 14.5466 65.5938C14.4059 65.7344 14.2575 65.9089 14.1012 66.1172V68.4141C14.3773 68.763 14.6403 69.0339 14.8903 69.2266C15.1403 69.4141 15.4007 69.5078 15.6716 69.5078C15.9268 69.5078 16.1429 69.4427 16.32 69.3125C16.5023 69.1823 16.6507 69.013 16.7653 68.8047C16.8799 68.5911 16.9632 68.3516 17.0153 68.0859C17.0726 67.8203 17.1012 67.5547 17.1012 67.2891ZM27.9837 70.7578C27.9837 70.8099 27.9681 70.8542 27.9369 70.8906C27.9108 70.9271 27.8614 70.9583 27.7884 70.9844C27.7155 71.0052 27.6166 71.0208 27.4916 71.0312C27.3718 71.0417 27.2181 71.0469 27.0306 71.0469C26.8431 71.0469 26.6843 71.0417 26.5541 71.0312C26.4291 71.0208 26.3249 71.0052 26.2416 70.9844C26.1634 70.9583 26.1061 70.9271 26.0697 70.8906C26.0384 70.8542 26.0228 70.8099 26.0228 70.7578V67.6484C26.0228 67.4297 26.028 67.2031 26.0384 66.9688C26.0541 66.7344 26.0749 66.5052 26.1009 66.2812C25.9759 66.5 25.8405 66.7161 25.6947 66.9297C25.5489 67.138 25.4004 67.3464 25.2494 67.5547L22.8978 70.75C22.8509 70.8073 22.8067 70.8568 22.765 70.8984C22.7233 70.9349 22.6686 70.9661 22.6009 70.9922C22.5384 71.013 22.4577 71.026 22.3587 71.0312C22.2598 71.0417 22.1322 71.0469 21.9759 71.0469C21.7884 71.0469 21.6348 71.0417 21.515 71.0312C21.4004 71.0208 21.3067 71.0052 21.2337 70.9844C21.166 70.9583 21.1166 70.9271 21.0853 70.8906C21.0593 70.849 21.0462 70.8021 21.0462 70.75V63.7578C21.0462 63.7109 21.0593 63.6693 21.0853 63.6328C21.1166 63.5911 21.1686 63.5573 21.2416 63.5312C21.3197 63.5052 21.4186 63.487 21.5384 63.4766C21.6634 63.4609 21.8197 63.4531 22.0072 63.4531C22.377 63.4531 22.6374 63.4792 22.7884 63.5312C22.9395 63.5833 23.015 63.6589 23.015 63.7578V66.8516C23.015 67.0651 23.0072 67.2865 22.9916 67.5156C22.9759 67.7448 22.9551 67.9661 22.9291 68.1797C23.0541 67.9714 23.1817 67.7656 23.3119 67.5625C23.4421 67.3542 23.5801 67.1536 23.7259 66.9609L26.1009 63.7578C26.1426 63.7005 26.1869 63.6536 26.2337 63.6172C26.2806 63.5755 26.3379 63.5443 26.4056 63.5234C26.4785 63.4974 26.5645 63.4792 26.6634 63.4688C26.7676 63.4583 26.9004 63.4531 27.0619 63.4531C27.2442 63.4531 27.3952 63.4583 27.515 63.4688C27.6348 63.4792 27.7285 63.4974 27.7962 63.5234C27.8692 63.5495 27.9186 63.5833 27.9447 63.625C27.9707 63.6667 27.9837 63.7135 27.9837 63.7656V70.7578ZM34.8194 64.3672C34.8194 64.5286 34.8116 64.6667 34.7959 64.7812C34.7803 64.8906 34.7595 64.9792 34.7334 65.0469C34.7074 65.1146 34.6761 65.1641 34.6397 65.1953C34.6032 65.2214 34.559 65.2344 34.5069 65.2344H32.2412V70.7344C32.2412 70.7865 32.2256 70.8333 32.1944 70.875C32.1631 70.9115 32.1084 70.9427 32.0303 70.9688C31.9574 70.9948 31.8584 71.013 31.7334 71.0234C31.6084 71.0391 31.4496 71.0469 31.2569 71.0469C31.0642 71.0469 30.9053 71.0391 30.7803 71.0234C30.6553 71.013 30.5537 70.9948 30.4756 70.9688C30.4027 70.9427 30.3506 70.9115 30.3194 70.875C30.2881 70.8333 30.2725 70.7865 30.2725 70.7344V64.1328C30.2725 63.9245 30.3168 63.7682 30.4053 63.6641C30.4939 63.5547 30.6319 63.5 30.8194 63.5H34.5069C34.559 63.5 34.6032 63.5156 34.6397 63.5469C34.6761 63.5729 34.7074 63.6198 34.7334 63.6875C34.7595 63.7552 34.7803 63.8464 34.7959 63.9609C34.8116 64.0703 34.8194 64.2057 34.8194 64.3672ZM43.2019 70.7578C43.2019 70.8099 43.1862 70.8542 43.155 70.8906C43.129 70.9271 43.0795 70.9583 43.0066 70.9844C42.9336 71.0052 42.8347 71.0208 42.7097 71.0312C42.5899 71.0417 42.4362 71.0469 42.2487 71.0469C42.0612 71.0469 41.9024 71.0417 41.7722 71.0312C41.6472 71.0208 41.543 71.0052 41.4597 70.9844C41.3816 70.9583 41.3243 70.9271 41.2878 70.8906C41.2566 70.8542 41.2409 70.8099 41.2409 70.7578V67.6484C41.2409 67.4297 41.2461 67.2031 41.2566 66.9688C41.2722 66.7344 41.293 66.5052 41.3191 66.2812C41.1941 66.5 41.0586 66.7161 40.9128 66.9297C40.767 67.138 40.6185 67.3464 40.4675 67.5547L38.1159 70.75C38.0691 70.8073 38.0248 70.8568 37.9831 70.8984C37.9415 70.9349 37.8868 70.9661 37.8191 70.9922C37.7566 71.013 37.6758 71.026 37.5769 71.0312C37.4779 71.0417 37.3503 71.0469 37.1941 71.0469C37.0066 71.0469 36.8529 71.0417 36.7331 71.0312C36.6185 71.0208 36.5248 71.0052 36.4519 70.9844C36.3842 70.9583 36.3347 70.9271 36.3034 70.8906C36.2774 70.849 36.2644 70.8021 36.2644 70.75V63.7578C36.2644 63.7109 36.2774 63.6693 36.3034 63.6328C36.3347 63.5911 36.3868 63.5573 36.4597 63.5312C36.5378 63.5052 36.6368 63.487 36.7566 63.4766C36.8816 63.4609 37.0378 63.4531 37.2253 63.4531C37.5951 63.4531 37.8555 63.4792 38.0066 63.5312C38.1576 63.5833 38.2331 63.6589 38.2331 63.7578V66.8516C38.2331 67.0651 38.2253 67.2865 38.2097 67.5156C38.1941 67.7448 38.1732 67.9661 38.1472 68.1797C38.2722 67.9714 38.3998 67.7656 38.53 67.5625C38.6602 67.3542 38.7982 67.1536 38.9441 66.9609L41.3191 63.7578C41.3607 63.7005 41.405 63.6536 41.4519 63.6172C41.4987 63.5755 41.556 63.5443 41.6237 63.5234C41.6967 63.4974 41.7826 63.4792 41.8816 63.4688C41.9857 63.4583 42.1185 63.4531 42.28 63.4531C42.4623 63.4531 42.6133 63.4583 42.7331 63.4688C42.8529 63.4792 42.9467 63.4974 43.0144 63.5234C43.0873 63.5495 43.1368 63.5833 43.1628 63.625C43.1889 63.6667 43.2019 63.7135 43.2019 63.7656V70.7578ZM52.2406 70.7344C52.2406 70.7865 52.225 70.8333 52.1937 70.875C52.1625 70.9115 52.1104 70.9427 52.0375 70.9688C51.9646 70.9948 51.863 71.013 51.7328 71.0234C51.6078 71.0391 51.4516 71.0469 51.2641 71.0469C51.0714 71.0469 50.9099 71.0391 50.7797 71.0234C50.6547 71.013 50.5557 70.9948 50.4828 70.9688C50.4099 70.9427 50.3578 70.9115 50.3266 70.875C50.2953 70.8333 50.2797 70.7865 50.2797 70.7344V67.9922H47.4594V70.7344C47.4594 70.7865 47.4437 70.8333 47.4125 70.875C47.3812 70.9115 47.3266 70.9427 47.2484 70.9688C47.1755 70.9948 47.0766 71.013 46.9516 71.0234C46.8266 71.0391 46.6677 71.0469 46.475 71.0469C46.2823 71.0469 46.1234 71.0391 45.9984 71.0234C45.8734 71.013 45.7719 70.9948 45.6937 70.9688C45.6208 70.9427 45.5687 70.9115 45.5375 70.875C45.5062 70.8333 45.4906 70.7865 45.4906 70.7344V63.7656C45.4906 63.7135 45.5062 63.6693 45.5375 63.6328C45.5687 63.5911 45.6208 63.5573 45.6937 63.5312C45.7719 63.5052 45.8734 63.487 45.9984 63.4766C46.1234 63.4609 46.2823 63.4531 46.475 63.4531C46.6677 63.4531 46.8266 63.4609 46.9516 63.4766C47.0766 63.487 47.1755 63.5052 47.2484 63.5312C47.3266 63.5573 47.3812 63.5911 47.4125 63.6328C47.4437 63.6693 47.4594 63.7135 47.4594 63.7656V66.375H50.2797V63.7656C50.2797 63.7135 50.2953 63.6693 50.3266 63.6328C50.3578 63.5911 50.4099 63.5573 50.4828 63.5312C50.5557 63.5052 50.6547 63.487 50.7797 63.4766C50.9099 63.4609 51.0714 63.4531 51.2641 63.4531C51.4516 63.4531 51.6078 63.4609 51.7328 63.4766C51.863 63.487 51.9646 63.5052 52.0375 63.5312C52.1104 63.5573 52.1625 63.5911 52.1937 63.6328C52.225 63.6693 52.2406 63.7135 52.2406 63.7656V70.7344ZM60.4825 70.7578C60.4825 70.8307 60.4565 70.888 60.4044 70.9297C60.3523 70.9714 60.269 71 60.1544 71.0156C60.045 71.0365 59.8809 71.0469 59.6622 71.0469C59.4278 71.0469 59.2559 71.0365 59.1466 71.0156C59.0424 71 58.9669 70.9714 58.92 70.9297C58.8783 70.888 58.8575 70.8307 58.8575 70.7578V70.2031C58.571 70.5104 58.2429 70.75 57.8731 70.9219C57.5085 71.0938 57.1023 71.1797 56.6544 71.1797C56.2846 71.1797 55.9434 71.1302 55.6309 71.0312C55.3236 70.9375 55.0554 70.7969 54.8262 70.6094C54.6023 70.4167 54.4278 70.1797 54.3028 69.8984C54.1778 69.6172 54.1153 69.2891 54.1153 68.9141C54.1153 68.5078 54.1934 68.1562 54.3497 67.8594C54.5111 67.5573 54.7481 67.3099 55.0606 67.1172C55.3783 66.9193 55.7716 66.7734 56.2403 66.6797C56.7091 66.5859 57.2533 66.5391 57.8731 66.5391H58.5528V66.1172C58.5528 65.8984 58.5294 65.7083 58.4825 65.5469C58.4408 65.3802 58.3679 65.2422 58.2637 65.1328C58.1648 65.0234 58.0294 64.9427 57.8575 64.8906C57.6908 64.8385 57.4825 64.8125 57.2325 64.8125C56.9044 64.8125 56.6101 64.849 56.3497 64.9219C56.0945 64.9948 55.8679 65.0755 55.67 65.1641C55.4721 65.2526 55.3054 65.3333 55.17 65.4062C55.0398 65.4792 54.933 65.5156 54.8497 65.5156C54.7924 65.5156 54.7403 65.4974 54.6934 65.4609C54.6518 65.4245 54.6153 65.3724 54.5841 65.3047C54.558 65.237 54.5372 65.1536 54.5216 65.0547C54.5059 64.9557 54.4981 64.8464 54.4981 64.7266C54.4981 64.5651 54.5111 64.4375 54.5372 64.3438C54.5632 64.25 54.6127 64.1667 54.6856 64.0938C54.7585 64.0156 54.8861 63.9323 55.0684 63.8438C55.2507 63.75 55.4643 63.6641 55.7091 63.5859C55.9539 63.5078 56.2195 63.4453 56.5059 63.3984C56.7976 63.3464 57.0971 63.3203 57.4044 63.3203C57.9512 63.3203 58.4174 63.375 58.8028 63.4844C59.1934 63.5885 59.5137 63.7526 59.7637 63.9766C60.0137 64.1953 60.196 64.4792 60.3106 64.8281C60.4252 65.1771 60.4825 65.5911 60.4825 66.0703V70.7578ZM58.5528 67.7734H57.8028C57.4851 67.7734 57.2143 67.7969 56.9903 67.8438C56.7664 67.8906 56.5841 67.9609 56.4434 68.0547C56.3028 68.1484 56.1986 68.263 56.1309 68.3984C56.0684 68.5286 56.0372 68.6797 56.0372 68.8516C56.0372 69.1432 56.1283 69.3724 56.3106 69.5391C56.4981 69.7057 56.7559 69.7891 57.0841 69.7891C57.3601 69.7891 57.6127 69.7188 57.8419 69.5781C58.0762 69.4375 58.3132 69.2318 58.5528 68.9609V67.7734ZM69.2166 70.7344C69.2166 70.7865 69.2009 70.8333 69.1697 70.875C69.1384 70.9115 69.0864 70.9427 69.0134 70.9688C68.9405 70.9948 68.839 71.013 68.7088 71.0234C68.5838 71.0391 68.4275 71.0469 68.24 71.0469C68.0473 71.0469 67.8858 71.0391 67.7556 71.0234C67.6306 71.013 67.5291 70.9948 67.4509 70.9688C67.378 70.9427 67.3259 70.9115 67.2947 70.875C67.2686 70.8333 67.2556 70.7865 67.2556 70.7344V65.1016H65.8416C65.7582 65.9193 65.6541 66.638 65.5291 67.2578C65.4093 67.8724 65.2686 68.4036 65.1072 68.8516C64.9457 69.2995 64.766 69.6719 64.5681 69.9688C64.3754 70.2604 64.1619 70.4922 63.9275 70.6641C63.6931 70.8359 63.4379 70.9583 63.1619 71.0312C62.891 71.1042 62.6046 71.1406 62.3025 71.1406C62.2296 71.1406 62.1697 71.1302 62.1228 71.1094C62.0759 71.0885 62.0395 71.0495 62.0134 70.9922C61.9874 70.9297 61.9692 70.8411 61.9588 70.7266C61.9483 70.612 61.9431 70.4609 61.9431 70.2734C61.9431 70.0807 61.9457 69.9245 61.9509 69.8047C61.9614 69.6849 61.977 69.5938 61.9978 69.5312C62.0186 69.4635 62.0473 69.4193 62.0838 69.3984C62.1202 69.3776 62.1645 69.3672 62.2166 69.3672C62.3624 69.3672 62.5004 69.3385 62.6306 69.2812C62.766 69.2188 62.891 69.112 63.0056 68.9609C63.1254 68.8047 63.2374 68.6016 63.3416 68.3516C63.4457 68.0964 63.5421 67.776 63.6306 67.3906C63.7192 67.0052 63.8025 66.5469 63.8806 66.0156C63.9588 65.4792 64.0343 64.8568 64.1072 64.1484C64.1176 63.9349 64.1619 63.776 64.24 63.6719C64.3233 63.5677 64.4561 63.5156 64.6384 63.5156H68.6775C68.8598 63.5156 68.9952 63.5677 69.0838 63.6719C69.1723 63.776 69.2166 63.9349 69.2166 64.1484V70.7344ZM78.1303 68.3906C78.1303 68.8021 78.0522 69.1797 77.8959 69.5234C77.7449 69.862 77.5105 70.1536 77.1928 70.3984C76.8751 70.638 76.4741 70.8255 75.9897 70.9609C75.5105 71.0911 74.9428 71.1562 74.2866 71.1562C74.1147 71.1562 73.9376 71.1536 73.7553 71.1484C73.573 71.1484 73.3933 71.1432 73.2162 71.1328C73.0392 71.1276 72.8647 71.1198 72.6928 71.1094C72.5261 71.099 72.3699 71.0859 72.2241 71.0703C71.9741 71.0443 71.7918 70.9688 71.6772 70.8438C71.5678 70.7188 71.5131 70.5286 71.5131 70.2734V63.7656C71.5131 63.7135 71.5287 63.6693 71.56 63.6328C71.5912 63.5911 71.6433 63.5573 71.7162 63.5312C71.7944 63.5052 71.8959 63.487 72.0209 63.4766C72.1459 63.4609 72.3022 63.4531 72.4897 63.4531C72.6824 63.4531 72.8412 63.4609 72.9662 63.4766C73.0912 63.487 73.1902 63.5052 73.2631 63.5312C73.3412 63.5573 73.3959 63.5911 73.4272 63.6328C73.4636 63.6693 73.4819 63.7135 73.4819 63.7656V65.9141C73.659 65.8984 73.8517 65.8854 74.06 65.875C74.2683 65.8646 74.4819 65.8594 74.7006 65.8594C75.2892 65.8594 75.7996 65.9193 76.2319 66.0391C76.6642 66.1536 77.0183 66.3203 77.2944 66.5391C77.5756 66.7578 77.784 67.0234 77.9194 67.3359C78.06 67.6432 78.1303 67.9948 78.1303 68.3906ZM76.06 68.5C76.06 68.3177 76.0314 68.1562 75.9741 68.0156C75.9168 67.8698 75.823 67.7474 75.6928 67.6484C75.5678 67.5443 75.4037 67.4661 75.2006 67.4141C75.0027 67.362 74.7579 67.3359 74.4662 67.3359C74.284 67.3359 74.1069 67.3411 73.935 67.3516C73.7631 67.3568 73.6121 67.3646 73.4819 67.375V69.625C73.6329 69.6406 73.7918 69.6536 73.9584 69.6641C74.1303 69.6745 74.3126 69.6797 74.5053 69.6797C75.0366 69.6797 75.4272 69.5755 75.6772 69.3672C75.9324 69.1589 76.06 68.8698 76.06 68.5ZM86.505 70.7344C86.505 70.7865 86.4894 70.8333 86.4581 70.875C86.4269 70.9115 86.3748 70.9427 86.3019 70.9688C86.229 70.9948 86.1274 71.013 85.9972 71.0234C85.8722 71.0391 85.7159 71.0469 85.5284 71.0469C85.3357 71.0469 85.1743 71.0391 85.0441 71.0234C84.9191 71.013 84.8201 70.9948 84.7472 70.9688C84.6743 70.9427 84.6222 70.9115 84.5909 70.875C84.5597 70.8333 84.5441 70.7865 84.5441 70.7344V67.9922H81.7237V70.7344C81.7237 70.7865 81.7081 70.8333 81.6769 70.875C81.6456 70.9115 81.5909 70.9427 81.5128 70.9688C81.4399 70.9948 81.3409 71.013 81.2159 71.0234C81.0909 71.0391 80.9321 71.0469 80.7394 71.0469C80.5467 71.0469 80.3878 71.0391 80.2628 71.0234C80.1378 71.013 80.0362 70.9948 79.9581 70.9688C79.8852 70.9427 79.8331 70.9115 79.8019 70.875C79.7706 70.8333 79.755 70.7865 79.755 70.7344V63.7656C79.755 63.7135 79.7706 63.6693 79.8019 63.6328C79.8331 63.5911 79.8852 63.5573 79.9581 63.5312C80.0362 63.5052 80.1378 63.487 80.2628 63.4766C80.3878 63.4609 80.5467 63.4531 80.7394 63.4531C80.9321 63.4531 81.0909 63.4609 81.2159 63.4766C81.3409 63.487 81.4399 63.5052 81.5128 63.5312C81.5909 63.5573 81.6456 63.5911 81.6769 63.6328C81.7081 63.6693 81.7237 63.7135 81.7237 63.7656V66.375H84.5441V63.7656C84.5441 63.7135 84.5597 63.6693 84.5909 63.6328C84.6222 63.5911 84.6743 63.5573 84.7472 63.5312C84.8201 63.5052 84.9191 63.487 85.0441 63.4766C85.1743 63.4609 85.3357 63.4531 85.5284 63.4531C85.7159 63.4531 85.8722 63.4609 85.9972 63.4766C86.1274 63.487 86.229 63.5052 86.3019 63.5312C86.3748 63.5573 86.4269 63.5911 86.4581 63.6328C86.4894 63.6693 86.505 63.7135 86.505 63.7656V70.7344ZM98.2234 70.7344C98.2234 70.7865 98.2078 70.8333 98.1766 70.875C98.1453 70.9115 98.0932 70.9427 98.0203 70.9688C97.9474 70.9948 97.8484 71.013 97.7234 71.0234C97.5984 71.0391 97.437 71.0469 97.2391 71.0469C97.0516 71.0469 96.8953 71.0391 96.7703 71.0234C96.6453 71.013 96.5437 70.9948 96.4656 70.9688C96.3927 70.9427 96.3406 70.9115 96.3094 70.875C96.2781 70.8333 96.2625 70.7865 96.2625 70.7344V63.7656C96.2625 63.7135 96.2781 63.6693 96.3094 63.6328C96.3406 63.5911 96.3927 63.5573 96.4656 63.5312C96.5437 63.5052 96.6453 63.487 96.7703 63.4766C96.8953 63.4609 97.0516 63.4531 97.2391 63.4531C97.437 63.4531 97.5984 63.4609 97.7234 63.4766C97.8484 63.487 97.9474 63.5052 98.0203 63.5312C98.0932 63.5573 98.1453 63.5911 98.1766 63.6328C98.2078 63.6693 98.2234 63.7135 98.2234 63.7656V70.7344ZM90.7781 65.9141C90.9552 65.8984 91.1349 65.8854 91.3172 65.875C91.4995 65.8646 91.7026 65.8594 91.9266 65.8594C92.4995 65.8594 92.9943 65.9193 93.4109 66.0391C93.8276 66.1536 94.1714 66.3203 94.4422 66.5391C94.713 66.7578 94.9135 67.0234 95.0437 67.3359C95.1792 67.6432 95.2469 67.9948 95.2469 68.3906C95.2469 68.8021 95.1714 69.1797 95.0203 69.5234C94.8745 69.862 94.6505 70.1536 94.3484 70.3984C94.0464 70.638 93.6609 70.8255 93.1922 70.9609C92.7234 71.0911 92.1661 71.1562 91.5203 71.1562C91.3484 71.1562 91.174 71.1536 90.9969 71.1484C90.8198 71.1484 90.6453 71.1432 90.4734 71.1328C90.3068 71.1276 90.1427 71.1198 89.9812 71.1094C89.8198 71.099 89.6661 71.0859 89.5203 71.0703C89.2703 71.0443 89.088 70.9688 88.9734 70.8438C88.8641 70.7188 88.8094 70.5286 88.8094 70.2734V63.7656C88.8094 63.7135 88.825 63.6693 88.8562 63.6328C88.8875 63.5911 88.9396 63.5573 89.0125 63.5312C89.0854 63.5052 89.1818 63.487 89.3016 63.4766C89.4214 63.4609 89.5698 63.4531 89.7469 63.4531C90.1219 63.4531 90.3875 63.4792 90.5437 63.5312C90.7 63.5833 90.7781 63.6615 90.7781 63.7656V65.9141ZM93.2391 68.5C93.2391 68.3177 93.2104 68.1562 93.1531 68.0156C93.101 67.8698 93.0125 67.7474 92.8875 67.6484C92.7677 67.5443 92.6089 67.4661 92.4109 67.4141C92.213 67.362 91.9708 67.3359 91.6844 67.3359C91.5073 67.3359 91.3432 67.3411 91.1922 67.3516C91.0464 67.3568 90.9083 67.3646 90.7781 67.375V69.625C90.9292 69.6406 91.0776 69.6536 91.2234 69.6641C91.3693 69.6745 91.5385 69.6797 91.7312 69.6797C92.2521 69.6797 92.6323 69.5755 92.8719 69.3672C93.1167 69.1589 93.2391 68.8698 93.2391 68.5ZM107.457 70.7578C107.457 70.8099 107.442 70.8542 107.411 70.8906C107.385 70.9271 107.335 70.9583 107.262 70.9844C107.189 71.0052 107.09 71.0208 106.965 71.0312C106.846 71.0417 106.692 71.0469 106.504 71.0469C106.317 71.0469 106.158 71.0417 106.028 71.0312C105.903 71.0208 105.799 71.0052 105.715 70.9844C105.637 70.9583 105.58 70.9271 105.543 70.8906C105.512 70.8542 105.497 70.8099 105.497 70.7578V67.6484C105.497 67.4297 105.502 67.2031 105.512 66.9688C105.528 66.7344 105.549 66.5052 105.575 66.2812C105.45 66.5 105.314 66.7161 105.168 66.9297C105.023 67.138 104.874 67.3464 104.723 67.5547L102.372 70.75C102.325 70.8073 102.28 70.8568 102.239 70.8984C102.197 70.9349 102.142 70.9661 102.075 70.9922C102.012 71.013 101.931 71.026 101.832 71.0312C101.734 71.0417 101.606 71.0469 101.45 71.0469C101.262 71.0469 101.109 71.0417 100.989 71.0312C100.874 71.0208 100.78 71.0052 100.707 70.9844C100.64 70.9583 100.59 70.9271 100.559 70.8906C100.533 70.849 100.52 70.8021 100.52 70.75V63.7578C100.52 63.7109 100.533 63.6693 100.559 63.6328C100.59 63.5911 100.642 63.5573 100.715 63.5312C100.793 63.5052 100.892 63.487 101.012 63.4766C101.137 63.4609 101.293 63.4531 101.481 63.4531C101.851 63.4531 102.111 63.4792 102.262 63.5312C102.413 63.5833 102.489 63.6589 102.489 63.7578V66.8516C102.489 67.0651 102.481 67.2865 102.465 67.5156C102.45 67.7448 102.429 67.9661 102.403 68.1797C102.528 67.9714 102.655 67.7656 102.786 67.5625C102.916 67.3542 103.054 67.1536 103.2 66.9609L105.575 63.7578C105.616 63.7005 105.661 63.6536 105.707 63.6172C105.754 63.5755 105.812 63.5443 105.879 63.5234C105.952 63.4974 106.038 63.4792 106.137 63.4688C106.241 63.4583 106.374 63.4531 106.536 63.4531C106.718 63.4531 106.869 63.4583 106.989 63.4688C107.109 63.4792 107.202 63.4974 107.27 63.5234C107.343 63.5495 107.392 63.5833 107.418 63.625C107.444 63.6667 107.457 63.7135 107.457 63.7656V70.7578ZM106.879 60.4375C106.879 60.7448 106.83 61.0339 106.731 61.3047C106.632 61.5755 106.471 61.8151 106.247 62.0234C106.028 62.2266 105.736 62.388 105.372 62.5078C105.012 62.6276 104.569 62.6875 104.043 62.6875C103.533 62.6875 103.098 62.6328 102.739 62.5234C102.379 62.4141 102.085 62.263 101.856 62.0703C101.632 61.8724 101.468 61.6354 101.364 61.3594C101.26 61.0781 101.207 60.7708 101.207 60.4375C101.207 60.3594 101.221 60.2969 101.247 60.25C101.278 60.1979 101.327 60.1562 101.395 60.125C101.463 60.0938 101.554 60.0729 101.668 60.0625C101.788 60.0469 101.937 60.0391 102.114 60.0391C102.28 60.0391 102.418 60.0469 102.528 60.0625C102.637 60.0781 102.721 60.1042 102.778 60.1406C102.835 60.1719 102.874 60.2135 102.895 60.2656C102.921 60.3125 102.934 60.3698 102.934 60.4375C102.934 60.5781 102.957 60.7083 103.004 60.8281C103.056 60.9479 103.129 61.0521 103.223 61.1406C103.322 61.224 103.442 61.2917 103.582 61.3438C103.723 61.3906 103.879 61.4141 104.051 61.4141C104.218 61.4141 104.369 61.3906 104.504 61.3438C104.64 61.2969 104.754 61.2292 104.848 61.1406C104.947 61.0521 105.02 60.9479 105.067 60.8281C105.119 60.7031 105.145 60.5677 105.145 60.4219C105.145 60.3594 105.155 60.3047 105.176 60.2578C105.197 60.2109 105.236 60.1719 105.293 60.1406C105.356 60.1042 105.437 60.0781 105.536 60.0625C105.64 60.0469 105.77 60.0391 105.926 60.0391C106.114 60.0391 106.267 60.0469 106.387 60.0625C106.512 60.0729 106.611 60.0938 106.684 60.125C106.757 60.1562 106.806 60.1979 106.832 60.25C106.864 60.2969 106.879 60.3594 106.879 60.4375ZM7.53125 93.8125C7.53125 93.8542 7.51562 93.8906 7.48438 93.9219C7.45833 93.9479 7.40885 93.9714 7.33594 93.9922C7.26302 94.0078 7.16146 94.0208 7.03125 94.0312C6.90625 94.0417 6.7474 94.0469 6.55469 94.0469C6.33594 94.0469 6.15625 94.0417 6.01562 94.0312C5.875 94.0208 5.76302 94.0078 5.67969 93.9922C5.59635 93.9714 5.53646 93.9427 5.5 93.9062C5.46354 93.8698 5.4349 93.8255 5.41406 93.7734L4.76562 92.1094C4.6875 91.8854 4.60156 91.6979 4.50781 91.5469C4.41927 91.3958 4.32031 91.276 4.21094 91.1875C4.10156 91.0938 3.97656 91.0286 3.83594 90.9922C3.69531 90.9505 3.53385 90.9297 3.35156 90.9297H2.95312V93.7734C2.95312 93.8099 2.9349 93.8464 2.89844 93.8828C2.86198 93.9141 2.80469 93.9427 2.72656 93.9688C2.64844 93.9948 2.54688 94.013 2.42188 94.0234C2.29688 94.0391 2.14583 94.0469 1.96875 94.0469C1.78646 94.0469 1.63281 94.0391 1.50781 94.0234C1.38281 94.013 1.28125 93.9948 1.20312 93.9688C1.125 93.9427 1.06771 93.9141 1.03125 93.8828C1 93.8464 0.984375 93.8099 0.984375 93.7734V86.7188C0.984375 86.6823 1 86.6484 1.03125 86.6172C1.06771 86.5807 1.125 86.5521 1.20312 86.5312C1.28125 86.5052 1.38281 86.487 1.50781 86.4766C1.63281 86.4609 1.78646 86.4531 1.96875 86.4531C2.14583 86.4531 2.29688 86.4609 2.42188 86.4766C2.54688 86.487 2.64844 86.5052 2.72656 86.5312C2.80469 86.5521 2.86198 86.5807 2.89844 86.6172C2.9349 86.6484 2.95312 86.6823 2.95312 86.7188V89.4297H3.35156C3.51302 89.4297 3.65885 89.4115 3.78906 89.375C3.91927 89.3333 4.03646 89.2682 4.14062 89.1797C4.25 89.0859 4.34896 88.9635 4.4375 88.8125C4.53125 88.6615 4.61979 88.474 4.70312 88.25L5.28906 86.75C5.30469 86.6979 5.33073 86.6536 5.36719 86.6172C5.40365 86.5755 5.45833 86.5443 5.53125 86.5234C5.60938 86.4974 5.71354 86.4792 5.84375 86.4688C5.97917 86.4583 6.15625 86.4531 6.375 86.4531C6.56771 86.4531 6.72396 86.4583 6.84375 86.4688C6.96875 86.4792 7.0651 86.4948 7.13281 86.5156C7.20573 86.5365 7.25521 86.5625 7.28125 86.5938C7.30729 86.6198 7.32031 86.6536 7.32031 86.6953C7.32031 86.7474 7.3099 86.8099 7.28906 86.8828C7.26823 86.9557 7.23177 87.0547 7.17969 87.1797L6.625 88.5078C6.51562 88.7734 6.39844 89 6.27344 89.1875C6.15365 89.3698 6.02865 89.5208 5.89844 89.6406C5.77344 89.7604 5.64583 89.8568 5.51562 89.9297C5.38542 90.0026 5.26042 90.0599 5.14062 90.1016V90.1172C5.30208 90.1849 5.45312 90.2578 5.59375 90.3359C5.73438 90.4141 5.86719 90.5156 5.99219 90.6406C6.1224 90.7656 6.24479 90.9219 6.35938 91.1094C6.47917 91.2917 6.59635 91.513 6.71094 91.7734L7.39062 93.3359C7.42188 93.4036 7.44531 93.4635 7.46094 93.5156C7.48177 93.5625 7.4974 93.6068 7.50781 93.6484C7.51823 93.6849 7.52344 93.7161 7.52344 93.7422C7.52865 93.7682 7.53125 93.7917 7.53125 93.8125ZM15.9919 90.1797C15.9919 90.7734 15.9138 91.3151 15.7575 91.8047C15.6013 92.2943 15.3643 92.7161 15.0466 93.0703C14.7289 93.4245 14.3304 93.6979 13.8513 93.8906C13.3721 94.0833 12.8122 94.1797 12.1716 94.1797C11.5518 94.1797 11.0127 94.0938 10.5544 93.9219C10.096 93.75 9.71583 93.5 9.41375 93.1719C9.11167 92.8438 8.88771 92.4401 8.74188 91.9609C8.59604 91.4818 8.52313 90.9349 8.52313 90.3203C8.52313 89.7266 8.60125 89.1849 8.7575 88.6953C8.91896 88.2005 9.15854 87.7786 9.47625 87.4297C9.79396 87.0755 10.1898 86.8021 10.6638 86.6094C11.1429 86.4167 11.7028 86.3203 12.3434 86.3203C12.9684 86.3203 13.5101 86.4062 13.9684 86.5781C14.4268 86.7448 14.8044 86.9922 15.1013 87.3203C15.4033 87.6484 15.6273 88.0521 15.7731 88.5312C15.919 89.0104 15.9919 89.5599 15.9919 90.1797ZM13.9684 90.2578C13.9684 89.9141 13.9398 89.599 13.8825 89.3125C13.8304 89.0208 13.7393 88.7682 13.6091 88.5547C13.4789 88.3411 13.3044 88.1745 13.0856 88.0547C12.8721 87.9349 12.6013 87.875 12.2731 87.875C11.9815 87.875 11.7263 87.9297 11.5075 88.0391C11.2888 88.1432 11.1091 88.2995 10.9684 88.5078C10.8278 88.7109 10.721 88.9583 10.6481 89.25C10.5804 89.5365 10.5466 89.8646 10.5466 90.2344C10.5466 90.5781 10.5752 90.8958 10.6325 91.1875C10.6898 91.474 10.7809 91.724 10.9059 91.9375C11.0361 92.151 11.2106 92.3177 11.4294 92.4375C11.6481 92.5521 11.919 92.6094 12.2419 92.6094C12.5388 92.6094 12.7966 92.5573 13.0153 92.4531C13.2341 92.3438 13.4138 92.1875 13.5544 91.9844C13.695 91.7812 13.7992 91.5365 13.8669 91.25C13.9346 90.9583 13.9684 90.6276 13.9684 90.2578ZM27.7025 93.6953C27.7129 93.8255 27.653 93.9167 27.5228 93.9688C27.3926 94.0208 27.1608 94.0469 26.8275 94.0469C26.6244 94.0469 26.4603 94.0443 26.3353 94.0391C26.2155 94.0339 26.1218 94.0208 26.0541 94C25.9916 93.9792 25.9473 93.9505 25.9212 93.9141C25.9004 93.8724 25.8874 93.8203 25.8822 93.7578L25.4681 90.0156C25.4525 89.8802 25.4369 89.7292 25.4212 89.5625C25.4108 89.3958 25.3978 89.2266 25.3822 89.0547C25.3718 88.8828 25.3614 88.7135 25.3509 88.5469C25.3405 88.375 25.3275 88.2214 25.3119 88.0859L25.3197 87.8906C25.2832 88.0312 25.2416 88.1849 25.1947 88.3516C25.153 88.5182 25.1061 88.6875 25.0541 88.8594C25.002 89.0312 24.9525 89.2031 24.9056 89.375C24.8587 89.5417 24.8145 89.6927 24.7728 89.8281L23.5462 93.6875C23.5254 93.75 23.4942 93.8047 23.4525 93.8516C23.4108 93.8984 23.3509 93.9375 23.2728 93.9688C23.1999 93.9948 23.1035 94.013 22.9837 94.0234C22.8692 94.0391 22.7233 94.0469 22.5462 94.0469C22.3848 94.0469 22.2468 94.0391 22.1322 94.0234C22.0228 94.013 21.9291 93.9948 21.8509 93.9688C21.778 93.9375 21.7207 93.8984 21.6791 93.8516C21.6374 93.8047 21.6087 93.7474 21.5931 93.6797L20.3978 89.8281C20.3561 89.6927 20.3093 89.5417 20.2572 89.375C20.2103 89.2083 20.1608 89.0391 20.1087 88.8672C20.0619 88.6953 20.015 88.526 19.9681 88.3594C19.9265 88.1875 19.89 88.0312 19.8587 87.8906L19.8666 88.0859C19.8561 88.2214 19.8457 88.375 19.8353 88.5469C19.8249 88.7135 19.8119 88.8828 19.7962 89.0547C19.7806 89.2266 19.765 89.3958 19.7494 89.5625C19.7337 89.7292 19.7207 89.8802 19.7103 90.0156L19.3119 93.7109C19.3015 93.7786 19.2832 93.8359 19.2572 93.8828C19.2311 93.9245 19.1817 93.9583 19.1087 93.9844C19.0358 94.0104 18.9369 94.026 18.8119 94.0312C18.6869 94.0417 18.5228 94.0469 18.3197 94.0469C18.1374 94.0469 17.9916 94.0417 17.8822 94.0312C17.7728 94.0208 17.6869 94.0026 17.6244 93.9766C17.5671 93.9453 17.528 93.9089 17.5072 93.8672C17.4916 93.8203 17.4864 93.763 17.4916 93.6953L18.1791 87.1719C18.2051 86.9479 18.278 86.7812 18.3978 86.6719C18.5176 86.5573 18.6999 86.5 18.9447 86.5H19.9369C20.1452 86.5 20.3223 86.5156 20.4681 86.5469C20.614 86.5781 20.7416 86.6328 20.8509 86.7109C20.9603 86.7891 21.0515 86.8958 21.1244 87.0312C21.1973 87.1667 21.2624 87.3359 21.3197 87.5391L22.1009 89.9297C22.1478 90.0859 22.1947 90.25 22.2416 90.4219C22.2884 90.5885 22.3353 90.7578 22.3822 90.9297C22.4291 91.0964 22.4707 91.2604 22.5072 91.4219C22.5489 91.5781 22.5853 91.7266 22.6166 91.8672H22.6244C22.6556 91.7266 22.6921 91.5729 22.7337 91.4062C22.7754 91.2396 22.8171 91.0703 22.8587 90.8984C22.9056 90.7266 22.9525 90.5573 22.9994 90.3906C23.0515 90.224 23.1009 90.0677 23.1478 89.9219L23.9291 87.5391C23.9811 87.3516 24.0384 87.1927 24.1009 87.0625C24.1634 86.9271 24.2442 86.8203 24.3431 86.7422C24.4421 86.6589 24.5645 86.599 24.7103 86.5625C24.8561 86.5208 25.0358 86.5 25.2494 86.5H26.2337C26.4837 86.5 26.6686 86.5573 26.7884 86.6719C26.9134 86.7812 26.9864 86.9479 27.0072 87.1719L27.7025 93.6953ZM36.5772 90.1797C36.5772 90.7786 36.486 91.3255 36.3037 91.8203C36.1267 92.3151 35.8715 92.737 35.5381 93.0859C35.21 93.4349 34.8142 93.7057 34.3506 93.8984C33.8923 94.0859 33.3819 94.1797 32.8194 94.1797C32.1944 94.1797 31.6579 94.0833 31.21 93.8906C30.7673 93.6979 30.4001 93.4089 30.1084 93.0234C29.822 92.6328 29.611 92.1432 29.4756 91.5547C29.3454 90.9609 29.2803 90.2656 29.2803 89.4688C29.2803 88.8906 29.309 88.3464 29.3662 87.8359C29.4287 87.3255 29.5173 86.8594 29.6319 86.4375C29.7517 86.0104 29.8975 85.638 30.0694 85.3203C30.2412 84.9974 30.4183 84.7396 30.6006 84.5469C30.7829 84.3542 30.96 84.2005 31.1319 84.0859C31.3037 83.9661 31.4939 83.862 31.7022 83.7734C31.9105 83.6797 32.1423 83.599 32.3975 83.5312C32.6527 83.4635 32.9314 83.4062 33.2334 83.3594L35.7178 83C35.8116 82.9896 35.8871 82.987 35.9444 82.9922C36.0069 82.9974 36.0537 83.0286 36.085 83.0859C36.1162 83.138 36.1371 83.224 36.1475 83.3438C36.1579 83.4583 36.1631 83.6198 36.1631 83.8281C36.1631 83.974 36.1579 84.1016 36.1475 84.2109C36.1371 84.3151 36.1162 84.4062 36.085 84.4844C36.0537 84.5625 36.0095 84.625 35.9522 84.6719C35.9001 84.7135 35.8324 84.7396 35.7491 84.75L33.4522 85.0938C33.2386 85.125 33.0511 85.1615 32.8897 85.2031C32.7282 85.2396 32.585 85.2839 32.46 85.3359C32.3402 85.3828 32.2334 85.4375 32.1397 85.5C32.0511 85.5625 31.9626 85.638 31.8741 85.7266C31.7855 85.8151 31.7048 85.9271 31.6319 86.0625C31.559 86.1979 31.4965 86.3464 31.4444 86.5078C31.3923 86.6693 31.348 86.8464 31.3116 87.0391C31.2751 87.2318 31.2412 87.4323 31.21 87.6406C31.3506 87.4948 31.5069 87.362 31.6787 87.2422C31.8558 87.1172 32.0433 87.013 32.2412 86.9297C32.4392 86.8411 32.6475 86.7734 32.8662 86.7266C33.0902 86.6745 33.3246 86.6484 33.5694 86.6484C34.0798 86.6484 34.5225 86.7292 34.8975 86.8906C35.2777 87.0521 35.5902 87.2865 35.835 87.5938C36.085 87.8958 36.2699 88.2656 36.3897 88.7031C36.5147 89.1354 36.5772 89.6276 36.5772 90.1797ZM34.585 90.2891C34.585 89.9974 34.559 89.7266 34.5069 89.4766C34.4548 89.2266 34.3715 89.0104 34.2569 88.8281C34.1423 88.6458 33.9886 88.5026 33.7959 88.3984C33.6084 88.2891 33.3819 88.2344 33.1162 88.2344C32.9392 88.2344 32.7751 88.2578 32.6241 88.3047C32.473 88.3464 32.3246 88.4115 32.1787 88.5C32.0381 88.5885 31.8975 88.6953 31.7569 88.8203C31.6162 88.9453 31.4678 89.0911 31.3116 89.2578C31.3064 89.3203 31.3037 89.388 31.3037 89.4609C31.3037 89.5339 31.3037 89.6094 31.3037 89.6875C31.3037 90.1771 31.3324 90.6042 31.3897 90.9688C31.447 91.3281 31.5381 91.6276 31.6631 91.8672C31.7933 92.1068 31.96 92.2839 32.1631 92.3984C32.3715 92.513 32.6241 92.5703 32.9209 92.5703C33.1866 92.5703 33.4235 92.5208 33.6319 92.4219C33.8402 92.3177 34.0147 92.1693 34.1553 91.9766C34.2959 91.7786 34.4027 91.5391 34.4756 91.2578C34.5485 90.9714 34.585 90.6484 34.585 90.2891ZM45.3894 93.7578C45.3894 93.8099 45.3737 93.8542 45.3425 93.8906C45.3165 93.9271 45.267 93.9583 45.1941 93.9844C45.1211 94.0052 45.0222 94.0208 44.8972 94.0312C44.7774 94.0417 44.6237 94.0469 44.4362 94.0469C44.2487 94.0469 44.0899 94.0417 43.9597 94.0312C43.8347 94.0208 43.7305 94.0052 43.6472 93.9844C43.5691 93.9583 43.5118 93.9271 43.4753 93.8906C43.4441 93.8542 43.4284 93.8099 43.4284 93.7578V90.6484C43.4284 90.4297 43.4336 90.2031 43.4441 89.9688C43.4597 89.7344 43.4805 89.5052 43.5066 89.2812C43.3816 89.5 43.2461 89.7161 43.1003 89.9297C42.9545 90.138 42.806 90.3464 42.655 90.5547L40.3034 93.75C40.2566 93.8073 40.2123 93.8568 40.1706 93.8984C40.129 93.9349 40.0743 93.9661 40.0066 93.9922C39.9441 94.013 39.8633 94.026 39.7644 94.0312C39.6654 94.0417 39.5378 94.0469 39.3816 94.0469C39.1941 94.0469 39.0404 94.0417 38.9206 94.0312C38.806 94.0208 38.7123 94.0052 38.6394 93.9844C38.5717 93.9583 38.5222 93.9271 38.4909 93.8906C38.4649 93.849 38.4519 93.8021 38.4519 93.75V86.7578C38.4519 86.7109 38.4649 86.6693 38.4909 86.6328C38.5222 86.5911 38.5743 86.5573 38.6472 86.5312C38.7253 86.5052 38.8243 86.487 38.9441 86.4766C39.0691 86.4609 39.2253 86.4531 39.4128 86.4531C39.7826 86.4531 40.043 86.4792 40.1941 86.5312C40.3451 86.5833 40.4206 86.6589 40.4206 86.7578V89.8516C40.4206 90.0651 40.4128 90.2865 40.3972 90.5156C40.3816 90.7448 40.3607 90.9661 40.3347 91.1797C40.4597 90.9714 40.5873 90.7656 40.7175 90.5625C40.8477 90.3542 40.9857 90.1536 41.1316 89.9609L43.5066 86.7578C43.5482 86.7005 43.5925 86.6536 43.6394 86.6172C43.6862 86.5755 43.7435 86.5443 43.8112 86.5234C43.8842 86.4974 43.9701 86.4792 44.0691 86.4688C44.1732 86.4583 44.306 86.4531 44.4675 86.4531C44.6498 86.4531 44.8008 86.4583 44.9206 86.4688C45.0404 86.4792 45.1342 86.4974 45.2019 86.5234C45.2748 86.5495 45.3243 86.5833 45.3503 86.625C45.3764 86.6667 45.3894 86.7135 45.3894 86.7656V93.7578ZM54.4281 93.7344C54.4281 93.7865 54.4125 93.8333 54.3812 93.875C54.35 93.9115 54.2979 93.9427 54.225 93.9688C54.1521 93.9948 54.0505 94.013 53.9203 94.0234C53.7953 94.0391 53.6391 94.0469 53.4516 94.0469C53.2589 94.0469 53.0974 94.0391 52.9672 94.0234C52.8422 94.013 52.7432 93.9948 52.6703 93.9688C52.5974 93.9427 52.5453 93.9115 52.5141 93.875C52.4828 93.8333 52.4672 93.7865 52.4672 93.7344V90.9922H49.6469V93.7344C49.6469 93.7865 49.6312 93.8333 49.6 93.875C49.5687 93.9115 49.5141 93.9427 49.4359 93.9688C49.363 93.9948 49.2641 94.013 49.1391 94.0234C49.0141 94.0391 48.8552 94.0469 48.6625 94.0469C48.4698 94.0469 48.3109 94.0391 48.1859 94.0234C48.0609 94.013 47.9594 93.9948 47.8812 93.9688C47.8083 93.9427 47.7562 93.9115 47.725 93.875C47.6937 93.8333 47.6781 93.7865 47.6781 93.7344V86.7656C47.6781 86.7135 47.6937 86.6693 47.725 86.6328C47.7562 86.5911 47.8083 86.5573 47.8812 86.5312C47.9594 86.5052 48.0609 86.487 48.1859 86.4766C48.3109 86.4609 48.4698 86.4531 48.6625 86.4531C48.8552 86.4531 49.0141 86.4609 49.1391 86.4766C49.2641 86.487 49.363 86.5052 49.4359 86.5312C49.5141 86.5573 49.5687 86.5911 49.6 86.6328C49.6312 86.6693 49.6469 86.7135 49.6469 86.7656V89.375H52.4672V86.7656C52.4672 86.7135 52.4828 86.6693 52.5141 86.6328C52.5453 86.5911 52.5974 86.5573 52.6703 86.5312C52.7432 86.5052 52.8422 86.487 52.9672 86.4766C53.0974 86.4609 53.2589 86.4531 53.4516 86.4531C53.6391 86.4531 53.7953 86.4609 53.9203 86.4766C54.0505 86.487 54.1521 86.5052 54.225 86.5312C54.2979 86.5573 54.35 86.5911 54.3812 86.6328C54.4125 86.6693 54.4281 86.7135 54.4281 86.7656V93.7344ZM63.67 93.7578C63.67 93.8099 63.6544 93.8542 63.6231 93.8906C63.5971 93.9271 63.5476 93.9583 63.4747 93.9844C63.4018 94.0052 63.3028 94.0208 63.1778 94.0312C63.058 94.0417 62.9044 94.0469 62.7169 94.0469C62.5294 94.0469 62.3705 94.0417 62.2403 94.0312C62.1153 94.0208 62.0111 94.0052 61.9278 93.9844C61.8497 93.9583 61.7924 93.9271 61.7559 93.8906C61.7247 93.8542 61.7091 93.8099 61.7091 93.7578V90.6484C61.7091 90.4297 61.7143 90.2031 61.7247 89.9688C61.7403 89.7344 61.7611 89.5052 61.7872 89.2812C61.6622 89.5 61.5268 89.7161 61.3809 89.9297C61.2351 90.138 61.0867 90.3464 60.9356 90.5547L58.5841 93.75C58.5372 93.8073 58.4929 93.8568 58.4512 93.8984C58.4096 93.9349 58.3549 93.9661 58.2872 93.9922C58.2247 94.013 58.144 94.026 58.045 94.0312C57.946 94.0417 57.8184 94.0469 57.6622 94.0469C57.4747 94.0469 57.321 94.0417 57.2012 94.0312C57.0867 94.0208 56.9929 94.0052 56.92 93.9844C56.8523 93.9583 56.8028 93.9271 56.7716 93.8906C56.7455 93.849 56.7325 93.8021 56.7325 93.75V86.7578C56.7325 86.7109 56.7455 86.6693 56.7716 86.6328C56.8028 86.5911 56.8549 86.5573 56.9278 86.5312C57.0059 86.5052 57.1049 86.487 57.2247 86.4766C57.3497 86.4609 57.5059 86.4531 57.6934 86.4531C58.0632 86.4531 58.3236 86.4792 58.4747 86.5312C58.6257 86.5833 58.7012 86.6589 58.7012 86.7578V89.8516C58.7012 90.0651 58.6934 90.2865 58.6778 90.5156C58.6622 90.7448 58.6414 90.9661 58.6153 91.1797C58.7403 90.9714 58.8679 90.7656 58.9981 90.5625C59.1283 90.3542 59.2664 90.1536 59.4122 89.9609L61.7872 86.7578C61.8289 86.7005 61.8731 86.6536 61.92 86.6172C61.9669 86.5755 62.0242 86.5443 62.0919 86.5234C62.1648 86.4974 62.2507 86.4792 62.3497 86.4688C62.4539 86.4583 62.5867 86.4531 62.7481 86.4531C62.9304 86.4531 63.0815 86.4583 63.2012 86.4688C63.321 86.4792 63.4148 86.4974 63.4825 86.5234C63.5554 86.5495 63.6049 86.5833 63.6309 86.625C63.657 86.6667 63.67 86.7135 63.67 86.7656V93.7578ZM72.9744 90.1484C72.9744 90.7682 72.9067 91.3281 72.7712 91.8281C72.641 92.3229 72.4483 92.7448 72.1931 93.0938C71.9379 93.4427 71.6202 93.7109 71.24 93.8984C70.8598 94.0859 70.4249 94.1797 69.9353 94.1797C69.7322 94.1797 69.5447 94.1589 69.3728 94.1172C69.2061 94.0807 69.0421 94.0234 68.8806 93.9453C68.7244 93.862 68.5681 93.7604 68.4119 93.6406C68.2556 93.5208 68.0942 93.3802 67.9275 93.2188V96.5C67.9275 96.5521 67.9119 96.599 67.8806 96.6406C67.8494 96.6823 67.7947 96.7161 67.7166 96.7422C67.6436 96.7734 67.5447 96.7969 67.4197 96.8125C67.2947 96.8281 67.1358 96.8359 66.9431 96.8359C66.7504 96.8359 66.5916 96.8281 66.4666 96.8125C66.3416 96.7969 66.24 96.7734 66.1619 96.7422C66.089 96.7161 66.0369 96.6823 66.0056 96.6406C65.9744 96.599 65.9587 96.5521 65.9587 96.5V86.7656C65.9587 86.7135 65.9718 86.6693 65.9978 86.6328C66.0239 86.5911 66.0681 86.5573 66.1306 86.5312C66.1983 86.5052 66.2843 86.487 66.3884 86.4766C66.4978 86.4609 66.6332 86.4531 66.7947 86.4531C66.9509 86.4531 67.0811 86.4609 67.1853 86.4766C67.2947 86.487 67.3806 86.5052 67.4431 86.5312C67.5108 86.5573 67.5577 86.5911 67.5837 86.6328C67.6098 86.6693 67.6228 86.7135 67.6228 86.7656V87.5859C67.8259 87.3776 68.0239 87.1953 68.2166 87.0391C68.4145 86.8776 68.615 86.7448 68.8181 86.6406C69.0212 86.5312 69.2296 86.4505 69.4431 86.3984C69.6619 86.3464 69.8936 86.3203 70.1384 86.3203C70.6489 86.3203 71.0837 86.4219 71.4431 86.625C71.8025 86.8229 72.0942 87.0964 72.3181 87.4453C72.5473 87.7943 72.714 88.2005 72.8181 88.6641C72.9223 89.1276 72.9744 89.6224 72.9744 90.1484ZM70.9275 90.2891C70.9275 89.9922 70.9041 89.7083 70.8572 89.4375C70.8155 89.1615 70.74 88.9167 70.6306 88.7031C70.5265 88.4896 70.3858 88.3203 70.2087 88.1953C70.0369 88.0651 69.8207 88 69.5603 88C69.4301 88 69.2999 88.0208 69.1697 88.0625C69.0447 88.099 68.9145 88.1615 68.7791 88.25C68.6489 88.3385 68.5134 88.4531 68.3728 88.5938C68.2322 88.7344 68.0837 88.9089 67.9275 89.1172V91.4141C68.2035 91.763 68.4666 92.0339 68.7166 92.2266C68.9666 92.4141 69.227 92.5078 69.4978 92.5078C69.753 92.5078 69.9692 92.4427 70.1462 92.3125C70.3285 92.1823 70.477 92.013 70.5916 91.8047C70.7061 91.5911 70.7895 91.3516 70.8416 91.0859C70.8989 90.8203 70.9275 90.5547 70.9275 90.2891ZM81.9194 90.1797C81.9194 90.7734 81.8412 91.3151 81.685 91.8047C81.5287 92.2943 81.2918 92.7161 80.9741 93.0703C80.6564 93.4245 80.2579 93.6979 79.7787 93.8906C79.2996 94.0833 78.7397 94.1797 78.0991 94.1797C77.4793 94.1797 76.9402 94.0938 76.4819 93.9219C76.0235 93.75 75.6433 93.5 75.3412 93.1719C75.0392 92.8438 74.8152 92.4401 74.6694 91.9609C74.5235 91.4818 74.4506 90.9349 74.4506 90.3203C74.4506 89.7266 74.5287 89.1849 74.685 88.6953C74.8465 88.2005 75.086 87.7786 75.4037 87.4297C75.7215 87.0755 76.1173 86.8021 76.5912 86.6094C77.0704 86.4167 77.6303 86.3203 78.2709 86.3203C78.8959 86.3203 79.4376 86.4062 79.8959 86.5781C80.3543 86.7448 80.7319 86.9922 81.0287 87.3203C81.3308 87.6484 81.5548 88.0521 81.7006 88.5312C81.8465 89.0104 81.9194 89.5599 81.9194 90.1797ZM79.8959 90.2578C79.8959 89.9141 79.8673 89.599 79.81 89.3125C79.7579 89.0208 79.6668 88.7682 79.5366 88.5547C79.4064 88.3411 79.2319 88.1745 79.0131 88.0547C78.7996 87.9349 78.5287 87.875 78.2006 87.875C77.909 87.875 77.6537 87.9297 77.435 88.0391C77.2162 88.1432 77.0366 88.2995 76.8959 88.5078C76.7553 88.7109 76.6485 88.9583 76.5756 89.25C76.5079 89.5365 76.4741 89.8646 76.4741 90.2344C76.4741 90.5781 76.5027 90.8958 76.56 91.1875C76.6173 91.474 76.7084 91.724 76.8334 91.9375C76.9636 92.151 77.1381 92.3177 77.3569 92.4375C77.5756 92.5521 77.8465 92.6094 78.1694 92.6094C78.4662 92.6094 78.7241 92.5573 78.9428 92.4531C79.1616 92.3438 79.3412 92.1875 79.4819 91.9844C79.6225 91.7812 79.7267 91.5365 79.7944 91.25C79.8621 90.9583 79.8959 90.6276 79.8959 90.2578ZM90.2081 91.6875C90.2081 92.0885 90.1326 92.4401 89.9816 92.7422C89.8357 93.0443 89.6118 93.2969 89.3097 93.5C89.0076 93.6979 88.63 93.849 88.1769 93.9531C87.7237 94.0573 87.1899 94.1094 86.5753 94.1094C86.3722 94.1094 86.1821 94.1068 86.005 94.1016C85.8331 94.1016 85.6639 94.099 85.4972 94.0938C85.3357 94.0885 85.1717 94.0807 85.005 94.0703C84.8435 94.0599 84.6691 94.0443 84.4816 94.0234C84.2368 94.0026 84.0623 93.9297 83.9581 93.8047C83.854 93.6797 83.8019 93.4922 83.8019 93.2422V87.2344C83.8019 86.9948 83.8514 86.8151 83.9503 86.6953C84.0493 86.5703 84.2003 86.4948 84.4034 86.4688C84.5336 86.4583 84.6821 86.4479 84.8487 86.4375C85.0206 86.4271 85.2055 86.4193 85.4034 86.4141C85.6014 86.4036 85.8071 86.3958 86.0206 86.3906C86.2342 86.3854 86.4503 86.3828 86.6691 86.3828C87.2264 86.3828 87.7055 86.4219 88.1066 86.5C88.5128 86.5781 88.8461 86.6979 89.1066 86.8594C89.3722 87.0156 89.5675 87.2109 89.6925 87.4453C89.8227 87.6745 89.8878 87.9453 89.8878 88.2578C89.8878 88.6797 89.7732 89.0312 89.5441 89.3125C89.3201 89.5938 88.9972 89.7839 88.5753 89.8828C89.1014 89.9766 89.505 90.1797 89.7862 90.4922C90.0675 90.7995 90.2081 91.1979 90.2081 91.6875ZM88.0519 88.6094C88.0519 88.4688 88.0258 88.3438 87.9737 88.2344C87.9269 88.125 87.8487 88.0339 87.7394 87.9609C87.63 87.8828 87.4842 87.8255 87.3019 87.7891C87.1248 87.7474 86.9086 87.7266 86.6534 87.7266C86.4555 87.7266 86.268 87.7318 86.0909 87.7422C85.9191 87.7526 85.768 87.7656 85.6378 87.7812V89.5391H86.6925C87.1352 89.5391 87.4711 89.4609 87.7003 89.3047C87.9347 89.1432 88.0519 88.9115 88.0519 88.6094ZM88.255 91.6797C88.255 91.513 88.2264 91.3672 88.1691 91.2422C88.117 91.1172 88.0258 91.013 87.8956 90.9297C87.7706 90.8464 87.604 90.7865 87.3956 90.75C87.1925 90.7083 86.9477 90.6875 86.6612 90.6875H85.6378V92.6875C85.7211 92.6979 85.8071 92.7083 85.8956 92.7188C85.9894 92.724 86.0831 92.7292 86.1769 92.7344C86.2706 92.7396 86.3618 92.7448 86.4503 92.75C86.5441 92.75 86.6274 92.75 86.7003 92.75C86.9764 92.75 87.2133 92.7266 87.4112 92.6797C87.6092 92.6276 87.7706 92.5547 87.8956 92.4609C88.0206 92.3672 88.1118 92.2552 88.1691 92.125C88.2264 91.9896 88.255 91.8411 88.255 91.6797ZM97.9812 93.7578C97.9812 93.8307 97.9552 93.888 97.9031 93.9297C97.851 93.9714 97.7677 94 97.6531 94.0156C97.5437 94.0365 97.3797 94.0469 97.1609 94.0469C96.9266 94.0469 96.7547 94.0365 96.6453 94.0156C96.5411 94 96.4656 93.9714 96.4187 93.9297C96.3771 93.888 96.3562 93.8307 96.3562 93.7578V93.2031C96.0698 93.5104 95.7417 93.75 95.3719 93.9219C95.0073 94.0938 94.601 94.1797 94.1531 94.1797C93.7833 94.1797 93.4422 94.1302 93.1297 94.0312C92.8224 93.9375 92.5542 93.7969 92.325 93.6094C92.101 93.4167 91.9266 93.1797 91.8016 92.8984C91.6766 92.6172 91.6141 92.2891 91.6141 91.9141C91.6141 91.5078 91.6922 91.1562 91.8484 90.8594C92.0099 90.5573 92.2469 90.3099 92.5594 90.1172C92.8771 89.9193 93.2703 89.7734 93.7391 89.6797C94.2078 89.5859 94.7521 89.5391 95.3719 89.5391H96.0516V89.1172C96.0516 88.8984 96.0281 88.7083 95.9812 88.5469C95.9396 88.3802 95.8667 88.2422 95.7625 88.1328C95.6635 88.0234 95.5281 87.9427 95.3562 87.8906C95.1896 87.8385 94.9812 87.8125 94.7312 87.8125C94.4031 87.8125 94.1089 87.849 93.8484 87.9219C93.5932 87.9948 93.3667 88.0755 93.1687 88.1641C92.9708 88.2526 92.8042 88.3333 92.6687 88.4062C92.5385 88.4792 92.4318 88.5156 92.3484 88.5156C92.2911 88.5156 92.2391 88.4974 92.1922 88.4609C92.1505 88.4245 92.1141 88.3724 92.0828 88.3047C92.0568 88.237 92.0359 88.1536 92.0203 88.0547C92.0047 87.9557 91.9969 87.8464 91.9969 87.7266C91.9969 87.5651 92.0099 87.4375 92.0359 87.3438C92.062 87.25 92.1115 87.1667 92.1844 87.0938C92.2573 87.0156 92.3849 86.9323 92.5672 86.8438C92.7495 86.75 92.963 86.6641 93.2078 86.5859C93.4526 86.5078 93.7182 86.4453 94.0047 86.3984C94.2964 86.3464 94.5958 86.3203 94.9031 86.3203C95.45 86.3203 95.9161 86.375 96.3016 86.4844C96.6922 86.5885 97.0125 86.7526 97.2625 86.9766C97.5125 87.1953 97.6948 87.4792 97.8094 87.8281C97.924 88.1771 97.9812 88.5911 97.9812 89.0703V93.7578ZM96.0516 90.7734H95.3016C94.9839 90.7734 94.713 90.7969 94.4891 90.8438C94.2651 90.8906 94.0828 90.9609 93.9422 91.0547C93.8016 91.1484 93.6974 91.263 93.6297 91.3984C93.5672 91.5286 93.5359 91.6797 93.5359 91.8516C93.5359 92.1432 93.6271 92.3724 93.8094 92.5391C93.9969 92.7057 94.2547 92.7891 94.5828 92.7891C94.8589 92.7891 95.1115 92.7188 95.3406 92.5781C95.575 92.4375 95.812 92.2318 96.0516 91.9609V90.7734ZM107.02 93.7344C107.02 93.7865 107.004 93.8333 106.973 93.875C106.942 93.9115 106.89 93.9427 106.817 93.9688C106.744 93.9948 106.642 94.013 106.512 94.0234C106.387 94.0391 106.231 94.0469 106.043 94.0469C105.851 94.0469 105.689 94.0391 105.559 94.0234C105.434 94.013 105.335 93.9948 105.262 93.9688C105.189 93.9427 105.137 93.9115 105.106 93.875C105.075 93.8333 105.059 93.7865 105.059 93.7344V90.9922H102.239V93.7344C102.239 93.7865 102.223 93.8333 102.192 93.875C102.161 93.9115 102.106 93.9427 102.028 93.9688C101.955 93.9948 101.856 94.013 101.731 94.0234C101.606 94.0391 101.447 94.0469 101.254 94.0469C101.062 94.0469 100.903 94.0391 100.778 94.0234C100.653 94.013 100.551 93.9948 100.473 93.9688C100.4 93.9427 100.348 93.9115 100.317 93.875C100.286 93.8333 100.27 93.7865 100.27 93.7344V86.7656C100.27 86.7135 100.286 86.6693 100.317 86.6328C100.348 86.5911 100.4 86.5573 100.473 86.5312C100.551 86.5052 100.653 86.487 100.778 86.4766C100.903 86.4609 101.062 86.4531 101.254 86.4531C101.447 86.4531 101.606 86.4609 101.731 86.4766C101.856 86.487 101.955 86.5052 102.028 86.5312C102.106 86.5573 102.161 86.5911 102.192 86.6328C102.223 86.6693 102.239 86.7135 102.239 86.7656V89.375H105.059V86.7656C105.059 86.7135 105.075 86.6693 105.106 86.6328C105.137 86.5911 105.189 86.5573 105.262 86.5312C105.335 86.5052 105.434 86.487 105.559 86.4766C105.689 86.4609 105.851 86.4531 106.043 86.4531C106.231 86.4531 106.387 86.4609 106.512 86.4766C106.642 86.487 106.744 86.5052 106.817 86.5312C106.89 86.5573 106.942 86.5911 106.973 86.6328C107.004 86.6693 107.02 86.7135 107.02 86.7656V93.7344ZM116.074 93.7344C116.074 93.7865 116.059 93.8333 116.027 93.875C115.996 93.9115 115.944 93.9427 115.871 93.9688C115.798 93.9948 115.697 94.013 115.567 94.0234C115.442 94.0391 115.285 94.0469 115.098 94.0469C114.905 94.0469 114.744 94.0391 114.613 94.0234C114.488 94.013 114.389 93.9948 114.317 93.9688C114.244 93.9427 114.192 93.9115 114.16 93.875C114.129 93.8333 114.113 93.7865 114.113 93.7344V90.9922H111.293V93.7344C111.293 93.7865 111.277 93.8333 111.246 93.875C111.215 93.9115 111.16 93.9427 111.082 93.9688C111.009 93.9948 110.91 94.013 110.785 94.0234C110.66 94.0391 110.501 94.0469 110.309 94.0469C110.116 94.0469 109.957 94.0391 109.832 94.0234C109.707 94.013 109.606 93.9948 109.527 93.9688C109.455 93.9427 109.402 93.9115 109.371 93.875C109.34 93.8333 109.324 93.7865 109.324 93.7344V86.7656C109.324 86.7135 109.34 86.6693 109.371 86.6328C109.402 86.5911 109.455 86.5573 109.527 86.5312C109.606 86.5052 109.707 86.487 109.832 86.4766C109.957 86.4609 110.116 86.4531 110.309 86.4531C110.501 86.4531 110.66 86.4609 110.785 86.4766C110.91 86.487 111.009 86.5052 111.082 86.5312C111.16 86.5573 111.215 86.5911 111.246 86.6328C111.277 86.6693 111.293 86.7135 111.293 86.7656V89.375H114.113V86.7656C114.113 86.7135 114.129 86.6693 114.16 86.6328C114.192 86.5911 114.244 86.5573 114.317 86.5312C114.389 86.5052 114.488 86.487 114.613 86.4766C114.744 86.4609 114.905 86.4531 115.098 86.4531C115.285 86.4531 115.442 86.4609 115.567 86.4766C115.697 86.487 115.798 86.5052 115.871 86.5312C115.944 86.5573 115.996 86.5911 116.027 86.6328C116.059 86.6693 116.074 86.7135 116.074 86.7656V93.7344ZM127.793 93.7344C127.793 93.7865 127.777 93.8333 127.746 93.875C127.715 93.9115 127.663 93.9427 127.59 93.9688C127.517 93.9948 127.418 94.013 127.293 94.0234C127.168 94.0391 127.006 94.0469 126.808 94.0469C126.621 94.0469 126.465 94.0391 126.34 94.0234C126.215 94.013 126.113 93.9948 126.035 93.9688C125.962 93.9427 125.91 93.9115 125.879 93.875C125.848 93.8333 125.832 93.7865 125.832 93.7344V86.7656C125.832 86.7135 125.848 86.6693 125.879 86.6328C125.91 86.5911 125.962 86.5573 126.035 86.5312C126.113 86.5052 126.215 86.487 126.34 86.4766C126.465 86.4609 126.621 86.4531 126.808 86.4531C127.006 86.4531 127.168 86.4609 127.293 86.4766C127.418 86.487 127.517 86.5052 127.59 86.5312C127.663 86.5573 127.715 86.5911 127.746 86.6328C127.777 86.6693 127.793 86.7135 127.793 86.7656V93.7344ZM120.348 88.9141C120.525 88.8984 120.704 88.8854 120.887 88.875C121.069 88.8646 121.272 88.8594 121.496 88.8594C122.069 88.8594 122.564 88.9193 122.98 89.0391C123.397 89.1536 123.741 89.3203 124.012 89.5391C124.282 89.7578 124.483 90.0234 124.613 90.3359C124.749 90.6432 124.816 90.9948 124.816 91.3906C124.816 91.8021 124.741 92.1797 124.59 92.5234C124.444 92.862 124.22 93.1536 123.918 93.3984C123.616 93.638 123.23 93.8255 122.762 93.9609C122.293 94.0911 121.736 94.1562 121.09 94.1562C120.918 94.1562 120.743 94.1536 120.566 94.1484C120.389 94.1484 120.215 94.1432 120.043 94.1328C119.876 94.1276 119.712 94.1198 119.551 94.1094C119.389 94.099 119.236 94.0859 119.09 94.0703C118.84 94.0443 118.657 93.9688 118.543 93.8438C118.433 93.7188 118.379 93.5286 118.379 93.2734V86.7656C118.379 86.7135 118.394 86.6693 118.426 86.6328C118.457 86.5911 118.509 86.5573 118.582 86.5312C118.655 86.5052 118.751 86.487 118.871 86.4766C118.991 86.4609 119.139 86.4531 119.316 86.4531C119.691 86.4531 119.957 86.4792 120.113 86.5312C120.269 86.5833 120.348 86.6615 120.348 86.7656V88.9141ZM122.808 91.5C122.808 91.3177 122.78 91.1562 122.723 91.0156C122.67 90.8698 122.582 90.7474 122.457 90.6484C122.337 90.5443 122.178 90.4661 121.98 90.4141C121.782 90.362 121.54 90.3359 121.254 90.3359C121.077 90.3359 120.913 90.3411 120.762 90.3516C120.616 90.3568 120.478 90.3646 120.348 90.375V92.625C120.499 92.6406 120.647 92.6536 120.793 92.6641C120.939 92.6745 121.108 92.6797 121.301 92.6797C121.821 92.6797 122.202 92.5755 122.441 92.3672C122.686 92.1589 122.808 91.8698 122.808 91.5ZM137.027 93.7578C137.027 93.8099 137.011 93.8542 136.98 93.8906C136.954 93.9271 136.904 93.9583 136.832 93.9844C136.759 94.0052 136.66 94.0208 136.535 94.0312C136.415 94.0417 136.261 94.0469 136.074 94.0469C135.886 94.0469 135.727 94.0417 135.597 94.0312C135.472 94.0208 135.368 94.0052 135.285 93.9844C135.207 93.9583 135.149 93.9271 135.113 93.8906C135.082 93.8542 135.066 93.8099 135.066 93.7578V90.6484C135.066 90.4297 135.071 90.2031 135.082 89.9688C135.097 89.7344 135.118 89.5052 135.144 89.2812C135.019 89.5 134.884 89.7161 134.738 89.9297C134.592 90.138 134.444 90.3464 134.292 90.5547L131.941 93.75C131.894 93.8073 131.85 93.8568 131.808 93.8984C131.766 93.9349 131.712 93.9661 131.644 93.9922C131.582 94.013 131.501 94.026 131.402 94.0312C131.303 94.0417 131.175 94.0469 131.019 94.0469C130.832 94.0469 130.678 94.0417 130.558 94.0312C130.444 94.0208 130.35 94.0052 130.277 93.9844C130.209 93.9583 130.16 93.9271 130.128 93.8906C130.102 93.849 130.089 93.8021 130.089 93.75V86.7578C130.089 86.7109 130.102 86.6693 130.128 86.6328C130.16 86.5911 130.212 86.5573 130.285 86.5312C130.363 86.5052 130.462 86.487 130.582 86.4766C130.707 86.4609 130.863 86.4531 131.05 86.4531C131.42 86.4531 131.681 86.4792 131.832 86.5312C131.983 86.5833 132.058 86.6589 132.058 86.7578V89.8516C132.058 90.0651 132.05 90.2865 132.035 90.5156C132.019 90.7448 131.998 90.9661 131.972 91.1797C132.097 90.9714 132.225 90.7656 132.355 90.5625C132.485 90.3542 132.623 90.1536 132.769 89.9609L135.144 86.7578C135.186 86.7005 135.23 86.6536 135.277 86.6172C135.324 86.5755 135.381 86.5443 135.449 86.5234C135.522 86.4974 135.608 86.4792 135.707 86.4688C135.811 86.4583 135.944 86.4531 136.105 86.4531C136.287 86.4531 136.438 86.4583 136.558 86.4688C136.678 86.4792 136.772 86.4974 136.839 86.5234C136.912 86.5495 136.962 86.5833 136.988 86.625C137.014 86.6667 137.027 86.7135 137.027 86.7656V93.7578ZM136.449 83.4375C136.449 83.7448 136.399 84.0339 136.3 84.3047C136.201 84.5755 136.04 84.8151 135.816 85.0234C135.597 85.2266 135.306 85.388 134.941 85.5078C134.582 85.6276 134.139 85.6875 133.613 85.6875C133.102 85.6875 132.667 85.6328 132.308 85.5234C131.949 85.4141 131.654 85.263 131.425 85.0703C131.201 84.8724 131.037 84.6354 130.933 84.3594C130.829 84.0781 130.777 83.7708 130.777 83.4375C130.777 83.3594 130.79 83.2969 130.816 83.25C130.847 83.1979 130.897 83.1562 130.964 83.125C131.032 83.0938 131.123 83.0729 131.238 83.0625C131.358 83.0469 131.506 83.0391 131.683 83.0391C131.85 83.0391 131.988 83.0469 132.097 83.0625C132.207 83.0781 132.29 83.1042 132.347 83.1406C132.404 83.1719 132.444 83.2135 132.464 83.2656C132.49 83.3125 132.503 83.3698 132.503 83.4375C132.503 83.5781 132.527 83.7083 132.574 83.8281C132.626 83.9479 132.699 84.0521 132.792 84.1406C132.891 84.224 133.011 84.2917 133.152 84.3438C133.292 84.3906 133.449 84.4141 133.621 84.4141C133.787 84.4141 133.938 84.3906 134.074 84.3438C134.209 84.2969 134.324 84.2292 134.417 84.1406C134.516 84.0521 134.589 83.9479 134.636 83.8281C134.688 83.7031 134.714 83.5677 134.714 83.4219C134.714 83.3594 134.725 83.3047 134.746 83.2578C134.766 83.2109 134.806 83.1719 134.863 83.1406C134.925 83.1042 135.006 83.0781 135.105 83.0625C135.209 83.0469 135.339 83.0391 135.496 83.0391C135.683 83.0391 135.837 83.0469 135.957 83.0625C136.082 83.0729 136.181 83.0938 136.253 83.125C136.326 83.1562 136.376 83.1979 136.402 83.25C136.433 83.2969 136.449 83.3594 136.449 83.4375ZM7.73438 116.734C7.73438 116.786 7.71875 116.833 7.6875 116.875C7.65625 116.911 7.60417 116.943 7.53125 116.969C7.45833 116.995 7.35677 117.013 7.22656 117.023C7.10156 117.039 6.94531 117.047 6.75781 117.047C6.5651 117.047 6.40365 117.039 6.27344 117.023C6.14844 117.013 6.04948 116.995 5.97656 116.969C5.90365 116.943 5.85156 116.911 5.82031 116.875C5.78906 116.833 5.77344 116.786 5.77344 116.734V113.992H2.95312V116.734C2.95312 116.786 2.9375 116.833 2.90625 116.875C2.875 116.911 2.82031 116.943 2.74219 116.969C2.66927 116.995 2.57031 117.013 2.44531 117.023C2.32031 117.039 2.16146 117.047 1.96875 117.047C1.77604 117.047 1.61719 117.039 1.49219 117.023C1.36719 117.013 1.26562 116.995 1.1875 116.969C1.11458 116.943 1.0625 116.911 1.03125 116.875C1 116.833 0.984375 116.786 0.984375 116.734V109.766C0.984375 109.714 1 109.669 1.03125 109.633C1.0625 109.591 1.11458 109.557 1.1875 109.531C1.26562 109.505 1.36719 109.487 1.49219 109.477C1.61719 109.461 1.77604 109.453 1.96875 109.453C2.16146 109.453 2.32031 109.461 2.44531 109.477C2.57031 109.487 2.66927 109.505 2.74219 109.531C2.82031 109.557 2.875 109.591 2.90625 109.633C2.9375 109.669 2.95312 109.714 2.95312 109.766V112.375H5.77344V109.766C5.77344 109.714 5.78906 109.669 5.82031 109.633C5.85156 109.591 5.90365 109.557 5.97656 109.531C6.04948 109.505 6.14844 109.487 6.27344 109.477C6.40365 109.461 6.5651 109.453 6.75781 109.453C6.94531 109.453 7.10156 109.461 7.22656 109.477C7.35677 109.487 7.45833 109.505 7.53125 109.531C7.60417 109.557 7.65625 109.591 7.6875 109.633C7.71875 109.669 7.73438 109.714 7.73438 109.766V116.734ZM15.9762 116.758C15.9762 116.831 15.9502 116.888 15.8981 116.93C15.846 116.971 15.7627 117 15.6481 117.016C15.5387 117.036 15.3747 117.047 15.1559 117.047C14.9216 117.047 14.7497 117.036 14.6403 117.016C14.5361 117 14.4606 116.971 14.4137 116.93C14.3721 116.888 14.3512 116.831 14.3512 116.758V116.203C14.0648 116.51 13.7367 116.75 13.3669 116.922C13.0023 117.094 12.596 117.18 12.1481 117.18C11.7783 117.18 11.4372 117.13 11.1247 117.031C10.8174 116.938 10.5492 116.797 10.32 116.609C10.096 116.417 9.92156 116.18 9.79656 115.898C9.67156 115.617 9.60906 115.289 9.60906 114.914C9.60906 114.508 9.68719 114.156 9.84344 113.859C10.0049 113.557 10.2419 113.31 10.5544 113.117C10.8721 112.919 11.2653 112.773 11.7341 112.68C12.2028 112.586 12.7471 112.539 13.3669 112.539H14.0466V112.117C14.0466 111.898 14.0231 111.708 13.9762 111.547C13.9346 111.38 13.8617 111.242 13.7575 111.133C13.6585 111.023 13.5231 110.943 13.3512 110.891C13.1846 110.839 12.9762 110.812 12.7262 110.812C12.3981 110.812 12.1039 110.849 11.8434 110.922C11.5882 110.995 11.3617 111.076 11.1637 111.164C10.9658 111.253 10.7992 111.333 10.6637 111.406C10.5335 111.479 10.4268 111.516 10.3434 111.516C10.2861 111.516 10.2341 111.497 10.1872 111.461C10.1455 111.424 10.1091 111.372 10.0778 111.305C10.0518 111.237 10.0309 111.154 10.0153 111.055C9.99969 110.956 9.99187 110.846 9.99187 110.727C9.99187 110.565 10.0049 110.438 10.0309 110.344C10.057 110.25 10.1065 110.167 10.1794 110.094C10.2523 110.016 10.3799 109.932 10.5622 109.844C10.7445 109.75 10.958 109.664 11.2028 109.586C11.4476 109.508 11.7132 109.445 11.9997 109.398C12.2914 109.346 12.5908 109.32 12.8981 109.32C13.445 109.32 13.9111 109.375 14.2966 109.484C14.6872 109.589 15.0075 109.753 15.2575 109.977C15.5075 110.195 15.6898 110.479 15.8044 110.828C15.919 111.177 15.9762 111.591 15.9762 112.07V116.758ZM14.0466 113.773H13.2966C12.9789 113.773 12.708 113.797 12.4841 113.844C12.2601 113.891 12.0778 113.961 11.9372 114.055C11.7966 114.148 11.6924 114.263 11.6247 114.398C11.5622 114.529 11.5309 114.68 11.5309 114.852C11.5309 115.143 11.6221 115.372 11.8044 115.539C11.9919 115.706 12.2497 115.789 12.5778 115.789C12.8539 115.789 13.1065 115.719 13.3356 115.578C13.57 115.438 13.807 115.232 14.0466 114.961V113.773ZM23.5931 114.805C23.5931 115.19 23.5124 115.531 23.3509 115.828C23.1895 116.12 22.9629 116.367 22.6712 116.57C22.3796 116.773 22.0254 116.924 21.6087 117.023C21.1973 117.128 20.7337 117.18 20.2181 117.18C19.9525 117.18 19.6973 117.159 19.4525 117.117C19.2077 117.081 18.9811 117.034 18.7728 116.977C18.5697 116.914 18.4004 116.852 18.265 116.789C18.1296 116.721 18.0306 116.664 17.9681 116.617C17.9108 116.565 17.8666 116.516 17.8353 116.469C17.8093 116.417 17.7884 116.359 17.7728 116.297C17.7572 116.234 17.7468 116.159 17.7416 116.07C17.7364 115.977 17.7337 115.865 17.7337 115.734C17.7337 115.615 17.739 115.518 17.7494 115.445C17.7598 115.372 17.7728 115.312 17.7884 115.266C17.8093 115.219 17.8327 115.188 17.8587 115.172C17.8848 115.151 17.916 115.141 17.9525 115.141C18.0202 115.141 18.1061 115.174 18.2103 115.242C18.3197 115.305 18.4551 115.375 18.6166 115.453C18.7832 115.526 18.9837 115.596 19.2181 115.664C19.4577 115.732 19.7442 115.766 20.0775 115.766C20.3067 115.766 20.5072 115.742 20.6791 115.695C20.8561 115.648 21.002 115.583 21.1166 115.5C21.2364 115.411 21.3249 115.305 21.3822 115.18C21.4447 115.055 21.4759 114.914 21.4759 114.758C21.4759 114.612 21.4473 114.482 21.39 114.367C21.3327 114.253 21.2364 114.156 21.1009 114.078C20.9707 113.995 20.7962 113.932 20.5775 113.891C20.364 113.849 20.1009 113.828 19.7884 113.828H19.0384C18.9707 113.828 18.916 113.818 18.8744 113.797C18.8327 113.771 18.7989 113.732 18.7728 113.68C18.7468 113.628 18.7285 113.557 18.7181 113.469C18.7129 113.38 18.7103 113.273 18.7103 113.148C18.7103 113.029 18.7155 112.93 18.7259 112.852C18.7364 112.768 18.752 112.703 18.7728 112.656C18.7989 112.609 18.8301 112.576 18.8666 112.555C18.9082 112.534 18.9577 112.523 19.015 112.523H19.7416C20.0228 112.523 20.265 112.503 20.4681 112.461C20.6712 112.419 20.8379 112.359 20.9681 112.281C21.0983 112.198 21.1921 112.099 21.2494 111.984C21.3119 111.865 21.3431 111.727 21.3431 111.57C21.3431 111.435 21.3145 111.315 21.2572 111.211C21.1999 111.102 21.1192 111.013 21.015 110.945C20.9108 110.872 20.7832 110.82 20.6322 110.789C20.4864 110.753 20.3249 110.734 20.1478 110.734C19.8509 110.734 19.5853 110.768 19.3509 110.836C19.1218 110.898 18.9212 110.969 18.7494 111.047C18.5775 111.125 18.4343 111.195 18.3197 111.258C18.2103 111.32 18.127 111.352 18.0697 111.352C18.0384 111.352 18.0098 111.346 17.9837 111.336C17.9577 111.32 17.9317 111.292 17.9056 111.25C17.8848 111.203 17.8666 111.141 17.8509 111.062C17.8405 110.984 17.8353 110.88 17.8353 110.75C17.8353 110.547 17.8483 110.385 17.8744 110.266C17.9056 110.141 17.9525 110.047 18.015 109.984C18.0827 109.917 18.1973 109.844 18.3587 109.766C18.5254 109.682 18.7181 109.609 18.9369 109.547C19.1608 109.479 19.403 109.424 19.6634 109.383C19.9291 109.341 20.1999 109.32 20.4759 109.32C20.903 109.32 21.2936 109.362 21.6478 109.445C22.002 109.529 22.3015 109.656 22.5462 109.828C22.7962 109.995 22.9864 110.203 23.1166 110.453C23.252 110.703 23.3197 110.992 23.3197 111.32C23.3197 111.518 23.2884 111.708 23.2259 111.891C23.1634 112.073 23.0749 112.24 22.9603 112.391C22.8457 112.536 22.7051 112.667 22.5384 112.781C22.377 112.896 22.1895 112.984 21.9759 113.047L21.9681 113.062C22.1921 113.089 22.4004 113.151 22.5931 113.25C22.791 113.349 22.9629 113.474 23.1087 113.625C23.2598 113.776 23.377 113.953 23.4603 114.156C23.5489 114.354 23.5931 114.57 23.5931 114.805ZM31.3506 116.758C31.3506 116.831 31.3246 116.888 31.2725 116.93C31.2204 116.971 31.1371 117 31.0225 117.016C30.9131 117.036 30.7491 117.047 30.5303 117.047C30.2959 117.047 30.1241 117.036 30.0147 117.016C29.9105 117 29.835 116.971 29.7881 116.93C29.7465 116.888 29.7256 116.831 29.7256 116.758V116.203C29.4392 116.51 29.111 116.75 28.7412 116.922C28.3767 117.094 27.9704 117.18 27.5225 117.18C27.1527 117.18 26.8116 117.13 26.4991 117.031C26.1918 116.938 25.9235 116.797 25.6944 116.609C25.4704 116.417 25.2959 116.18 25.1709 115.898C25.0459 115.617 24.9834 115.289 24.9834 114.914C24.9834 114.508 25.0616 114.156 25.2178 113.859C25.3793 113.557 25.6162 113.31 25.9287 113.117C26.2465 112.919 26.6397 112.773 27.1084 112.68C27.5772 112.586 28.1215 112.539 28.7412 112.539H29.4209V112.117C29.4209 111.898 29.3975 111.708 29.3506 111.547C29.309 111.38 29.236 111.242 29.1319 111.133C29.0329 111.023 28.8975 110.943 28.7256 110.891C28.559 110.839 28.3506 110.812 28.1006 110.812C27.7725 110.812 27.4782 110.849 27.2178 110.922C26.9626 110.995 26.736 111.076 26.5381 111.164C26.3402 111.253 26.1735 111.333 26.0381 111.406C25.9079 111.479 25.8011 111.516 25.7178 111.516C25.6605 111.516 25.6084 111.497 25.5616 111.461C25.5199 111.424 25.4834 111.372 25.4522 111.305C25.4261 111.237 25.4053 111.154 25.3897 111.055C25.3741 110.956 25.3662 110.846 25.3662 110.727C25.3662 110.565 25.3793 110.438 25.4053 110.344C25.4314 110.25 25.4808 110.167 25.5537 110.094C25.6267 110.016 25.7543 109.932 25.9366 109.844C26.1189 109.75 26.3324 109.664 26.5772 109.586C26.822 109.508 27.0876 109.445 27.3741 109.398C27.6657 109.346 27.9652 109.32 28.2725 109.32C28.8194 109.32 29.2855 109.375 29.6709 109.484C30.0616 109.589 30.3819 109.753 30.6319 109.977C30.8819 110.195 31.0642 110.479 31.1787 110.828C31.2933 111.177 31.3506 111.591 31.3506 112.07V116.758ZM29.4209 113.773H28.6709C28.3532 113.773 28.0824 113.797 27.8584 113.844C27.6345 113.891 27.4522 113.961 27.3116 114.055C27.1709 114.148 27.0668 114.263 26.9991 114.398C26.9366 114.529 26.9053 114.68 26.9053 114.852C26.9053 115.143 26.9965 115.372 27.1787 115.539C27.3662 115.706 27.6241 115.789 27.9522 115.789C28.2282 115.789 28.4808 115.719 28.71 115.578C28.9444 115.438 29.1814 115.232 29.4209 114.961V113.773ZM40.0847 116.734C40.0847 116.786 40.0691 116.833 40.0378 116.875C40.0066 116.911 39.9545 116.943 39.8816 116.969C39.8086 116.995 39.7071 117.013 39.5769 117.023C39.4519 117.039 39.2956 117.047 39.1081 117.047C38.9154 117.047 38.754 117.039 38.6237 117.023C38.4987 117.013 38.3972 116.995 38.3191 116.969C38.2461 116.943 38.1941 116.911 38.1628 116.875C38.1368 116.833 38.1237 116.786 38.1237 116.734V111.102H36.7097C36.6264 111.919 36.5222 112.638 36.3972 113.258C36.2774 113.872 36.1368 114.404 35.9753 114.852C35.8139 115.299 35.6342 115.672 35.4362 115.969C35.2435 116.26 35.03 116.492 34.7956 116.664C34.5612 116.836 34.306 116.958 34.03 117.031C33.7592 117.104 33.4727 117.141 33.1706 117.141C33.0977 117.141 33.0378 117.13 32.9909 117.109C32.9441 117.089 32.9076 117.049 32.8816 116.992C32.8555 116.93 32.8373 116.841 32.8269 116.727C32.8165 116.612 32.8112 116.461 32.8112 116.273C32.8112 116.081 32.8139 115.924 32.8191 115.805C32.8295 115.685 32.8451 115.594 32.8659 115.531C32.8868 115.464 32.9154 115.419 32.9519 115.398C32.9883 115.378 33.0326 115.367 33.0847 115.367C33.2305 115.367 33.3685 115.339 33.4987 115.281C33.6342 115.219 33.7592 115.112 33.8737 114.961C33.9935 114.805 34.1055 114.602 34.2097 114.352C34.3139 114.096 34.4102 113.776 34.4987 113.391C34.5873 113.005 34.6706 112.547 34.7487 112.016C34.8269 111.479 34.9024 110.857 34.9753 110.148C34.9857 109.935 35.03 109.776 35.1081 109.672C35.1915 109.568 35.3243 109.516 35.5066 109.516H39.5456C39.7279 109.516 39.8633 109.568 39.9519 109.672C40.0404 109.776 40.0847 109.935 40.0847 110.148V116.734ZM48.9984 114.391C48.9984 114.802 48.9203 115.18 48.7641 115.523C48.613 115.862 48.3786 116.154 48.0609 116.398C47.7432 116.638 47.3422 116.826 46.8578 116.961C46.3786 117.091 45.8109 117.156 45.1547 117.156C44.9828 117.156 44.8057 117.154 44.6234 117.148C44.4411 117.148 44.2615 117.143 44.0844 117.133C43.9073 117.128 43.7328 117.12 43.5609 117.109C43.3943 117.099 43.238 117.086 43.0922 117.07C42.8422 117.044 42.6599 116.969 42.5453 116.844C42.4359 116.719 42.3812 116.529 42.3812 116.273V109.766C42.3812 109.714 42.3969 109.669 42.4281 109.633C42.4594 109.591 42.5115 109.557 42.5844 109.531C42.6625 109.505 42.7641 109.487 42.8891 109.477C43.0141 109.461 43.1703 109.453 43.3578 109.453C43.5505 109.453 43.7094 109.461 43.8344 109.477C43.9594 109.487 44.0583 109.505 44.1312 109.531C44.2094 109.557 44.2641 109.591 44.2953 109.633C44.3318 109.669 44.35 109.714 44.35 109.766V111.914C44.5271 111.898 44.7198 111.885 44.9281 111.875C45.1365 111.865 45.35 111.859 45.5687 111.859C46.1573 111.859 46.6677 111.919 47.1 112.039C47.5323 112.154 47.8865 112.32 48.1625 112.539C48.4437 112.758 48.6521 113.023 48.7875 113.336C48.9281 113.643 48.9984 113.995 48.9984 114.391ZM46.9281 114.5C46.9281 114.318 46.8995 114.156 46.8422 114.016C46.7849 113.87 46.6911 113.747 46.5609 113.648C46.4359 113.544 46.2719 113.466 46.0687 113.414C45.8708 113.362 45.626 113.336 45.3344 113.336C45.1521 113.336 44.975 113.341 44.8031 113.352C44.6312 113.357 44.4802 113.365 44.35 113.375V115.625C44.501 115.641 44.6599 115.654 44.8266 115.664C44.9984 115.674 45.1807 115.68 45.3734 115.68C45.9047 115.68 46.2953 115.576 46.5453 115.367C46.8005 115.159 46.9281 114.87 46.9281 114.5ZM57.3731 116.734C57.3731 116.786 57.3575 116.833 57.3262 116.875C57.295 116.911 57.2429 116.943 57.17 116.969C57.0971 116.995 56.9955 117.013 56.8653 117.023C56.7403 117.039 56.5841 117.047 56.3966 117.047C56.2039 117.047 56.0424 117.039 55.9122 117.023C55.7872 117.013 55.6882 116.995 55.6153 116.969C55.5424 116.943 55.4903 116.911 55.4591 116.875C55.4278 116.833 55.4122 116.786 55.4122 116.734V113.992H52.5919V116.734C52.5919 116.786 52.5762 116.833 52.545 116.875C52.5137 116.911 52.4591 116.943 52.3809 116.969C52.308 116.995 52.2091 117.013 52.0841 117.023C51.9591 117.039 51.8002 117.047 51.6075 117.047C51.4148 117.047 51.2559 117.039 51.1309 117.023C51.0059 117.013 50.9044 116.995 50.8262 116.969C50.7533 116.943 50.7012 116.911 50.67 116.875C50.6387 116.833 50.6231 116.786 50.6231 116.734V109.766C50.6231 109.714 50.6387 109.669 50.67 109.633C50.7012 109.591 50.7533 109.557 50.8262 109.531C50.9044 109.505 51.0059 109.487 51.1309 109.477C51.2559 109.461 51.4148 109.453 51.6075 109.453C51.8002 109.453 51.9591 109.461 52.0841 109.477C52.2091 109.487 52.308 109.505 52.3809 109.531C52.4591 109.557 52.5137 109.591 52.545 109.633C52.5762 109.669 52.5919 109.714 52.5919 109.766V112.375H55.4122V109.766C55.4122 109.714 55.4278 109.669 55.4591 109.633C55.4903 109.591 55.5424 109.557 55.6153 109.531C55.6882 109.505 55.7872 109.487 55.9122 109.477C56.0424 109.461 56.2039 109.453 56.3966 109.453C56.5841 109.453 56.7403 109.461 56.8653 109.477C56.9955 109.487 57.0971 109.505 57.17 109.531C57.2429 109.557 57.295 109.591 57.3262 109.633C57.3575 109.669 57.3731 109.714 57.3731 109.766V116.734ZM69.0916 116.734C69.0916 116.786 69.0759 116.833 69.0447 116.875C69.0134 116.911 68.9614 116.943 68.8884 116.969C68.8155 116.995 68.7166 117.013 68.5916 117.023C68.4666 117.039 68.3051 117.047 68.1072 117.047C67.9197 117.047 67.7634 117.039 67.6384 117.023C67.5134 117.013 67.4119 116.995 67.3338 116.969C67.2608 116.943 67.2088 116.911 67.1775 116.875C67.1463 116.833 67.1306 116.786 67.1306 116.734V109.766C67.1306 109.714 67.1463 109.669 67.1775 109.633C67.2088 109.591 67.2608 109.557 67.3338 109.531C67.4119 109.505 67.5134 109.487 67.6384 109.477C67.7634 109.461 67.9197 109.453 68.1072 109.453C68.3051 109.453 68.4666 109.461 68.5916 109.477C68.7166 109.487 68.8155 109.505 68.8884 109.531C68.9614 109.557 69.0134 109.591 69.0447 109.633C69.0759 109.669 69.0916 109.714 69.0916 109.766V116.734ZM61.6463 111.914C61.8233 111.898 62.003 111.885 62.1853 111.875C62.3676 111.865 62.5707 111.859 62.7947 111.859C63.3676 111.859 63.8624 111.919 64.2791 112.039C64.6957 112.154 65.0395 112.32 65.3103 112.539C65.5811 112.758 65.7817 113.023 65.9119 113.336C66.0473 113.643 66.115 113.995 66.115 114.391C66.115 114.802 66.0395 115.18 65.8884 115.523C65.7426 115.862 65.5186 116.154 65.2166 116.398C64.9145 116.638 64.5291 116.826 64.0603 116.961C63.5916 117.091 63.0343 117.156 62.3884 117.156C62.2166 117.156 62.0421 117.154 61.865 117.148C61.6879 117.148 61.5134 117.143 61.3416 117.133C61.1749 117.128 61.0108 117.12 60.8494 117.109C60.6879 117.099 60.5343 117.086 60.3884 117.07C60.1384 117.044 59.9561 116.969 59.8416 116.844C59.7322 116.719 59.6775 116.529 59.6775 116.273V109.766C59.6775 109.714 59.6931 109.669 59.7244 109.633C59.7556 109.591 59.8077 109.557 59.8806 109.531C59.9535 109.505 60.0499 109.487 60.1697 109.477C60.2895 109.461 60.4379 109.453 60.615 109.453C60.99 109.453 61.2556 109.479 61.4119 109.531C61.5681 109.583 61.6463 109.661 61.6463 109.766V111.914ZM64.1072 114.5C64.1072 114.318 64.0785 114.156 64.0213 114.016C63.9692 113.87 63.8806 113.747 63.7556 113.648C63.6358 113.544 63.477 113.466 63.2791 113.414C63.0811 113.362 62.839 113.336 62.5525 113.336C62.3754 113.336 62.2114 113.341 62.0603 113.352C61.9145 113.357 61.7765 113.365 61.6463 113.375V115.625C61.7973 115.641 61.9457 115.654 62.0916 115.664C62.2374 115.674 62.4067 115.68 62.5994 115.68C63.1202 115.68 63.5004 115.576 63.74 115.367C63.9848 115.159 64.1072 114.87 64.1072 114.5ZM78.3256 116.758C78.3256 116.81 78.31 116.854 78.2787 116.891C78.2527 116.927 78.2032 116.958 78.1303 116.984C78.0574 117.005 77.9584 117.021 77.8334 117.031C77.7136 117.042 77.56 117.047 77.3725 117.047C77.185 117.047 77.0261 117.042 76.8959 117.031C76.7709 117.021 76.6668 117.005 76.5834 116.984C76.5053 116.958 76.448 116.927 76.4116 116.891C76.3803 116.854 76.3647 116.81 76.3647 116.758V113.648C76.3647 113.43 76.3699 113.203 76.3803 112.969C76.3959 112.734 76.4168 112.505 76.4428 112.281C76.3178 112.5 76.1824 112.716 76.0366 112.93C75.8907 113.138 75.7423 113.346 75.5912 113.555L73.2397 116.75C73.1928 116.807 73.1485 116.857 73.1069 116.898C73.0652 116.935 73.0105 116.966 72.9428 116.992C72.8803 117.013 72.7996 117.026 72.7006 117.031C72.6017 117.042 72.4741 117.047 72.3178 117.047C72.1303 117.047 71.9767 117.042 71.8569 117.031C71.7423 117.021 71.6485 117.005 71.5756 116.984C71.5079 116.958 71.4584 116.927 71.4272 116.891C71.4011 116.849 71.3881 116.802 71.3881 116.75V109.758C71.3881 109.711 71.4011 109.669 71.4272 109.633C71.4584 109.591 71.5105 109.557 71.5834 109.531C71.6616 109.505 71.7605 109.487 71.8803 109.477C72.0053 109.461 72.1616 109.453 72.3491 109.453C72.7189 109.453 72.9793 109.479 73.1303 109.531C73.2814 109.583 73.3569 109.659 73.3569 109.758V112.852C73.3569 113.065 73.3491 113.286 73.3334 113.516C73.3178 113.745 73.297 113.966 73.2709 114.18C73.3959 113.971 73.5235 113.766 73.6537 113.562C73.784 113.354 73.922 113.154 74.0678 112.961L76.4428 109.758C76.4845 109.701 76.5287 109.654 76.5756 109.617C76.6225 109.576 76.6798 109.544 76.7475 109.523C76.8204 109.497 76.9064 109.479 77.0053 109.469C77.1095 109.458 77.2423 109.453 77.4037 109.453C77.586 109.453 77.7371 109.458 77.8569 109.469C77.9767 109.479 78.0704 109.497 78.1381 109.523C78.211 109.549 78.2605 109.583 78.2866 109.625C78.3126 109.667 78.3256 109.714 78.3256 109.766V116.758ZM77.7475 106.438C77.7475 106.745 77.698 107.034 77.5991 107.305C77.5001 107.576 77.3386 107.815 77.1147 108.023C76.8959 108.227 76.6043 108.388 76.2397 108.508C75.8803 108.628 75.4376 108.688 74.9116 108.688C74.4011 108.688 73.9662 108.633 73.6069 108.523C73.2475 108.414 72.9532 108.263 72.7241 108.07C72.5001 107.872 72.336 107.635 72.2319 107.359C72.1277 107.078 72.0756 106.771 72.0756 106.438C72.0756 106.359 72.0886 106.297 72.1147 106.25C72.1459 106.198 72.1954 106.156 72.2631 106.125C72.3308 106.094 72.422 106.073 72.5366 106.062C72.6564 106.047 72.8048 106.039 72.9819 106.039C73.1485 106.039 73.2866 106.047 73.3959 106.062C73.5053 106.078 73.5886 106.104 73.6459 106.141C73.7032 106.172 73.7423 106.214 73.7631 106.266C73.7892 106.312 73.8022 106.37 73.8022 106.438C73.8022 106.578 73.8256 106.708 73.8725 106.828C73.9246 106.948 73.9975 107.052 74.0912 107.141C74.1902 107.224 74.31 107.292 74.4506 107.344C74.5912 107.391 74.7475 107.414 74.9194 107.414C75.086 107.414 75.2371 107.391 75.3725 107.344C75.5079 107.297 75.6225 107.229 75.7162 107.141C75.8152 107.052 75.8881 106.948 75.935 106.828C75.9871 106.703 76.0131 106.568 76.0131 106.422C76.0131 106.359 76.0235 106.305 76.0444 106.258C76.0652 106.211 76.1043 106.172 76.1616 106.141C76.2241 106.104 76.3048 106.078 76.4037 106.062C76.5079 106.047 76.6381 106.039 76.7944 106.039C76.9819 106.039 77.1355 106.047 77.2553 106.062C77.3803 106.073 77.4793 106.094 77.5522 106.125C77.6251 106.156 77.6746 106.198 77.7006 106.25C77.7319 106.297 77.7475 106.359 77.7475 106.438ZM89.8328 115.625C89.8328 115.76 89.8276 115.875 89.8172 115.969C89.812 116.057 89.8016 116.133 89.7859 116.195C89.7755 116.258 89.7599 116.31 89.7391 116.352C89.7234 116.388 89.6844 116.438 89.6219 116.5C89.5594 116.557 89.4526 116.63 89.3016 116.719C89.1505 116.802 88.9786 116.878 88.7859 116.945C88.5932 117.013 88.3823 117.068 88.1531 117.109C87.9292 117.151 87.6974 117.172 87.4578 117.172C86.9214 117.172 86.4448 117.089 86.0281 116.922C85.6167 116.755 85.2703 116.51 84.9891 116.188C84.7078 115.859 84.4943 115.461 84.3484 114.992C84.2078 114.523 84.1375 113.987 84.1375 113.383C84.1375 112.685 84.2234 112.083 84.3953 111.578C84.5724 111.068 84.8172 110.646 85.1297 110.312C85.4422 109.979 85.812 109.732 86.2391 109.57C86.6661 109.409 87.1349 109.328 87.6453 109.328C87.8536 109.328 88.0568 109.346 88.2547 109.383C88.4578 109.419 88.6453 109.469 88.8172 109.531C88.9943 109.594 89.1505 109.664 89.2859 109.742C89.4266 109.82 89.5255 109.888 89.5828 109.945C89.6401 110.003 89.6792 110.052 89.7 110.094C89.726 110.13 89.7443 110.18 89.7547 110.242C89.7703 110.305 89.7807 110.383 89.7859 110.477C89.7964 110.565 89.8016 110.674 89.8016 110.805C89.8016 111.107 89.7755 111.32 89.7234 111.445C89.6714 111.565 89.6036 111.625 89.5203 111.625C89.4318 111.625 89.338 111.589 89.2391 111.516C89.1401 111.443 89.0229 111.362 88.8875 111.273C88.7521 111.185 88.5906 111.104 88.4031 111.031C88.2156 110.958 87.9917 110.922 87.7312 110.922C87.2208 110.922 86.8302 111.12 86.5594 111.516C86.2885 111.906 86.1531 112.482 86.1531 113.242C86.1531 113.617 86.187 113.948 86.2547 114.234C86.3224 114.521 86.4214 114.76 86.5516 114.953C86.687 115.146 86.8536 115.292 87.0516 115.391C87.2547 115.484 87.4891 115.531 87.7547 115.531C88.0255 115.531 88.2573 115.492 88.45 115.414C88.6479 115.331 88.8198 115.24 88.9656 115.141C89.1115 115.042 89.2339 114.953 89.3328 114.875C89.4318 114.792 89.5151 114.75 89.5828 114.75C89.6297 114.75 89.6687 114.763 89.7 114.789C89.7312 114.815 89.7547 114.865 89.7703 114.938C89.7911 115.005 89.8068 115.094 89.8172 115.203C89.8276 115.312 89.8328 115.453 89.8328 115.625ZM98.1528 116.734C98.1528 116.786 98.1372 116.833 98.1059 116.875C98.0747 116.911 98.02 116.943 97.9419 116.969C97.869 116.995 97.77 117.013 97.645 117.023C97.52 117.039 97.3611 117.047 97.1684 117.047C96.9809 117.047 96.8221 117.039 96.6919 117.023C96.5669 117.013 96.4653 116.995 96.3872 116.969C96.3091 116.943 96.2544 116.911 96.2231 116.875C96.1971 116.833 96.1841 116.786 96.1841 116.734V111.125H93.5512V116.734C93.5512 116.786 93.533 116.833 93.4966 116.875C93.4653 116.911 93.4106 116.943 93.3325 116.969C93.2596 116.995 93.1606 117.013 93.0356 117.023C92.9106 117.039 92.7518 117.047 92.5591 117.047C92.3664 117.047 92.2075 117.039 92.0825 117.023C91.9575 117.013 91.8559 116.995 91.7778 116.969C91.7049 116.943 91.6528 116.911 91.6216 116.875C91.5955 116.833 91.5825 116.786 91.5825 116.734V110.133C91.5825 109.924 91.6268 109.768 91.7153 109.664C91.8039 109.555 91.9419 109.5 92.1294 109.5H97.6137C97.796 109.5 97.9315 109.555 98.02 109.664C98.1085 109.768 98.1528 109.924 98.1528 110.133V116.734ZM107.465 113.148C107.465 113.768 107.397 114.328 107.262 114.828C107.132 115.323 106.939 115.745 106.684 116.094C106.429 116.443 106.111 116.711 105.731 116.898C105.35 117.086 104.916 117.18 104.426 117.18C104.223 117.18 104.035 117.159 103.863 117.117C103.697 117.081 103.533 117.023 103.371 116.945C103.215 116.862 103.059 116.76 102.902 116.641C102.746 116.521 102.585 116.38 102.418 116.219V119.5C102.418 119.552 102.402 119.599 102.371 119.641C102.34 119.682 102.285 119.716 102.207 119.742C102.134 119.773 102.035 119.797 101.91 119.812C101.785 119.828 101.626 119.836 101.434 119.836C101.241 119.836 101.082 119.828 100.957 119.812C100.832 119.797 100.731 119.773 100.652 119.742C100.58 119.716 100.527 119.682 100.496 119.641C100.465 119.599 100.449 119.552 100.449 119.5V109.766C100.449 109.714 100.462 109.669 100.488 109.633C100.514 109.591 100.559 109.557 100.621 109.531C100.689 109.505 100.775 109.487 100.879 109.477C100.988 109.461 101.124 109.453 101.285 109.453C101.442 109.453 101.572 109.461 101.676 109.477C101.785 109.487 101.871 109.505 101.934 109.531C102.001 109.557 102.048 109.591 102.074 109.633C102.1 109.669 102.113 109.714 102.113 109.766V110.586C102.317 110.378 102.514 110.195 102.707 110.039C102.905 109.878 103.106 109.745 103.309 109.641C103.512 109.531 103.72 109.451 103.934 109.398C104.152 109.346 104.384 109.32 104.629 109.32C105.139 109.32 105.574 109.422 105.934 109.625C106.293 109.823 106.585 110.096 106.809 110.445C107.038 110.794 107.205 111.201 107.309 111.664C107.413 112.128 107.465 112.622 107.465 113.148ZM105.418 113.289C105.418 112.992 105.395 112.708 105.348 112.438C105.306 112.161 105.231 111.917 105.121 111.703C105.017 111.49 104.876 111.32 104.699 111.195C104.527 111.065 104.311 111 104.051 111C103.921 111 103.791 111.021 103.66 111.062C103.535 111.099 103.405 111.161 103.27 111.25C103.139 111.339 103.004 111.453 102.863 111.594C102.723 111.734 102.574 111.909 102.418 112.117V114.414C102.694 114.763 102.957 115.034 103.207 115.227C103.457 115.414 103.718 115.508 103.988 115.508C104.244 115.508 104.46 115.443 104.637 115.312C104.819 115.182 104.968 115.013 105.082 114.805C105.197 114.591 105.28 114.352 105.332 114.086C105.389 113.82 105.418 113.555 105.418 113.289ZM115.801 113.047C115.801 113.286 115.746 113.464 115.637 113.578C115.532 113.693 115.387 113.75 115.199 113.75H110.957C110.957 114.047 110.991 114.318 111.058 114.562C111.131 114.802 111.243 115.008 111.394 115.18C111.551 115.346 111.749 115.474 111.988 115.562C112.233 115.651 112.525 115.695 112.863 115.695C113.207 115.695 113.509 115.672 113.769 115.625C114.03 115.573 114.254 115.518 114.441 115.461C114.634 115.398 114.793 115.344 114.918 115.297C115.043 115.245 115.144 115.219 115.223 115.219C115.269 115.219 115.308 115.229 115.34 115.25C115.371 115.266 115.397 115.297 115.418 115.344C115.439 115.391 115.452 115.458 115.457 115.547C115.467 115.63 115.473 115.737 115.473 115.867C115.473 115.982 115.47 116.081 115.465 116.164C115.459 116.242 115.452 116.31 115.441 116.367C115.431 116.424 115.415 116.474 115.394 116.516C115.374 116.552 115.345 116.589 115.308 116.625C115.277 116.661 115.186 116.711 115.035 116.773C114.884 116.836 114.691 116.898 114.457 116.961C114.223 117.018 113.954 117.068 113.652 117.109C113.35 117.156 113.027 117.18 112.683 117.18C112.064 117.18 111.519 117.102 111.051 116.945C110.587 116.789 110.199 116.552 109.887 116.234C109.574 115.917 109.34 115.516 109.183 115.031C109.032 114.547 108.957 113.979 108.957 113.328C108.957 112.708 109.038 112.151 109.199 111.656C109.361 111.156 109.595 110.734 109.902 110.391C110.209 110.042 110.582 109.776 111.019 109.594C111.462 109.411 111.959 109.32 112.512 109.32C113.095 109.32 113.592 109.406 114.004 109.578C114.42 109.75 114.762 109.99 115.027 110.297C115.293 110.599 115.488 110.958 115.613 111.375C115.738 111.792 115.801 112.245 115.801 112.734V113.047ZM113.894 112.484C113.91 111.932 113.798 111.5 113.558 111.188C113.324 110.87 112.959 110.711 112.465 110.711C112.215 110.711 111.996 110.758 111.808 110.852C111.626 110.945 111.473 111.073 111.348 111.234C111.228 111.391 111.134 111.578 111.066 111.797C111.004 112.01 110.967 112.24 110.957 112.484H113.894ZM124.683 116.758C124.683 116.81 124.668 116.854 124.636 116.891C124.61 116.927 124.561 116.958 124.488 116.984C124.415 117.005 124.316 117.021 124.191 117.031C124.071 117.042 123.918 117.047 123.73 117.047C123.543 117.047 123.384 117.042 123.253 117.031C123.128 117.021 123.024 117.005 122.941 116.984C122.863 116.958 122.806 116.927 122.769 116.891C122.738 116.854 122.722 116.81 122.722 116.758V113.648C122.722 113.43 122.727 113.203 122.738 112.969C122.753 112.734 122.774 112.505 122.8 112.281C122.675 112.5 122.54 112.716 122.394 112.93C122.248 113.138 122.1 113.346 121.949 113.555L119.597 116.75C119.55 116.807 119.506 116.857 119.464 116.898C119.423 116.935 119.368 116.966 119.3 116.992C119.238 117.013 119.157 117.026 119.058 117.031C118.959 117.042 118.832 117.047 118.675 117.047C118.488 117.047 118.334 117.042 118.214 117.031C118.1 117.021 118.006 117.005 117.933 116.984C117.865 116.958 117.816 116.927 117.785 116.891C117.759 116.849 117.746 116.802 117.746 116.75V109.758C117.746 109.711 117.759 109.669 117.785 109.633C117.816 109.591 117.868 109.557 117.941 109.531C118.019 109.505 118.118 109.487 118.238 109.477C118.363 109.461 118.519 109.453 118.707 109.453C119.076 109.453 119.337 109.479 119.488 109.531C119.639 109.583 119.714 109.659 119.714 109.758V112.852C119.714 113.065 119.707 113.286 119.691 113.516C119.675 113.745 119.654 113.966 119.628 114.18C119.753 113.971 119.881 113.766 120.011 113.562C120.141 113.354 120.279 113.154 120.425 112.961L122.8 109.758C122.842 109.701 122.886 109.654 122.933 109.617C122.98 109.576 123.037 109.544 123.105 109.523C123.178 109.497 123.264 109.479 123.363 109.469C123.467 109.458 123.6 109.453 123.761 109.453C123.944 109.453 124.095 109.458 124.214 109.469C124.334 109.479 124.428 109.497 124.496 109.523C124.569 109.549 124.618 109.583 124.644 109.625C124.67 109.667 124.683 109.714 124.683 109.766V116.758ZM124.105 106.438C124.105 106.745 124.056 107.034 123.957 107.305C123.858 107.576 123.696 107.815 123.472 108.023C123.253 108.227 122.962 108.388 122.597 108.508C122.238 108.628 121.795 108.688 121.269 108.688C120.759 108.688 120.324 108.633 119.964 108.523C119.605 108.414 119.311 108.263 119.082 108.07C118.858 107.872 118.694 107.635 118.589 107.359C118.485 107.078 118.433 106.771 118.433 106.438C118.433 106.359 118.446 106.297 118.472 106.25C118.503 106.198 118.553 106.156 118.621 106.125C118.688 106.094 118.779 106.073 118.894 106.062C119.014 106.047 119.162 106.039 119.339 106.039C119.506 106.039 119.644 106.047 119.753 106.062C119.863 106.078 119.946 106.104 120.003 106.141C120.061 106.172 120.1 106.214 120.121 106.266C120.147 106.312 120.16 106.37 120.16 106.438C120.16 106.578 120.183 106.708 120.23 106.828C120.282 106.948 120.355 107.052 120.449 107.141C120.548 107.224 120.668 107.292 120.808 107.344C120.949 107.391 121.105 107.414 121.277 107.414C121.444 107.414 121.595 107.391 121.73 107.344C121.865 107.297 121.98 107.229 122.074 107.141C122.173 107.052 122.246 106.948 122.293 106.828C122.345 106.703 122.371 106.568 122.371 106.422C122.371 106.359 122.381 106.305 122.402 106.258C122.423 106.211 122.462 106.172 122.519 106.141C122.582 106.104 122.662 106.078 122.761 106.062C122.865 106.047 122.996 106.039 123.152 106.039C123.339 106.039 123.493 106.047 123.613 106.062C123.738 106.073 123.837 106.094 123.91 106.125C123.983 106.156 124.032 106.198 124.058 106.25C124.089 106.297 124.105 106.359 124.105 106.438Z" fill="#95C619"/>
<path d="M13.5037 33.1128C12.7564 33.1128 12.6497 32.846 12.7031 32.2055L12.9166 28.3092C10.1945 28.4159 6.4049 27.722 3.89632 25.9073C1.06748 23.8791 0 20.8368 0 17.4742C0 12.457 2.24172 9.14783 4.43006 7.38648C6.88527 5.46501 10.6215 4.39753 14.0908 4.55765L14.3043 0.98158C14.3577 0.34109 14.5178 0.0742188 15.2116 0.0742188H20.2822C20.9761 0.0742188 21.0294 0.501212 20.9761 0.98158L20.8159 4.55765C23.538 4.4509 27.4877 5.14477 29.8895 6.95949C31.7043 8.34722 33.7325 10.9626 33.7325 15.7662C33.7325 21.5306 30.7435 24.4662 29.0356 25.7472C26.6871 27.4552 23.0576 28.4693 19.5883 28.3092L19.3748 32.2055C19.3748 32.6858 19.2147 33.1128 18.5742 33.1128H13.5037ZM13.8773 9.57482C11.1552 9.46808 9.55398 10.9092 8.91349 11.7098C7.47239 13.3644 7.20551 15.5527 7.20551 17.4742C7.20551 19.0754 7.47239 20.9969 8.96686 22.2779C9.98097 23.0785 11.7423 23.5589 13.13 23.5055L13.8773 9.57482ZM19.8018 23.5055C22.8441 23.5589 24.5521 21.7975 24.7122 21.584C25.7797 20.4098 26.4736 18.6484 26.4736 16.1932C26.4736 13.1509 25.4595 11.6564 24.7122 10.9626C23.7515 10.1086 22.0969 9.57482 20.5491 9.57482L19.8018 23.5055Z" fill="#134577"/>
<path d="M36.5599 42.7202L38.428 7.76008C38.4814 7.01284 39.0685 7.01284 39.3888 7.01284H44.4059C45.1532 7.01284 45.0998 7.38646 45.0998 7.76008L44.5661 16.7269H44.6728C45.5802 13.9515 47.3949 10.9092 49.263 9.14781C50.8642 7.54658 52.8924 6.53247 55.0274 6.53247C57.8029 6.53247 61.3256 7.9202 61.3256 15.5527C61.3256 17.6343 61.1121 23.0785 58.2299 27.6686C54.8673 33.0594 50.2771 33.5932 48.1421 33.5932C45.4734 33.5932 43.9256 32.6325 43.7655 32.5791L43.2317 42.7202C43.1783 43.5742 42.8581 43.6275 42.5378 43.6275H37.5207C36.6133 43.6275 36.5599 43.2539 36.5599 42.7202ZM46.3808 28.7895C49.7434 28.7895 51.825 27.3484 53.2661 24.3595C54.4403 21.9042 54.6538 19.1822 54.6538 16.8871C54.6538 15.446 54.6004 13.2042 52.7857 13.2042C51.1311 13.2042 48.6225 16.7269 47.7151 18.3282C45.3667 22.3312 44.4593 25.9607 44.0857 28.5226C44.8863 28.7361 45.5802 28.7895 46.3808 28.7895Z" fill="#134577"/>
<path d="M79.6368 32.2053L80.1172 23.025H80.0104C79.3699 24.6262 77.9288 27.882 75.4736 30.5507C73.6589 32.4722 71.7374 33.593 69.1221 33.593C64.6386 33.593 64.4785 29.8568 64.5853 27.9354L65.6527 7.92006C65.7061 7.06607 66.2932 7.0127 66.7202 7.0127H72.0043C72.3245 7.0127 72.9116 7.06607 72.8583 7.92006L71.684 23.6654C71.5773 24.8397 71.7374 25.9072 72.9116 25.9072C74.4061 25.9072 76.1675 23.1317 76.808 22.1176C78.5159 19.2354 80.5975 14.6452 80.7576 11.4961L80.9711 7.75993C81.0245 7.0127 81.6116 7.0127 81.9319 7.0127H86.949C87.6963 7.0127 87.6429 7.38631 87.6429 7.75993L86.3619 32.1519C86.3086 33.0059 85.9883 33.0593 85.6681 33.0593H80.5975C79.6902 33.1127 79.5834 32.7391 79.6368 32.2053Z" fill="#134577"/>
<path d="M93.4568 7.75993C93.4568 7.43969 93.5102 7.0127 94.4175 7.0127H99.4347C99.755 7.0127 100.182 7.0127 100.129 7.75993L99.5948 17.047H108.348L108.882 7.75993C108.882 7.43969 108.935 7.0127 109.843 7.0127H114.86C115.18 7.0127 115.607 7.0127 115.554 7.75993L114.219 32.2053C114.219 32.4722 114.166 33.1127 113.525 33.1127H108.508C107.441 33.1127 107.548 32.5789 107.548 32.2053L108.135 22.1176H99.4347L98.8476 32.2053C98.8476 32.4722 98.7942 33.1127 98.1537 33.1127H93.1366C92.0691 33.1127 92.1758 32.5789 92.1758 32.2053L93.4568 7.75993Z" fill="#134577"/>
<path d="M118.276 21.6907C118.276 12.0834 123.667 6.53247 130.979 6.53247C137.064 6.53247 141.547 10.2687 141.547 18.5417C141.547 27.8821 136.156 33.5932 128.631 33.5932C122.706 33.5932 118.276 29.9104 118.276 21.6907ZM129.324 28.576C131.406 28.576 134.342 27.2417 134.342 18.8085C134.342 15.7662 134.128 11.603 130.552 11.603C127.99 11.603 125.428 13.6312 125.428 22.1177C125.428 24.6263 125.802 28.576 129.324 28.576Z" fill="#134577"/>
<path d="M143.151 27.4018C143.151 27.0815 143.311 26.6545 143.791 26.6545C144.218 26.6545 144.645 26.9214 144.965 27.1349C146.887 28.3091 148.328 28.576 149.929 28.576C153.078 28.576 154.252 26.868 154.252 25.1067C154.252 21.9042 150.623 21.8509 149.769 21.8509H147.848C146.887 21.8509 146.94 21.2637 146.94 21.1036L147.1 18.2748C147.154 17.5276 147.848 17.4742 148.114 17.4742H150.143C152.651 17.4742 154.413 16.2999 154.413 14.165C154.413 12.4036 153.292 11.3361 151.21 11.3361C148.968 11.3361 147.367 12.1368 146.353 12.7239C145.766 13.0441 145.499 13.2576 145.179 13.2576C144.912 13.2576 144.698 12.9374 144.698 12.5638L144.912 8.98768C144.912 8.72081 145.179 8.18707 146.78 7.54658C148.381 6.95946 150.249 6.53247 152.598 6.53247C156.121 6.53247 157.935 7.43983 158.576 7.81345C160.177 8.77419 161.298 10.322 161.298 12.6705C161.298 14.4852 160.604 15.8196 159.43 16.9404C157.882 18.3282 155.854 18.8619 155.48 18.9687V19.0754C156.654 19.1822 158.149 19.6091 159.163 20.2496C160.817 21.3705 161.458 22.9183 161.458 24.7864C161.458 28.3091 159.483 30.9778 156.814 32.2588C154.893 33.1662 151.904 33.5932 149.556 33.5932C147.581 33.5932 146.086 33.2729 144.645 32.6858C144.165 32.4723 142.991 31.992 143.044 31.0846L143.151 27.4018Z" fill="#134577"/>
<path d="M164.018 21.6907C164.018 12.0834 169.409 6.53247 176.721 6.53247C182.806 6.53247 187.289 10.2687 187.289 18.5417C187.289 27.8821 181.898 33.5932 174.372 33.5932C168.501 33.5932 164.018 29.9104 164.018 21.6907ZM175.066 28.576C177.148 28.576 180.083 27.2417 180.083 18.8085C180.083 15.7662 179.87 11.603 176.294 11.603C173.732 11.603 171.17 13.6312 171.17 22.1177C171.223 24.6263 171.597 28.576 175.066 28.576Z" fill="#134577"/>
<path d="M199.992 14.5384C199.085 21.1568 198.284 24.1458 197.644 25.9071C196.843 28.2022 195.455 31.2445 191.986 32.6322C190.812 33.1126 189.211 33.3795 188.09 33.3795C186.916 33.3795 186.755 32.8457 186.755 32.5789L187.022 28.3623C187.022 28.1488 187.022 27.6684 187.449 27.6684H187.716C187.876 27.6684 188.944 27.6684 190.011 26.7077C190.759 26.0138 191.559 24.7862 192.253 22.2777C192.84 20.2494 193.641 15.766 193.961 12.9905L194.548 8.29362C194.602 7.81325 194.655 7.11938 195.722 7.11938H210.827C211.574 7.11938 211.574 7.493 211.574 7.86662L210.24 32.2586C210.187 33.1126 209.867 33.166 209.546 33.166H204.529C203.622 33.166 203.515 32.7924 203.568 32.2586L204.689 12.0832H200.366L199.992 14.5384Z" fill="#134577"/>
<path d="M220.06 19.8766C218.085 19.8766 216.431 19.2361 215.15 18.0085C213.869 16.7809 213.228 15.1797 213.228 13.2582C213.228 11.3367 213.869 9.78888 215.203 8.5079C216.538 7.22692 218.192 6.58643 220.167 6.58643C222.142 6.58643 223.743 7.22692 225.078 8.45452C226.359 9.68213 226.999 11.2834 226.999 13.2582C226.999 15.1797 226.359 16.7275 225.024 18.0085C223.636 19.2361 221.982 19.8766 220.06 19.8766ZM220.06 7.54716C218.406 7.54716 217.071 8.0809 216.004 9.14839C214.936 10.2159 214.403 11.5502 214.403 13.2048C214.403 14.8594 214.936 16.1938 216.057 17.2613C217.125 18.3287 218.512 18.8625 220.114 18.8625C221.715 18.8625 223.049 18.3287 224.117 17.2613C225.238 16.1938 225.771 14.8594 225.771 13.2582C225.771 11.6036 225.238 10.2692 224.17 9.20176C223.049 8.0809 221.715 7.54716 220.06 7.54716ZM223.583 17.2613H221.288L220.594 15.1797C220.381 14.4324 220.007 14.0588 219.58 14.0588H218.939V17.2613H217.018V8.98826H219.9C222.142 8.98826 223.209 9.78888 223.209 11.3367C223.209 12.4576 222.569 13.2048 221.288 13.5251V13.5784C221.822 13.6852 222.249 14.1656 222.569 14.9128L223.583 17.2613ZM218.993 10.5895V12.6711H220.007C220.861 12.6711 221.235 12.2975 221.235 11.6036C221.235 10.9631 220.754 10.5895 219.793 10.5895H218.993Z" fill="#134577"/>
</svg>
