<svg width="80" height="79" viewBox="0 0 80 79" fill="none" xmlns="http://www.w3.org/2000/svg">
<g filter="url(#filter0_d)">
<mask id="mask0" mask-type="alpha" maskUnits="userSpaceOnUse" x="12" y="8" width="56" height="56">
<circle cx="40.3173" cy="35.6439" r="27.3563" fill="#8EB81F"/>
</mask>
<g mask="url(#mask0)">
<circle cx="40.3173" cy="35.6439" r="27.3563" fill="#8EB81F"/>
<g filter="url(#filter1_f)">
<circle cx="40.3173" cy="12.4332" r="27.3563" fill="#F4E400"/>
</g>
<g filter="url(#filter2_f)">
<circle cx="40.318" cy="14.0906" r="15.7506" fill="white"/>
</g>
<g filter="url(#filter3_f)">
<path d="M34.515 60.5135C40.5849 60.8215 52.213 58.565 56.8974 53.8815C61.8721 48.9077 65.1185 45.0209 66.0178 38.9598C66.848 43.9334 61.8711 50.5658 57.7274 54.7107C52.6998 59.7399 40.3189 62.1717 34.515 60.5135Z" fill="white"/>
</g>
<g filter="url(#filter4_f)">
<path d="M39.3401 12.2597C35.2805 11.7601 30.2084 14.2184 25.6792 17.1091C21.4378 19.816 17.9699 24.3874 17.9335 29.0112C17.1042 24.8664 20.4459 19.2154 24.7042 16.2637C29.4447 12.9777 35.2233 10.4167 39.3401 12.2597Z" fill="white"/>
</g>
</g>
<rect x="32.4048" y="26.2032" width="24.6175" height="3.51679" rx="1.75839" transform="rotate(45 32.4048 26.2032)" fill="white"/>
<rect x="49.813" y="28.6901" width="24.6175" height="3.51679" rx="1.75839" transform="rotate(135 49.813 28.6901)" fill="white"/>
</g>
<defs>
<filter id="filter0_d" x="0.960938" y="0.287598" width="78.7126" height="78.7126" filterUnits="userSpaceOnUse" color-interpolation-filters="sRGB">
<feFlood flood-opacity="0" result="BackgroundImageFix"/>
<feColorMatrix in="SourceAlpha" type="matrix" values="0 0 0 0 0 0 0 0 0 0 0 0 0 0 0 0 0 0 127 0"/>
<feOffset dy="4"/>
<feGaussianBlur stdDeviation="6"/>
<feColorMatrix type="matrix" values="0 0 0 0 0 0 0 0 0 0.252833 0 0 0 0 0.308333 0 0 0 0.09 0"/>
<feBlend mode="normal" in2="BackgroundImageFix" result="effect1_dropShadow"/>
<feBlend mode="normal" in="SourceGraphic" in2="effect1_dropShadow" result="shape"/>
</filter>
<filter id="filter1_f" x="-6.03906" y="-33.9231" width="92.7126" height="92.7126" filterUnits="userSpaceOnUse" color-interpolation-filters="sRGB">
<feFlood flood-opacity="0" result="BackgroundImageFix"/>
<feBlend mode="normal" in="SourceGraphic" in2="BackgroundImageFix" result="shape"/>
<feGaussianBlur stdDeviation="9.5" result="effect1_foregroundBlur"/>
</filter>
<filter id="filter2_f" x="10.5674" y="-15.66" width="59.5012" height="59.5012" filterUnits="userSpaceOnUse" color-interpolation-filters="sRGB">
<feFlood flood-opacity="0" result="BackgroundImageFix"/>
<feBlend mode="normal" in="SourceGraphic" in2="BackgroundImageFix" result="shape"/>
<feGaussianBlur stdDeviation="7" result="effect1_foregroundBlur"/>
</filter>
<filter id="filter3_f" x="33.5151" y="37.9598" width="33.5944" height="24.0711" filterUnits="userSpaceOnUse" color-interpolation-filters="sRGB">
<feFlood flood-opacity="0" result="BackgroundImageFix"/>
<feBlend mode="normal" in="SourceGraphic" in2="BackgroundImageFix" result="shape"/>
<feGaussianBlur stdDeviation="0.5" result="effect1_foregroundBlur"/>
</filter>
<filter id="filter4_f" x="16.8066" y="10.6422" width="23.5337" height="19.369" filterUnits="userSpaceOnUse" color-interpolation-filters="sRGB">
<feFlood flood-opacity="0" result="BackgroundImageFix"/>
<feBlend mode="normal" in="SourceGraphic" in2="BackgroundImageFix" result="shape"/>
<feGaussianBlur stdDeviation="0.5" result="effect1_foregroundBlur"/>
</filter>
</defs>
</svg>
