<svg width="25" height="31" viewBox="0 0 25 31" fill="none" xmlns="http://www.w3.org/2000/svg">
<path d="M17.0058 0H4.83844C3.0609 0 1.61417 1.44773 1.61417 3.22426V15.147H1.29926C0.581831 15.147 0 15.7283 0 16.4463V24.3258C0 25.0438 0.581769 25.625 1.29926 25.625H1.61417V27.0699C1.61417 28.8483 3.0609 30.2941 4.83844 30.2941H21.4403C23.2167 30.2941 24.6636 28.8483 24.6636 27.0699V7.63097L17.0058 0ZM3.40849 17.8683C3.78925 17.804 4.32446 17.7555 5.07852 17.7555C5.84056 17.7555 6.38368 17.9009 6.74861 18.1931C7.09721 18.4684 7.33246 18.9229 7.33246 19.4577C7.33246 19.9924 7.1542 20.447 6.82986 20.755C6.408 21.1521 5.78413 21.3303 5.05433 21.3303C4.89191 21.3303 4.74632 21.3223 4.63247 21.3065V23.2604H3.40849V17.8683ZM21.4403 28.3195H4.83844C4.15017 28.3195 3.5897 27.7591 3.5897 27.0699V25.625H19.066C19.7836 25.625 20.3654 25.0438 20.3654 24.3258V16.4463C20.3654 15.7283 19.7836 15.147 19.066 15.147H3.5897V3.22426C3.5897 2.537 4.15023 1.97653 4.83844 1.97653L16.2671 1.96459V6.18903C16.2671 7.42294 17.2683 8.42506 18.5031 8.42506L22.6414 8.41318L22.688 27.0698C22.688 27.7591 22.1285 28.3195 21.4403 28.3195ZM8.1217 23.2356V17.8683C8.57567 17.7961 9.16736 17.7555 9.79179 17.7555C10.8295 17.7555 11.5025 17.9416 12.0298 18.3387C12.5972 18.7605 12.9537 19.433 12.9537 20.3984C12.9537 21.4441 12.5729 22.1661 12.0455 22.6116C11.4702 23.0899 10.5944 23.3167 9.52438 23.3167C8.88361 23.3167 8.42964 23.2761 8.1217 23.2356ZM16.9702 20.0578V21.0629H15.008V23.2604H13.7677V17.7961H17.1078V18.809H15.008V20.0578H16.9702Z" fill="#81BC62"/>
</svg>
