<svg width="147" height="38" viewBox="0 0 147 38" fill="none" xmlns="http://www.w3.org/2000/svg">
<path fill-rule="evenodd" clip-rule="evenodd" d="M63.9288 25.8487H53.0298V11.0708H63.74L64.1004 13.6625H57.8185V16.9751H63.74V19.5668H57.8185V23.257H64.3235L63.9288 25.8487Z" fill="#8798A5" fill-opacity="0.4"/>
<path d="M36.1608 30.7051H36.7959V31.3745H37.0534C37.4653 31.3745 37.8429 31.4603 38.1518 31.6319C38.4608 31.8036 38.7011 32.0267 38.8555 32.3356C39.0272 32.6446 39.0958 32.9879 39.0958 33.3826C39.0958 33.7945 39.01 34.155 38.8212 34.4639C38.6324 34.79 38.3921 35.0132 38.066 35.1848C37.7399 35.3393 37.3795 35.4251 36.9332 35.4251H36.7787V36.249H36.1437V35.4251H35.972C35.5429 35.4251 35.1653 35.3393 34.8392 35.1848C34.5303 35.0303 34.2728 34.79 34.1012 34.4639C33.9296 34.1378 33.8266 33.7945 33.8266 33.3826C33.8266 32.9879 33.9124 32.6446 34.084 32.3356C34.2557 32.0267 34.496 31.7864 34.8049 31.6148C35.1139 31.4431 35.4743 31.3573 35.9034 31.3573H36.1437V30.7051H36.1608ZM36.1608 31.9065H35.9549C35.5086 31.9065 35.1482 32.0438 34.8907 32.3013C34.6333 32.5588 34.5131 32.9192 34.5131 33.3655C34.5131 33.846 34.6504 34.2236 34.9251 34.4983C35.1997 34.7729 35.5773 34.893 36.075 34.893H36.1608V31.9065ZM36.7959 34.893H36.8817C37.3795 34.893 37.7571 34.7557 38.0317 34.4811C38.3063 34.2065 38.4436 33.8289 38.4436 33.3655C38.4436 32.902 38.3235 32.5588 38.066 32.3013C37.8086 32.0438 37.4653 31.9065 37.0019 31.9065H36.7959V34.893Z" fill="#8798A5" fill-opacity="0.4"/>
<path d="M42.6644 36.1815L42.5443 35.5979H42.51C42.304 35.8554 42.1152 36.027 41.9092 36.1128C41.7033 36.1986 41.463 36.2501 41.154 36.2501C40.7593 36.2501 40.4331 36.1471 40.21 35.9412C39.9869 35.7352 39.8667 35.4434 39.8667 35.0658C39.8667 34.242 40.519 33.83 41.8234 33.7786L42.51 33.7614V33.5039C42.51 33.195 42.4413 32.9547 42.304 32.8002C42.1667 32.6457 41.9436 32.5771 41.6518 32.5771C41.3085 32.5771 40.9309 32.6801 40.5018 32.886L40.313 32.4226C40.519 32.3196 40.7249 32.2338 40.9652 32.1652C41.2055 32.0965 41.4458 32.0793 41.6861 32.0793C42.1667 32.0793 42.5271 32.1823 42.7502 32.4055C42.9905 32.6114 43.0935 32.9547 43.0935 33.4353V36.1986H42.6644V36.1815ZM41.2742 35.7352C41.6518 35.7352 41.9607 35.6322 42.1667 35.4263C42.3898 35.2203 42.4928 34.9285 42.4928 34.5509V34.1905L41.8749 34.2076C41.3943 34.2248 41.0339 34.2935 40.8279 34.4308C40.6048 34.5681 40.5018 34.774 40.5018 35.0487C40.5018 35.2718 40.5705 35.4434 40.7078 35.5464C40.8451 35.6837 41.0339 35.7352 41.2742 35.7352Z" fill="#8798A5" fill-opacity="0.4"/>
<path d="M46.4393 36.2497C46.1819 36.2497 45.9416 36.1982 45.7184 36.1124C45.4953 36.0094 45.3237 35.8721 45.1692 35.6661H45.1177C45.152 35.9064 45.1692 36.1296 45.1692 36.3355V38.0004H44.5513V32.1476H45.0491L45.1349 32.6968H45.1692C45.3237 32.4737 45.5125 32.3192 45.7184 32.2162C45.9244 32.1133 46.1647 32.0618 46.4393 32.0618C46.9714 32.0618 47.3833 32.2506 47.6751 32.611C47.9669 32.9714 48.1042 33.4864 48.1042 34.1557C48.1042 34.8251 47.9497 35.34 47.6579 35.7005C47.3833 36.0609 46.9714 36.2497 46.4393 36.2497ZM46.3535 32.5767C45.9416 32.5767 45.6498 32.6968 45.461 32.92C45.2722 33.1431 45.1864 33.5207 45.1692 34.0184V34.1557C45.1692 34.7221 45.2722 35.1341 45.461 35.3744C45.6498 35.6147 45.9587 35.7348 46.3707 35.7348C46.7139 35.7348 46.9886 35.5975 47.1945 35.3057C47.4005 35.0311 47.4863 34.6363 47.4863 34.1386C47.4863 33.6408 47.3833 33.2461 47.1945 32.9714C46.9886 32.714 46.7139 32.5767 46.3535 32.5767Z" fill="#8798A5" fill-opacity="0.4"/>
<path d="M51.4867 35.5805L51.6069 35.2372L51.7613 34.8082L52.8598 32.1478H53.6322V36.1812H53.083V32.8515L53.0143 33.0575L52.8083 33.6239L51.7613 36.1812H51.2464L50.1995 33.6067C50.0621 33.2806 49.9763 33.0231 49.9248 32.8343V36.1641H49.3756V32.1306H50.1308L51.1949 34.688C51.2979 34.9798 51.3837 35.2716 51.4867 35.5805Z" fill="#8798A5" fill-opacity="0.4"/>
<path d="M57.4582 36.1815L57.338 35.5979H57.3037C57.0977 35.8554 56.9089 36.027 56.7029 36.1128C56.497 36.1986 56.2567 36.2501 55.9477 36.2501C55.553 36.2501 55.2269 36.1471 55.0037 35.9412C54.7806 35.7352 54.6605 35.4434 54.6605 35.0658C54.6605 34.242 55.3127 33.83 56.6171 33.7786L57.3037 33.7614V33.5039C57.3037 33.195 57.235 32.9547 57.0977 32.8002C56.9604 32.6457 56.7373 32.5771 56.4455 32.5771C56.1022 32.5771 55.7246 32.6801 55.2955 32.886L55.1067 32.4226C55.3127 32.3196 55.5187 32.2338 55.7589 32.1652C55.9992 32.0965 56.2395 32.0793 56.4798 32.0793C56.9604 32.0793 57.3208 32.1823 57.544 32.4055C57.7843 32.6114 57.8872 32.9547 57.8872 33.4353V36.1986H57.4582V36.1815ZM56.0679 35.7352C56.4455 35.7352 56.7544 35.6322 56.9604 35.4263C57.1835 35.2203 57.2865 34.9285 57.2865 34.5509V34.1905L56.6686 34.2076C56.188 34.2248 55.8276 34.2935 55.6216 34.4308C55.3985 34.5681 55.2955 34.774 55.2955 35.0487C55.2955 35.2718 55.3642 35.4434 55.5015 35.5464C55.6388 35.6837 55.8276 35.7352 56.0679 35.7352Z" fill="#8798A5" fill-opacity="0.4"/>
<path d="M63.293 37.5715H62.6923V36.1812H59.3625V32.1306H59.9632V35.6492H62.1087V32.1306H62.7266V35.6492H63.293V37.5715Z" fill="#8798A5" fill-opacity="0.4"/>
<path d="M65.9912 36.2497C65.3905 36.2497 64.9271 36.0609 64.5838 35.7005C64.2405 35.34 64.0689 34.8251 64.0689 34.1901C64.0689 33.5378 64.2234 33.0229 64.5495 32.6453C64.8756 32.2677 65.3047 32.0618 65.8368 32.0618C66.3517 32.0618 66.7464 32.2334 67.0382 32.5595C67.33 32.8856 67.4845 33.3319 67.4845 33.8811V34.2759H64.704C64.7211 34.7565 64.8413 35.1169 65.0644 35.3572C65.2875 35.5975 65.6136 35.7176 66.0256 35.7176C66.4547 35.7176 66.8837 35.6318 67.3128 35.443V35.9923C67.0897 36.0781 66.8837 36.1467 66.6949 36.1982C66.489 36.2325 66.2659 36.2497 65.9912 36.2497ZM65.8196 32.5767C65.4935 32.5767 65.236 32.6797 65.0472 32.8856C64.8584 33.0916 64.7383 33.3834 64.704 33.761H66.8151C66.8151 33.3834 66.7293 33.0744 66.5576 32.8685C66.386 32.6797 66.1457 32.5767 65.8196 32.5767Z" fill="#8798A5" fill-opacity="0.4"/>
<path d="M71.9793 33.1433C71.9793 33.4007 71.9107 33.6067 71.7562 33.744C71.6017 33.8813 71.3958 33.9671 71.1212 34.0186V34.0529C71.4644 34.1044 71.7219 34.2074 71.8764 34.3619C72.0308 34.5164 72.1166 34.7223 72.1166 34.997C72.1166 35.3746 71.9793 35.6663 71.7047 35.8723C71.4301 36.0783 71.0182 36.1812 70.4861 36.1812H68.7011V32.1306H70.4689C71.4816 32.1306 71.9793 32.4739 71.9793 33.1433ZM71.3786 33.2119C71.3786 33.0231 71.31 32.8687 71.1555 32.8C71.001 32.7142 70.7779 32.6799 70.4689 32.6799H69.319V33.8127H70.3488C70.7264 33.8127 71.001 33.7612 71.1555 33.6753C71.31 33.5724 71.3786 33.4179 71.3786 33.2119ZM71.4988 34.9626C71.4988 34.7395 71.4129 34.585 71.2413 34.482C71.0697 34.3791 70.795 34.3276 70.4174 34.3276H69.3018V35.6663H70.4346C71.1555 35.6663 71.4988 35.426 71.4988 34.9626Z" fill="#8798A5" fill-opacity="0.4"/>
<path d="M76.0645 32.6455H74.7601V36.1812H74.1422V32.6455H72.8377V32.1306H76.0645V32.6455Z" fill="#8798A5" fill-opacity="0.4"/>
<path d="M77.4903 32.1306V34.688L77.456 35.3574L77.4388 35.5805L79.6357 32.1306H80.3909V36.1812H79.8245V33.7097L79.8417 33.2119L79.8589 32.7313L77.6791 36.1812H76.9067V32.1306H77.4903Z" fill="#8798A5" fill-opacity="0.4"/>
<path d="M82.1237 32.1306V33.6067C82.1237 34.0873 82.3984 34.3104 82.9304 34.3104C83.1536 34.3104 83.3767 34.2761 83.5655 34.2074C83.7715 34.1388 83.9946 34.0186 84.252 33.8641V32.1306H84.8699V36.1812H84.252V34.3447C83.9946 34.5164 83.7543 34.6537 83.5312 34.7223C83.308 34.791 83.0677 34.8253 82.776 34.8253C82.364 34.8253 82.0551 34.7223 81.832 34.5164C81.6088 34.3104 81.4887 34.0186 81.4887 33.6582V32.1306H82.1237Z" fill="#8798A5" fill-opacity="0.4"/>
<path d="M88.0607 36.2497C87.4599 36.2497 86.9965 36.0609 86.6532 35.7005C86.31 35.34 86.1383 34.8251 86.1383 34.1901C86.1383 33.5378 86.2928 33.0229 86.6189 32.6453C86.945 32.2677 87.3741 32.0618 87.9062 32.0618C88.4211 32.0618 88.8159 32.2334 89.1077 32.5595C89.3994 32.8856 89.5539 33.3319 89.5539 33.8811V34.2759H86.7734C86.7906 34.7565 86.9107 35.1169 87.1338 35.3572C87.357 35.5975 87.6831 35.7176 88.095 35.7176C88.5241 35.7176 88.9532 35.6318 89.3823 35.443V35.9923C89.1592 36.0781 88.9532 36.1467 88.7644 36.1982C88.5756 36.2325 88.3353 36.2497 88.0607 36.2497ZM87.9062 32.5767C87.5801 32.5767 87.3226 32.6797 87.1338 32.8856C86.945 33.0916 86.8249 33.3834 86.7906 33.761H88.9017C88.9017 33.3834 88.8159 33.0744 88.6442 32.8685C88.4726 32.6797 88.2151 32.5767 87.9062 32.5767Z" fill="#8798A5" fill-opacity="0.4"/>
<path d="M92.4062 36.2501C91.8226 36.2501 91.3764 36.0785 91.0503 35.7181C90.7242 35.3576 90.5697 34.8427 90.5697 34.1905C90.5697 33.5211 90.7413 32.989 91.0503 32.6286C91.3764 32.2681 91.8398 32.0793 92.4405 32.0793C92.6293 32.0793 92.8353 32.0965 93.0241 32.148C93.2129 32.1823 93.3674 32.2338 93.4875 32.3025L93.2987 32.8174C93.1614 32.7659 93.0241 32.7144 92.8525 32.6801C92.698 32.6457 92.5435 32.6286 92.4234 32.6286C91.5995 32.6286 91.1876 33.1607 91.1876 34.2076C91.1876 34.7054 91.2906 35.083 91.4965 35.3576C91.7025 35.6151 91.9943 35.7524 92.389 35.7524C92.7323 35.7524 93.0756 35.6837 93.4189 35.5293V36.0785C93.1614 36.1815 92.8181 36.2501 92.4062 36.2501Z" fill="#8798A5" fill-opacity="0.4"/>
<path d="M96.9374 32.1306H97.6068L95.8561 34.0873L97.7441 36.1812H97.0404L95.1867 34.1216V36.1812H94.5688V32.1306H95.1867V34.1044L96.9374 32.1306Z" fill="#8798A5" fill-opacity="0.4"/>
<path d="M101.176 36.1815L101.056 35.5979H101.021C100.815 35.8554 100.626 36.027 100.421 36.1128C100.215 36.1986 99.9742 36.2501 99.6653 36.2501C99.2705 36.2501 98.9444 36.1471 98.7213 35.9412C98.4982 35.7352 98.378 35.4434 98.378 35.0658C98.378 34.242 99.0302 33.83 100.335 33.7786L101.021 33.7614V33.5039C101.021 33.195 100.953 32.9547 100.815 32.8002C100.678 32.6457 100.455 32.5771 100.163 32.5771C99.8198 32.5771 99.4422 32.6801 99.0131 32.886L98.8243 32.4226C99.0302 32.3196 99.2362 32.2338 99.4765 32.1652C99.7168 32.0965 99.9571 32.0793 100.197 32.0793C100.678 32.0793 101.038 32.1823 101.262 32.4055C101.502 32.6114 101.605 32.9547 101.605 33.4353V36.1986H101.176V36.1815ZM99.7854 35.7352C100.163 35.7352 100.472 35.6322 100.678 35.4263C100.901 35.2203 101.004 34.9285 101.004 34.5509V34.1905L100.386 34.2076C99.9056 34.2248 99.5452 34.2935 99.3392 34.4308C99.1161 34.5681 99.0131 34.774 99.0131 35.0487C99.0131 35.2718 99.0817 35.4434 99.219 35.5464C99.3564 35.6837 99.5452 35.7352 99.7854 35.7352Z" fill="#8798A5" fill-opacity="0.4"/>
<path d="M103.266 36.1804H102.563L103.73 34.4812C103.421 34.4126 103.181 34.2753 103.009 34.0865C102.837 33.8805 102.751 33.6402 102.751 33.3313C102.751 32.9537 102.872 32.679 103.129 32.4559C103.369 32.25 103.73 32.147 104.176 32.147H105.978V36.1976H105.36V34.5842H104.331L103.266 36.1804ZM103.352 33.3313C103.352 33.7947 103.696 34.035 104.365 34.035H105.343V32.6619H104.228C103.644 32.6619 103.352 32.885 103.352 33.3313Z" fill="#8798A5" fill-opacity="0.4"/>
<path d="M112.264 32.1306H112.933L111.2 34.0873L113.088 36.1812H112.367L110.531 34.1216V36.1812H109.913V32.1306H110.531V34.1044L112.264 32.1306Z" fill="#8798A5" fill-opacity="0.4"/>
<path d="M117.514 34.1565C117.514 34.8088 117.343 35.3237 117.017 35.7013C116.69 36.0789 116.227 36.2505 115.643 36.2505C115.283 36.2505 114.957 36.1647 114.682 35.9931C114.408 35.8214 114.185 35.5811 114.03 35.255C113.876 34.9461 113.807 34.5685 113.807 34.1394C113.807 33.4872 113.979 32.9722 114.305 32.5946C114.631 32.2342 115.094 32.0454 115.678 32.0454C116.244 32.0454 116.69 32.2342 117.034 32.6118C117.343 32.9894 117.514 33.5043 117.514 34.1565ZM114.425 34.1565C114.425 34.6715 114.528 35.0662 114.734 35.3408C114.94 35.6155 115.249 35.7528 115.643 35.7528C116.038 35.7528 116.347 35.6155 116.553 35.3408C116.759 35.0662 116.862 34.6715 116.862 34.1565C116.862 33.6416 116.759 33.2469 116.553 32.9894C116.347 32.7148 116.038 32.5946 115.626 32.5946C115.232 32.5946 114.923 32.732 114.717 32.9894C114.528 33.2297 114.425 33.6245 114.425 34.1565Z" fill="#8798A5" fill-opacity="0.4"/>
<path d="M120.725 35.5805L120.845 35.2372L121 34.8082L122.098 32.1478H122.87V36.1812H122.321V32.8515L122.253 33.0575L122.047 33.6239L121 36.1812H120.485L119.438 33.6067C119.3 33.2806 119.215 33.0231 119.163 32.8343V36.1641H118.614V32.1306H119.369L120.433 34.688C120.536 34.9798 120.639 35.2716 120.725 35.5805Z" fill="#8798A5" fill-opacity="0.4"/>
<path d="M124.982 36.1812H124.364V32.1306H127.762V36.1812H127.127V32.6627H124.982V36.1812Z" fill="#8798A5" fill-opacity="0.4"/>
<path d="M131.433 36.1815L131.313 35.5979H131.279C131.073 35.8554 130.884 36.027 130.678 36.1128C130.472 36.1986 130.232 36.2501 129.923 36.2501C129.528 36.2501 129.202 36.1471 128.979 35.9412C128.756 35.7352 128.636 35.4434 128.636 35.0658C128.636 34.242 129.288 33.83 130.592 33.7786L131.279 33.7614V33.5039C131.279 33.195 131.21 32.9547 131.073 32.8002C130.936 32.6457 130.712 32.5771 130.421 32.5771C130.077 32.5771 129.7 32.6801 129.271 32.886L129.082 32.4226C129.288 32.3196 129.494 32.2338 129.734 32.1652C129.974 32.0965 130.215 32.0793 130.455 32.0793C130.936 32.0793 131.296 32.1823 131.519 32.4055C131.759 32.6114 131.862 32.9547 131.862 33.4353V36.1986H131.433V36.1815ZM130.043 35.7352C130.421 35.7352 130.73 35.6322 130.936 35.4263C131.159 35.2203 131.262 34.9285 131.262 34.5509V34.1905L130.644 34.2076C130.163 34.2248 129.803 34.2935 129.597 34.4308C129.374 34.5681 129.271 34.774 129.271 35.0487C129.271 35.2718 129.339 35.4434 129.477 35.5464C129.614 35.6837 129.803 35.7352 130.043 35.7352Z" fill="#8798A5" fill-opacity="0.4"/>
<path d="M133.94 32.1306V33.8298H136.206V32.1306H136.824V36.1812H136.206V34.3447H133.94V36.1812H133.322V32.1306H133.94Z" fill="#8798A5" fill-opacity="0.4"/>
<path d="M138.883 32.1306V34.688L138.849 35.3574V35.5805L141.028 32.1306H141.801V36.1812H141.217V33.7097L141.234 33.2119L141.252 32.7313L139.072 36.1812H138.299V32.1306H138.883Z" fill="#8798A5" fill-opacity="0.4"/>
<path d="M143.484 36.1804H142.764L143.931 34.4812C143.622 34.4126 143.381 34.2753 143.21 34.0865C143.038 33.8805 142.952 33.6402 142.952 33.3313C142.952 32.9537 143.072 32.679 143.33 32.4559C143.57 32.25 143.931 32.147 144.377 32.147H146.179V36.1976H145.561V34.5842H144.531L143.484 36.1804ZM143.57 33.3313C143.57 33.7947 143.914 34.035 144.583 34.035H145.561V32.6619H144.446C143.862 32.6619 143.57 32.885 143.57 33.3313Z" fill="#8798A5" fill-opacity="0.4"/>
<path fill-rule="evenodd" clip-rule="evenodd" d="M75.6695 11.0708H69.1988V25.8316H74.0046V20.734L75.1374 20.7168C75.6695 20.7168 76.6993 20.6653 77.1627 20.631C80.6641 20.2877 82.4835 18.64 82.4835 15.8595C82.5007 12.8902 80.544 11.0708 75.6695 11.0708ZM74.5024 18.6572H74.0046V13.3192H75.2576C76.3046 13.3192 77.6948 14.2289 77.6948 15.8766C77.6948 17.7132 76.1501 18.6572 74.5024 18.6572Z" fill="#8798A5" fill-opacity="0.4"/>
<path fill-rule="evenodd" clip-rule="evenodd" d="M131.246 25.8487L125.324 18.1594L131.606 11.0708H126.955L121.274 17.2669V11.0708H116.468V25.8487H121.274V19.584L125.925 25.8487H131.246Z" fill="#8798A5" fill-opacity="0.4"/>
<path fill-rule="evenodd" clip-rule="evenodd" d="M44.655 18.0049V17.8848C46.1654 17.6102 47.6758 16.4602 47.6758 14.5035C47.6758 12.1006 45.4617 11.0708 42.2006 11.0708H33.8419V25.8316H42.5439C46.1482 25.8316 48.2422 24.3212 48.2422 21.7466C48.2422 19.2922 46.3199 18.2109 44.655 18.0049ZM38.6477 13.3192H40.4156C41.8058 13.3192 42.7155 14.0744 42.7155 15.2587C42.7155 16.5289 41.5827 17.3699 40.0723 17.3699H38.6649V13.3192H38.6477ZM40.57 23.6346H38.6477V19.2236H40.467C41.926 19.2236 43.0931 20.0131 43.0931 21.3347C43.0759 22.6391 42.0633 23.6346 40.57 23.6346Z" fill="#8798A5" fill-opacity="0.4"/>
<path fill-rule="evenodd" clip-rule="evenodd" d="M97.435 11.0708L97.8641 13.6625H93.1784V25.9346H88.1666V13.6625H83.6869L84.0817 11.0708H97.435Z" fill="#8798A5" fill-opacity="0.4"/>
<path fill-rule="evenodd" clip-rule="evenodd" d="M111.663 25.8487H100.746V11.0708H111.457L111.834 13.6625H105.552V16.9751H111.457V19.5668H105.552V23.257H112.057L111.663 25.8487Z" fill="#8798A5" fill-opacity="0.4"/>
<path fill-rule="evenodd" clip-rule="evenodd" d="M0.613281 22.1589C7.73622 22.1589 14.1554 20.7515 18.5493 18.4688C22.3254 20.4254 24.6081 23.0171 24.6081 25.832C24.6081 31.9594 13.8637 36.9197 0.613281 36.9197V22.1589Z" fill="#8798A5" fill-opacity="0.4"/>
<path fill-rule="evenodd" clip-rule="evenodd" d="M0.613281 0C13.3316 0.13731 23.544 4.73718 23.544 10.4012C23.544 13.2332 21.0038 15.7906 16.8845 17.6614C12.5935 15.8593 6.89519 14.7608 0.613281 14.7608V0Z" fill="#8798A5" fill-opacity="0.4"/>
<path fill-rule="evenodd" clip-rule="evenodd" d="M145.183 22.3121C144.29 23.033 143.14 23.7539 141.527 23.7539C139.124 23.7539 137.511 22.1577 137.511 18.4503C137.511 14.7086 139.141 13.1124 141.527 13.1124C143.106 13.1124 144.239 13.8504 145.114 14.5541L146.848 12.5632C145.269 11.3789 143.501 10.7095 141.167 10.7095C135.983 10.7095 132.344 13.7303 132.344 18.4675C132.344 23.1703 136 26.2083 141.167 26.2083C143.467 26.2083 145.2 25.5904 146.762 24.4404L145.183 22.3121Z" fill="#8798A5" fill-opacity="0.4"/>
</svg>
