<svg width="38" height="38" viewBox="0 0 38 38" fill="none" xmlns="http://www.w3.org/2000/svg">
<circle cx="18.768" cy="18.7592" r="18.7592" fill="#134577"/>
<path fill-rule="evenodd" clip-rule="evenodd" d="M26.1192 14.2329H24.2175C23.7339 14.2329 23.511 14.4913 23.3901 14.7762C23.3901 14.7762 22.4231 17.1577 21.0531 18.7046C20.6099 19.1524 20.4085 19.295 20.1665 19.295C20.0458 19.295 19.8708 19.1524 19.8708 18.7454V14.9391C19.8708 14.4506 19.7304 14.2329 19.3275 14.2329H16.3391C16.037 14.2329 15.8553 14.4596 15.8553 14.6745C15.8553 15.1377 16.5402 15.2444 16.6108 16.547V19.3762C16.6108 19.9966 16.5 20.109 16.2582 20.109C15.6135 20.109 14.0453 17.7171 13.1153 14.9799C12.933 14.4478 12.7501 14.2329 12.2641 14.2329H10.3625C9.81912 14.2329 9.71045 14.4913 9.71045 14.7762C9.71045 15.2851 10.3551 17.809 12.7122 21.1472C14.2837 23.4267 16.4978 24.6625 18.5125 24.6625C19.7213 24.6625 19.8708 24.3881 19.8708 23.9153V22.1923C19.8708 21.6434 19.9853 21.5339 20.3681 21.5339C20.6501 21.5339 21.1337 21.6764 22.2619 22.7754C23.5512 24.078 23.764 24.6625 24.4892 24.6625H26.3909C26.9342 24.6625 27.2059 24.3881 27.0491 23.8464C26.8777 23.3065 26.2619 22.5233 25.4452 21.5948C25.002 21.0657 24.337 20.4959 24.1356 20.2109C23.8535 19.8446 23.9342 19.6816 24.1356 19.3559C24.1356 19.3559 26.4525 16.0586 26.6943 14.9391C26.8152 14.5321 26.6943 14.2329 26.1192 14.2329Z" fill="white"/>
</svg>
